<svg width="1920" height="1080" viewBox="0 0 1920 1080" fill="none" xmlns="http://www.w3.org/2000/svg">
<path d="M276.281 662.739L219.712 904.973C219.258 906.918 219.629 908.964 220.738 910.625C221.743 912.132 223.277 913.206 225.037 913.635L287.886 928.951C289.244 929.282 290.668 929.223 291.994 928.781L292.198 928.714C293.938 928.134 295.376 926.887 296.197 925.247C296.442 924.758 296.628 924.241 296.751 923.708L305.666 885.108C308.713 871.916 322.676 864.42 335.356 869.171C336.996 869.785 338.702 870.205 340.44 870.422L364.229 873.394L477.92 877.819C486.637 878.159 495.044 881.142 502.025 886.373C503.678 887.612 505.418 888.73 507.232 889.719L512.185 892.418C519.153 896.215 526.476 899.319 534.05 901.684L537.829 902.864C545.297 905.195 553.005 906.675 560.805 907.274C567.268 907.771 573.764 907.661 580.207 906.946L585.374 906.372H708.881C711.216 906.372 713.508 907.007 715.511 908.207C718.799 910.179 722.794 910.584 726.412 909.315L764.78 895.845C775.994 891.909 787.871 890.213 799.737 890.854L829.219 892.446C837.829 892.911 845.772 897.227 850.846 904.198C854.223 908.838 858.916 912.358 864.317 914.3L891.502 924.079C895.164 925.396 899.223 924.999 902.56 922.998C904.512 921.829 906.121 920.166 907.227 918.177L909.084 914.837C912.129 909.362 916.967 905.103 922.784 902.778L930.577 899.663C941.089 895.462 952.703 894.889 963.577 898.034L995.549 907.281C1004.83 909.967 1014.36 911.734 1023.99 912.559L1107.99 919.753C1119.31 920.722 1130.46 923.099 1141.19 926.829C1155.62 931.844 1170.79 934.404 1186.07 934.404H1290.07H1346.18H1414.95C1425.2 934.404 1435.42 933.53 1445.51 931.791L1478.2 926.16L1516.02 919.492C1527.61 917.448 1539.52 920.661 1548.51 928.262C1553.28 932.299 1558.94 935.15 1565.03 936.582L1574.68 938.851C1580.76 940.279 1586.98 941 1593.22 941H1597.41C1607 941 1616.55 939.566 1625.72 936.746C1630.79 935.188 1635.72 933.213 1640.47 930.843L1643.47 929.344C1654.21 923.976 1663.79 916.542 1671.66 907.469C1677.98 900.188 1683.1 891.954 1686.85 883.072L1688.9 878.206C1692.55 869.529 1695.21 860.466 1696.83 851.19L1697.76 845.851C1699.9 833.539 1699.74 820.937 1697.29 808.683C1695.37 799.108 1692.08 789.861 1687.51 781.231L1580.68 579.454C1576.56 571.664 1577.3 562.192 1582.59 555.142C1583.41 554.05 1584.13 552.886 1584.75 551.664L1585.66 549.839C1587.71 545.74 1588.78 541.22 1588.78 536.637C1588.78 534.692 1588.59 532.752 1588.2 530.846L1587.13 525.468L1577.22 492.489L1573.49 481.299C1572.71 478.962 1572.89 476.411 1574 474.208C1575.01 472.176 1576.74 470.587 1578.85 469.744L1580.49 469.088C1582.68 468.214 1585.05 467.908 1587.39 468.2L1595.32 469.191C1596.46 469.333 1597.58 469.562 1598.68 469.876L1605.99 471.962C1607.63 472.432 1609.4 472.156 1610.82 471.208C1612.51 470.087 1613.49 468.174 1613.42 466.152L1612.01 425.273C1611.93 423 1610.62 420.952 1608.58 419.936C1598.73 414.467 1588.16 410.407 1577.17 407.875L1572.27 406.745L1554.12 405.096C1541.75 405.096 1530.19 398.915 1523.32 388.622L1494.71 345.734L1487.68 332.854C1485.77 329.366 1483.38 326.17 1480.57 323.361L1479.21 322.003C1476.37 319.162 1473.01 316.889 1469.31 315.307C1465.38 313.623 1461.15 312.755 1456.87 312.755H1455.5C1451.95 312.755 1448.42 313.25 1445 314.225L1443.95 314.524C1440.4 315.54 1436.97 316.98 1433.76 318.815L1431.91 319.871C1428.67 321.719 1425.6 323.849 1422.74 326.234L1382.03 360.132C1372.76 367.852 1360.97 371.895 1348.91 371.494L1334.36 371.009C1324.43 370.678 1315.56 364.705 1311.52 355.628L1308.66 349.907C1307.41 347.415 1307.9 344.405 1309.87 342.436L1313.23 339.078C1315.37 336.942 1317.05 334.394 1318.17 331.588C1319.23 328.951 1319.77 326.136 1319.77 323.296V320.244C1319.77 317.458 1319.47 314.681 1318.86 311.962L1317.65 306.511C1316.88 303.025 1315.31 299.763 1313.08 296.975L1311.08 294.478C1310.28 293.483 1309.28 292.673 1308.14 292.104L1305.52 290.794C1304.14 290.105 1303.27 288.697 1303.27 287.156C1303.27 286.638 1303.17 286.125 1302.98 285.645L1300.79 280.186C1300.25 278.828 1299.44 277.595 1298.4 276.561L1297.95 276.108C1295.17 273.331 1291 272.477 1287.36 273.934C1285.88 274.523 1284.58 275.458 1283.55 276.661L1277.53 283.677C1276.06 285.388 1273.92 286.372 1271.66 286.372C1270.74 286.372 1269.82 286.539 1268.95 286.863L1259.03 290.58C1257.73 291.07 1256.5 291.763 1255.41 292.634L1250.91 296.232C1249.63 297.258 1247.87 297.445 1246.4 296.71C1245.81 296.418 1245.17 296.266 1244.51 296.266H1235.94C1234.63 296.266 1233.35 296.569 1232.18 297.151C1229.24 298.621 1225.71 298.239 1223.15 296.174L1098.63 195.681C1093.16 190.214 1086.92 185.574 1080.1 181.91L1076.21 179.817C1071.36 177.205 1066.31 174.963 1061.12 173.111L1057.42 171.789C1049.72 169.041 1041.69 167.305 1033.54 166.627C1028.53 166.21 1023.5 166.194 1018.48 166.579L1014.34 166.897C1007.83 167.397 1001.37 168.444 995.04 170.027L993.565 170.395C987.704 171.859 981.988 173.853 976.487 176.351C969.916 179.335 963.688 183.023 957.913 187.351L955.642 189.053C949.757 193.463 944.27 198.381 939.243 203.749L864.265 283.831C855.792 292.881 844.197 298.373 831.827 299.197C828.169 299.441 824.551 300.095 821.039 301.148L809.82 304.511L795.494 310.645C789.701 313.125 783.466 314.404 777.165 314.404H739.74C734.694 314.404 730.604 310.314 730.604 305.267C730.604 304.764 730.562 304.261 730.479 303.764L730.144 301.757C729.359 297.051 727.584 292.565 724.936 288.596L724.435 287.846C723.05 285.769 721.462 283.835 719.697 282.07L718.391 280.766C715.549 277.926 712.268 275.563 708.674 273.768L705.254 272.06C704.553 271.709 703.809 271.454 703.04 271.301C698.916 270.476 695.947 266.855 695.947 262.649V261.434C695.947 260.476 695.813 259.522 695.549 258.601L694.302 254.238C693.203 250.396 691.571 246.728 689.451 243.34L688.698 242.136C685.847 237.578 682.289 233.502 678.157 230.062C675.719 228.032 673.096 226.236 670.323 224.696L664.374 221.394C661.228 219.648 657.892 218.267 654.432 217.28C650.223 216.078 645.866 215.468 641.488 215.468H639.01C632.988 215.468 626.996 216.307 621.205 217.96L618.381 218.766C610.707 222.052 603.452 226.243 596.772 231.249L435.77 351.898C426.664 358.722 416.364 363.785 405.4 366.828L401.794 367.829C395.489 369.579 389.479 372.252 383.958 375.763C377.457 379.896 370.285 382.865 362.764 384.535L318.366 394.393C316.026 394.912 313.977 396.315 312.646 398.309C311.839 399.519 311.327 400.901 311.151 402.345L280.371 654.849C280.171 656.491 279.427 658.018 278.256 659.187C277.279 660.163 276.595 661.394 276.281 662.739Z" fill="#12151A" stroke="#12151A" stroke-width="30"/>
<path d="M1668.63 760.391C1715.94 800.089 1702.08 870.317 1673.17 904.768C1639.99 944.315 1582.25 954.987 1539.55 919.157C1489.57 877.219 1494.96 818.073 1530.79 775.373C1575.78 721.755 1637.09 733.925 1668.63 760.391ZM1631.72 860.062C1646.17 842.836 1638.62 823.265 1624.79 811.661C1620.18 807.793 1595.83 789.016 1575.06 813.763C1557.96 834.143 1570.3 854.42 1581.22 863.581C1597.96 877.628 1620.11 873.891 1631.72 860.062Z" fill="#510098"/>
<path d="M1493.98 920.313L1432.15 934.431L1431.53 934.541C1428.1 935.146 1425.11 932.779 1424.19 929.403L1389.61 778.882C1388.95 775.139 1390.95 771.892 1394.64 770.92L1456.47 756.802L1457.09 756.692C1460.21 756.142 1463.51 758.454 1464.06 761.573L1498.7 912.406L1498.81 913.03C1499.36 916.149 1497.05 919.451 1493.98 920.313ZM1458.99 703.615C1463.44 728.879 1446.49 753.094 1421.23 757.549C1395.65 762.059 1371.43 745.103 1366.98 719.839C1362.47 694.263 1379.43 670.048 1405 665.538C1430.27 661.083 1454.48 678.039 1458.99 703.615Z" fill="#510098"/>
<path d="M1356.25 935.297H1292.59C1289.11 935.297 1286.26 932.447 1286.26 928.963V670.208C1286.26 666.407 1289.11 663.557 1292.59 663.557H1356.25C1359.74 663.557 1362.59 666.407 1362.59 670.208V928.963C1362.59 932.447 1359.74 935.297 1356.25 935.297Z" fill="#510098"/>
<path d="M1286.31 837.804C1286.31 899.563 1223.6 934.085 1178.63 934.085C1127 934.085 1081.71 896.713 1081.71 840.971C1081.71 775.728 1130.49 741.84 1186.23 741.84C1256.22 741.84 1286.31 796.631 1286.31 837.804ZM1186.23 873.593C1208.72 873.593 1218.85 855.223 1218.85 837.171C1218.85 831.153 1217.58 800.432 1185.28 800.432C1158.67 800.432 1151.07 822.918 1151.07 837.171C1151.07 859.024 1168.18 873.593 1186.23 873.593Z" fill="#510098"/>
<path d="M1019.14 904.599L1018.6 906.087C1016.21 912.635 1011.72 912.011 1007.85 910.603C1007.85 910.603 957.854 896.112 951.009 893.62L950.414 893.404C945.95 891.779 944.273 887.124 945.492 882.849C955.026 852.952 966.402 814.289 978.399 778.548L957.404 769.558C954.239 768.069 952.644 764.118 953.835 760.844L975.388 712.74C976.877 709.575 980.531 707.871 984.102 709.171L1001.04 716.347L1005.94 705.66C1031.63 652.66 1079.85 647.966 1117.65 661.723C1128.96 665.839 1139.32 671.632 1147.76 678.075C1151.31 680.376 1150.57 685.165 1149.49 688.141L1149.06 689.332L1131.35 721.31C1129.02 725.855 1123.18 727.098 1119.31 725.69L1118.42 725.365C1103.24 719.84 1080.27 717.209 1069.98 745.482L1094.73 756.178C1098 757.369 1099.6 761.32 1098.3 764.892L1076.75 812.995C1075.37 815.863 1072.01 817.675 1068.74 816.484L1068.14 816.267L1047.63 807.792C1037.23 840.069 1026.72 876.352 1019.14 904.599Z" fill="#510098"/>
<path d="M924.545 876.047L908.076 915.953C905.542 921.971 902.692 925.138 897.941 925.138C896.991 925.138 896.041 925.138 895.091 924.821C844.1 914.686 826.364 886.815 824.78 806.687L801.027 805.42C797.543 805.103 794.692 801.936 794.692 798.452L798.493 745.878C798.81 742.394 801.66 739.544 805.461 739.544L825.73 740.81C826.364 728.775 826.997 715.79 827.947 702.171C828.264 698.371 828.897 692.353 837.132 692.353H838.399L898.258 695.204C903.642 695.52 906.176 698.688 906.176 704.072C905.542 717.374 904.592 731.309 903.642 744.611L925.495 745.878C928.979 745.878 931.829 749.045 931.829 752.846L928.029 805.42C927.712 808.587 925.178 811.438 921.694 811.438H921.061L900.158 810.487C900.158 839.308 903.958 861.162 917.894 867.179C921.378 868.763 925.178 870.029 925.178 873.513C925.178 874.147 924.862 875.097 924.545 876.047Z" fill="#510098"/>
<path d="M780.012 890.277L720.035 909.955C716.364 910.938 712.649 909.311 711.666 905.64L660.475 748.856C659.491 745.185 661.425 741.388 664.79 740.486L699.785 729.142C714.911 719.515 730.163 712.805 745.459 708.706C755.861 705.919 766.284 704.438 776.341 704.038C781.258 704.032 783.749 705.988 784.733 709.659C785.061 710.882 785.083 712.188 785.187 713.8L787.873 759.312C788.103 763.841 785.618 766.802 781.946 767.785C781.029 768.031 779.723 768.053 778.417 768.075C773.113 767.857 767.666 768.333 762.466 769.727C758.183 770.874 754.064 772.634 749.497 775.169L784.327 881.908L784.491 882.519C785.393 885.885 783.377 889.376 780.012 890.277Z" fill="#510098"/>
<path d="M672.679 811.411C672.679 873.17 609.969 907.692 564.996 907.692C513.372 907.692 468.082 870.32 468.082 814.578C468.082 749.335 516.856 715.447 572.597 715.447C642.591 715.447 672.679 770.238 672.679 811.411ZM572.597 847.2C595.084 847.2 605.219 828.83 605.219 810.778C605.219 804.76 603.952 774.039 571.647 774.039C545.043 774.039 537.442 796.526 537.442 810.778C537.442 832.631 554.544 847.2 572.597 847.2Z" fill="#510098"/>
<path d="M289.712 928.588L289.088 928.478L224.193 913.498C220.506 912.526 218.505 909.279 219.165 905.536L275.456 661.077C276.006 657.958 279.308 655.646 282.739 656.251L283.363 656.361L339.946 669.232C353.137 667.377 365.998 667.394 378.162 669.539C435.864 679.713 480.417 731.628 469.802 791.825C459.628 849.527 413.234 882.833 348.358 871.393C335.258 869.083 322.8 864.957 311.553 859.436L297.05 923.45C296.133 926.826 292.831 929.138 289.712 928.588ZM340.597 733.024L325.616 797.918C331.928 802.247 340.277 805.97 348.698 807.455C383.007 813.505 388.892 780.131 389.277 777.948C393.126 756.115 378.355 737.752 355.274 733.682C350.907 732.912 345.807 732.656 340.597 733.024Z" fill="#510098"/>
<path d="M1472.89 569.26L1469.61 568.068C1463.07 565.685 1460.52 563.412 1460.58 557.702L1460.05 518.413C1460.08 517.412 1460.11 516.411 1460.32 515.815C1461.95 511.351 1468.12 512.922 1471.69 514.222C1489.35 520.316 1500.72 515.015 1503.32 507.873C1504.73 504.004 1502.59 497.834 1500.38 490.96L1495.59 479.107C1487.91 459.46 1487.21 444.713 1491.33 433.404C1503.57 399.773 1558.58 399.573 1597.57 413.763C1609.17 417.988 1611.72 420.262 1611.85 426.377L1612.68 465.775C1612.84 467.182 1612.51 468.075 1612.19 468.967C1611 472.241 1607.29 472.24 1603.42 470.832L1602.23 470.399C1584.37 463.899 1575.36 467.36 1573.2 473.312C1571.35 478.372 1573.76 485.651 1580.52 502.267C1588.79 522.131 1589.87 537.69 1585.76 548.999C1572.97 584.117 1512.77 583.775 1472.89 569.26Z" fill="#510098"/>
<path d="M1472.71 423.415L1457.25 421.985C1455.25 421.865 1453.92 420.582 1453.43 418.746C1453.18 417.828 1452.94 416.911 1453.3 415.829C1455.54 407.033 1458.83 397.298 1461.12 387.503C1440.46 392.383 1419.9 380.513 1414.66 360.934C1409.25 340.744 1422.04 319.939 1442.84 314.365C1463.03 308.955 1485.87 319.557 1492.92 345.866C1501.69 378.6 1481.67 421.344 1474.33 423.311C1473.71 423.475 1473.41 423.557 1472.71 423.415Z" fill="#510098"/>
<path d="M1442.06 435.478C1463.18 493.513 1416.06 547.401 1373.8 562.782C1325.29 580.439 1269.95 560.811 1250.88 508.431C1228.57 447.122 1262.81 398.596 1315.19 379.531C1380.96 355.592 1427.98 396.789 1442.06 435.478ZM1360.25 503.338C1381.38 495.648 1384.62 474.92 1378.45 457.956C1376.39 452.301 1364.69 423.866 1334.34 434.915C1309.34 444.014 1309.89 467.744 1314.76 481.137C1322.23 501.672 1343.29 509.513 1360.25 503.338Z" fill="#510098"/>
<path d="M1238.24 485.057L1239.15 495.468C1240.69 513.137 1246.04 526.976 1260.02 537.833C1262.05 539.245 1265.49 542.124 1265.79 545.595C1265.95 547.488 1265.17 549.464 1263.1 551.235C1263.16 551.866 1233.88 576.999 1233.88 576.999C1230.95 579.8 1227.88 581.022 1225.04 581.271C1219.36 581.767 1167.41 569.462 1162.5 513.302L1161.56 502.574C1158.66 469.446 1141.36 456.971 1118.22 457.724L1122.24 572.778C1122.52 575.933 1119.93 579.021 1116.77 579.297L1116.14 579.353L1052.76 581.718C1048.95 581.734 1046.18 579.115 1045.84 575.329L1040.01 410.519C1040.02 407.021 1042.61 403.933 1045.77 403.657L1046.4 403.602L1081.9 402.404C1093.99 398.803 1105.55 396.52 1116.91 395.526C1180.95 389.922 1232.97 424.794 1238.24 485.057Z" fill="#510098"/>
<path d="M986.166 578.521L925.56 559.833L924.965 559.616C921.691 558.425 920.285 554.88 921.179 551.498L966.492 403.852C967.792 400.281 971.148 398.469 974.827 399.471L1035.43 418.159L1036.03 418.376C1039 419.459 1040.71 423.113 1039.62 426.089L994.204 574.032L993.987 574.627C992.904 577.603 989.251 579.307 986.166 578.521ZM1064.21 373.359C1055.44 397.465 1028.64 409.958 1004.54 401.184C980.133 392.302 967.64 365.51 976.414 341.403C985.296 316.999 1012.09 304.506 1036.49 313.388C1060.6 322.163 1073.09 348.954 1064.21 373.359Z" fill="#510098"/>
<path d="M831.007 574.486L768.022 582.055C764.903 582.605 761.601 580.293 760.996 576.862L760.886 576.238L729.915 327.636C729.622 324.15 731.934 320.848 735.053 320.298L735.677 320.188L788.259 313.81C800.791 306.455 814.075 301.54 827.175 299.23C882.069 289.551 938.389 320.785 948.399 377.551C958.408 434.317 924.497 477.28 865.548 487.675C852.448 489.984 839.33 490.368 827.13 488.66L836.769 567.039C837.117 570.836 834.75 573.827 831.007 574.486ZM812.139 367.166L819.708 430.151C827.174 432.372 836.66 433.273 845.393 431.733C847.888 431.293 877.831 426.013 871.781 391.704C867.986 370.183 849.127 358.071 827.294 361.921C822.304 362.801 817.167 364.671 812.139 367.166Z" fill="#510098"/>
<path d="M659.06 546.769H655.259C583.365 546.769 547.26 497.678 547.26 449.538C547.26 404.248 579.248 356.741 651.459 356.741C730.003 356.741 733.487 426.734 733.487 437.186C733.487 451.755 727.47 463.79 708.784 470.124C693.898 475.191 670.461 478.675 653.992 479.309C648.925 479.309 647.341 477.092 646.074 473.291C642.274 462.839 636.256 442.253 636.256 440.986C636.256 437.502 638.79 435.919 642.907 434.969C659.376 431.168 661.593 430.535 661.593 426.101C661.593 423.25 655.576 413.115 642.274 413.115C627.072 413.115 614.403 426.417 614.403 446.054C614.403 468.54 630.872 493.877 670.461 493.877C672.678 493.877 675.212 493.877 677.429 493.561H678.062C682.496 493.561 687.881 496.411 687.881 501.795C687.881 504.962 679.646 526.499 674.895 537.267C672.362 542.335 668.244 546.769 659.06 546.769Z" fill="#510098"/>
<path d="M437.506 637.959L436.894 638.123L371.749 651.972C367.996 652.65 364.811 650.552 363.827 646.881L311.53 401.536C310.71 398.477 312.726 394.986 316.091 394.084L316.703 393.92L373.424 381.673C384.596 374.417 396.259 368.996 408.19 365.8C464.785 350.635 527.104 378.857 542.925 437.9C558.089 494.495 530.118 544.288 466.486 561.338C453.637 564.78 440.603 566.306 428.076 566.056L441.985 630.201C442.581 633.648 440.565 637.139 437.506 637.959ZM400.974 439.212L414.823 504.357C422.373 505.613 431.512 505.46 439.772 503.246C473.424 494.229 464.653 461.496 464.079 459.354C458.341 437.94 437.193 427.54 414.554 433.606C410.272 434.754 405.541 436.677 400.974 439.212Z" fill="#510098"/>
<mask id="mask0_1_2" style="mask-type:alpha" maskUnits="userSpaceOnUse" x="219" y="297" width="1481" height="644">
<path d="M1668.63 760.391C1715.94 800.089 1702.08 870.317 1673.17 904.768C1639.99 944.315 1582.25 954.987 1539.55 919.157C1489.57 877.219 1494.96 818.073 1530.79 775.373C1575.78 721.755 1637.09 733.925 1668.63 760.391ZM1631.72 860.062C1646.17 842.836 1638.62 823.265 1624.79 811.661C1620.18 807.793 1595.83 789.016 1575.06 813.763C1557.96 834.143 1570.3 854.42 1581.22 863.581C1597.96 877.628 1620.11 873.891 1631.72 860.062Z" fill="#510098"/>
<path d="M1493.98 920.313L1432.15 934.431L1431.53 934.541C1428.1 935.146 1425.11 932.779 1424.19 929.403L1389.61 778.882C1388.95 775.139 1390.95 771.892 1394.64 770.92L1456.47 756.802L1457.09 756.692C1460.21 756.142 1463.51 758.454 1464.06 761.573L1498.7 912.406L1498.81 913.03C1499.36 916.149 1497.05 919.451 1493.98 920.313ZM1458.99 703.615C1463.44 728.879 1446.49 753.094 1421.23 757.549C1395.65 762.059 1371.43 745.103 1366.98 719.839C1362.47 694.263 1379.43 670.048 1405 665.538C1430.27 661.083 1454.48 678.039 1458.99 703.615Z" fill="#510098"/>
<path d="M1356.25 935.297H1292.59C1289.11 935.297 1286.26 932.447 1286.26 928.963V670.208C1286.26 666.407 1289.11 663.557 1292.59 663.557H1356.25C1359.74 663.557 1362.59 666.407 1362.59 670.208V928.963C1362.59 932.447 1359.74 935.297 1356.25 935.297Z" fill="#510098"/>
<path d="M1286.31 837.804C1286.31 899.563 1223.6 934.085 1178.63 934.085C1127 934.085 1081.71 896.713 1081.71 840.971C1081.71 775.728 1130.49 741.84 1186.23 741.84C1256.22 741.84 1286.31 796.631 1286.31 837.804ZM1186.23 873.593C1208.72 873.593 1218.85 855.223 1218.85 837.171C1218.85 831.153 1217.58 800.432 1185.28 800.432C1158.67 800.432 1151.07 822.918 1151.07 837.171C1151.07 859.024 1168.18 873.593 1186.23 873.593Z" fill="#510098"/>
<path d="M1019.14 904.599L1018.6 906.087C1016.21 912.635 1011.72 912.011 1007.85 910.603C1007.85 910.603 957.854 896.112 951.009 893.62L950.414 893.404C945.95 891.779 944.273 887.124 945.492 882.849C955.026 852.952 966.402 814.289 978.399 778.548L957.404 769.558C954.239 768.069 952.644 764.118 953.835 760.844L975.388 712.74C976.877 709.575 980.531 707.871 984.102 709.171L1001.04 716.347L1005.94 705.66C1031.63 652.66 1079.85 647.966 1117.65 661.723C1128.96 665.839 1139.32 671.632 1147.76 678.075C1151.31 680.376 1150.57 685.165 1149.49 688.141L1149.06 689.332L1131.35 721.31C1129.02 725.855 1123.18 727.098 1119.31 725.69L1118.42 725.365C1103.24 719.84 1080.27 717.209 1069.98 745.482L1094.73 756.178C1098 757.369 1099.6 761.32 1098.3 764.892L1076.75 812.995C1075.37 815.863 1072.01 817.675 1068.74 816.484L1068.14 816.267L1047.63 807.792C1037.23 840.069 1026.72 876.352 1019.14 904.599Z" fill="#510098"/>
<path d="M924.545 876.047L908.076 915.953C905.542 921.971 902.692 925.138 897.941 925.138C896.991 925.138 896.041 925.138 895.091 924.821C844.1 914.686 826.364 886.815 824.78 806.687L801.027 805.42C797.543 805.103 794.692 801.936 794.692 798.452L798.493 745.878C798.81 742.394 801.66 739.544 805.461 739.544L825.73 740.81C826.364 728.775 826.997 715.79 827.947 702.171C828.264 698.371 828.897 692.353 837.132 692.353H838.399L898.258 695.204C903.642 695.52 906.176 698.688 906.176 704.072C905.542 717.374 904.592 731.309 903.642 744.611L925.495 745.878C928.979 745.878 931.829 749.045 931.829 752.846L928.029 805.42C927.712 808.587 925.178 811.438 921.694 811.438H921.061L900.158 810.487C900.158 839.308 903.958 861.162 917.894 867.179C921.378 868.763 925.178 870.029 925.178 873.513C925.178 874.147 924.862 875.097 924.545 876.047Z" fill="#510098"/>
<path d="M780.012 890.277L720.035 909.955C716.364 910.938 712.649 909.311 711.666 905.64L660.475 748.856C659.491 745.185 661.425 741.388 664.79 740.486L699.785 729.142C714.911 719.515 730.163 712.805 745.459 708.706C755.861 705.919 766.284 704.438 776.341 704.038C781.258 704.032 783.749 705.988 784.733 709.659C785.061 710.882 785.083 712.188 785.187 713.8L787.873 759.312C788.103 763.841 785.618 766.802 781.946 767.785C781.029 768.031 779.723 768.053 778.417 768.075C773.113 767.857 767.666 768.333 762.466 769.727C758.183 770.874 754.064 772.634 749.497 775.169L784.327 881.908L784.491 882.519C785.393 885.885 783.377 889.376 780.012 890.277Z" fill="#510098"/>
<path d="M672.679 811.411C672.679 873.17 609.969 907.692 564.996 907.692C513.372 907.692 468.082 870.32 468.082 814.578C468.082 749.335 516.856 715.447 572.597 715.447C642.591 715.447 672.679 770.238 672.679 811.411ZM572.597 847.2C595.084 847.2 605.219 828.83 605.219 810.778C605.219 804.76 603.952 774.039 571.647 774.039C545.043 774.039 537.442 796.526 537.442 810.778C537.442 832.631 554.544 847.2 572.597 847.2Z" fill="#510098"/>
<path d="M289.712 928.588L289.088 928.478L224.193 913.498C220.506 912.526 218.505 909.279 219.165 905.536L275.456 661.077C276.006 657.958 279.308 655.646 282.739 656.251L283.363 656.361L339.946 669.232C353.137 667.377 365.998 667.394 378.162 669.539C435.864 679.713 480.417 731.628 469.802 791.825C459.628 849.527 413.234 882.833 348.358 871.393C335.258 869.083 322.8 864.957 311.553 859.436L297.05 923.45C296.133 926.826 292.831 929.138 289.712 928.588ZM340.597 733.024L325.616 797.918C331.928 802.247 340.277 805.97 348.698 807.455C383.007 813.505 388.892 780.131 389.277 777.948C393.126 756.115 378.355 737.752 355.274 733.682C350.907 732.912 345.807 732.656 340.597 733.024Z" fill="#510098"/>
<path d="M1472.89 569.26L1469.61 568.068C1463.07 565.685 1460.52 563.412 1460.58 557.702L1460.05 518.413C1460.08 517.412 1460.11 516.411 1460.32 515.815C1461.95 511.351 1468.12 512.922 1471.69 514.222C1489.35 520.316 1500.72 515.015 1503.32 507.873C1504.73 504.004 1502.59 497.834 1500.38 490.96L1495.59 479.107C1487.91 459.46 1487.21 444.713 1491.33 433.404C1503.57 399.773 1558.58 399.573 1597.57 413.763C1609.17 417.988 1611.72 420.262 1611.85 426.377L1612.68 465.775C1612.84 467.182 1612.51 468.075 1612.19 468.967C1611 472.241 1607.29 472.24 1603.42 470.832L1602.23 470.399C1584.37 463.899 1575.36 467.36 1573.2 473.312C1571.35 478.372 1573.76 485.651 1580.52 502.267C1588.79 522.131 1589.87 537.69 1585.76 548.999C1572.97 584.117 1512.77 583.775 1472.89 569.26Z" fill="#510098"/>
<path d="M1472.71 423.415L1457.25 421.985C1455.25 421.865 1453.92 420.582 1453.43 418.746C1453.18 417.828 1452.94 416.911 1453.3 415.829C1455.54 407.033 1458.83 397.298 1461.12 387.503C1440.46 392.383 1419.9 380.513 1414.66 360.934C1409.25 340.744 1422.04 319.939 1442.84 314.365C1463.03 308.955 1485.87 319.557 1492.92 345.866C1501.69 378.6 1481.67 421.344 1474.33 423.311C1473.71 423.475 1473.41 423.557 1472.71 423.415Z" fill="#510098"/>
<path d="M1442.06 435.478C1463.18 493.513 1416.06 547.401 1373.8 562.782C1325.29 580.439 1269.95 560.811 1250.88 508.431C1228.57 447.122 1262.81 398.596 1315.19 379.531C1380.96 355.592 1427.98 396.789 1442.06 435.478ZM1360.25 503.338C1381.38 495.648 1384.62 474.92 1378.45 457.956C1376.39 452.301 1364.69 423.866 1334.34 434.915C1309.34 444.014 1309.89 467.744 1314.76 481.137C1322.23 501.672 1343.29 509.513 1360.25 503.338Z" fill="#510098"/>
<path d="M1238.24 485.057L1239.15 495.468C1240.69 513.137 1246.04 526.976 1260.02 537.833C1262.05 539.245 1265.49 542.124 1265.79 545.595C1265.95 547.488 1265.17 549.464 1263.1 551.235C1263.16 551.866 1233.88 576.999 1233.88 576.999C1230.95 579.8 1227.88 581.022 1225.04 581.271C1219.36 581.767 1167.41 569.462 1162.5 513.302L1161.56 502.574C1158.66 469.446 1141.36 456.971 1118.22 457.724L1122.24 572.778C1122.52 575.933 1119.93 579.021 1116.77 579.297L1116.14 579.353L1052.76 581.718C1048.95 581.734 1046.18 579.115 1045.84 575.329L1040.01 410.519C1040.02 407.021 1042.61 403.933 1045.77 403.657L1046.4 403.602L1081.9 402.404C1093.99 398.803 1105.55 396.52 1116.91 395.526C1180.95 389.922 1232.97 424.794 1238.24 485.057Z" fill="#510098"/>
<path d="M986.166 578.521L925.56 559.833L924.965 559.616C921.691 558.425 920.285 554.88 921.179 551.498L966.492 403.852C967.792 400.281 971.148 398.469 974.827 399.471L1035.43 418.159L1036.03 418.376C1039 419.459 1040.71 423.113 1039.62 426.089L994.204 574.032L993.987 574.627C992.904 577.603 989.251 579.307 986.166 578.521ZM1064.21 373.359C1055.44 397.465 1028.64 409.958 1004.54 401.184C980.133 392.302 967.64 365.51 976.414 341.403C985.296 316.999 1012.09 304.506 1036.49 313.388C1060.6 322.163 1073.09 348.954 1064.21 373.359Z" fill="#510098"/>
<path d="M831.007 574.486L768.022 582.055C764.903 582.605 761.601 580.293 760.996 576.862L760.886 576.238L729.915 327.636C729.622 324.15 731.934 320.848 735.053 320.298L735.677 320.188L788.259 313.81C800.791 306.455 814.075 301.54 827.175 299.23C882.069 289.551 938.389 320.785 948.399 377.551C958.408 434.317 924.497 477.28 865.548 487.675C852.448 489.984 839.33 490.368 827.13 488.66L836.769 567.039C837.117 570.836 834.75 573.827 831.007 574.486ZM812.139 367.166L819.708 430.151C827.174 432.372 836.66 433.273 845.393 431.733C847.888 431.293 877.831 426.013 871.781 391.704C867.986 370.183 849.127 358.071 827.294 361.921C822.304 362.801 817.167 364.671 812.139 367.166Z" fill="#510098"/>
<path d="M659.06 546.769H655.259C583.365 546.769 547.26 497.678 547.26 449.538C547.26 404.248 579.248 356.741 651.459 356.741C730.003 356.741 733.487 426.734 733.487 437.186C733.487 451.755 727.47 463.79 708.784 470.124C693.898 475.191 670.461 478.675 653.992 479.309C648.925 479.309 647.341 477.092 646.074 473.291C642.274 462.839 636.256 442.253 636.256 440.986C636.256 437.502 638.79 435.919 642.907 434.969C659.376 431.168 661.593 430.535 661.593 426.101C661.593 423.25 655.576 413.115 642.274 413.115C627.072 413.115 614.403 426.417 614.403 446.054C614.403 468.54 630.872 493.877 670.461 493.877C672.678 493.877 675.212 493.877 677.429 493.561H678.062C682.496 493.561 687.881 496.411 687.881 501.795C687.881 504.962 679.646 526.499 674.895 537.267C672.362 542.335 668.244 546.769 659.06 546.769Z" fill="#510098"/>
<path d="M437.506 637.959L436.894 638.123L371.749 651.972C367.996 652.65 364.811 650.552 363.827 646.881L311.53 401.536C310.71 398.477 312.726 394.986 316.091 394.084L316.703 393.92L373.424 381.673C384.596 374.417 396.259 368.996 408.19 365.8C464.785 350.635 527.104 378.857 542.925 437.9C558.089 494.495 530.118 544.288 466.486 561.338C453.637 564.78 440.603 566.306 428.076 566.056L441.985 630.201C442.581 633.648 440.565 637.139 437.506 637.959ZM400.974 439.212L414.823 504.357C422.373 505.613 431.512 505.46 439.772 503.246C473.424 494.229 464.653 461.496 464.079 459.354C458.341 437.94 437.193 427.54 414.554 433.606C410.272 434.754 405.541 436.677 400.974 439.212Z" fill="#510098"/>
</mask>
<g mask="url(#mask0_1_2)">
<path d="M237.777 929.693L-100.921 1186.85C-138.336 1215.26 -130.971 1273.44 -87.5155 1291.29C169.477 1396.83 566.086 1552 649.532 1554.31C741.052 1556.86 1470.46 1507.57 1863.05 1479.86C1889.11 1478.02 1910.95 1459.78 1917.58 1434.51L2006.4 1095.89C2010.05 1081.94 2008.65 1067.16 2002.45 1054.15L1821.58 675.041C1811.9 654.764 1791.86 641.446 1769.42 640.377L1387.12 622.172C1367.32 621.229 1348.29 629.968 1336.1 645.604L1118.96 924.208C1103.47 944.078 1077.36 952.383 1053.24 945.113L784.927 864.233C762.635 857.514 738.463 864.069 722.621 881.13L643.582 966.249C628.873 982.09 606.877 988.963 585.765 984.314L287.781 918.703C270.308 914.856 252.027 918.873 237.777 929.693Z" fill="#D93636"/>
<path d="M244.375 857.113L-94.323 1114.27C-131.738 1142.68 -124.373 1200.86 -80.9173 1218.71C176.075 1324.25 572.685 1479.42 656.13 1481.73C747.65 1484.28 1477.06 1434.99 1869.64 1407.28C1895.71 1405.44 1917.55 1387.2 1924.18 1361.93L2012.99 1023.31C2016.65 1009.36 2015.25 994.576 2009.05 981.565L1828.17 602.461C1818.5 582.184 1798.46 568.866 1776.02 567.797L1393.72 549.592C1373.91 548.649 1354.89 557.388 1342.7 573.024L1125.56 851.628C1110.07 871.498 1083.96 879.803 1059.84 872.532L791.525 791.653C769.233 784.934 745.061 791.489 729.219 808.55L650.181 893.668C635.471 909.51 613.475 916.382 592.363 911.734L294.379 846.123C276.906 842.276 258.625 846.293 244.375 857.113Z" fill="#D93636" fill-opacity="0.75"/>
<path d="M237.777 801.028L-100.921 1058.19C-138.336 1086.6 -130.971 1144.78 -87.5155 1162.62C169.477 1268.16 566.086 1423.33 649.532 1425.65C741.052 1428.19 1470.46 1378.9 1863.05 1351.19C1889.11 1349.36 1910.95 1331.12 1917.58 1305.85L2006.4 967.224C2010.05 953.28 2008.65 938.491 2002.45 925.48L1821.58 546.376C1811.9 526.099 1791.86 512.781 1769.42 511.712L1387.12 493.507C1367.32 492.564 1348.29 501.303 1336.1 516.939L1118.96 795.543C1103.47 815.413 1077.36 823.719 1053.24 816.448L784.927 735.569C762.635 728.849 738.463 735.404 722.621 752.465L643.582 837.584C628.873 853.425 606.877 860.298 585.765 855.649L287.781 790.038C270.308 786.191 252.027 790.209 237.777 801.028Z" fill="#D93636" fill-opacity="0.5"/>
<path d="M241.076 764.738L-97.6221 1021.9C-135.037 1050.31 -127.672 1108.49 -84.2164 1126.33C172.776 1231.87 569.385 1387.04 652.831 1389.36C744.351 1391.9 1473.76 1342.61 1866.34 1314.9C1892.41 1313.07 1914.25 1294.83 1920.88 1269.56L2009.69 930.934C2013.35 916.99 2011.95 902.201 2005.75 889.19L1824.88 510.086C1815.2 489.809 1795.16 476.491 1772.72 475.422L1390.42 457.217C1370.62 456.274 1351.59 465.013 1339.4 480.649L1122.26 759.253C1106.77 779.123 1080.66 787.429 1056.54 780.158L788.226 699.279C765.934 692.559 741.762 699.114 725.92 716.175L646.882 801.294C632.172 817.135 610.176 824.008 589.064 819.359L291.08 753.748C273.607 749.901 255.326 753.919 241.076 764.738Z" fill="#D93636" fill-opacity="0.25"/>
<path d="M1331.81 381.02L1670.51 123.86C1707.93 95.4523 1700.56 37.2704 1657.11 19.4244C1400.11 -86.1153 1003.5 -241.283 920.058 -243.601C828.539 -246.143 99.1313 -196.854 -293.454 -169.147C-319.519 -167.308 -341.357 -149.072 -347.986 -123.798L-436.805 214.824C-440.463 228.768 -439.063 243.556 -432.856 256.567L-251.986 635.671C-242.312 655.949 -222.274 669.267 -199.832 670.335L182.472 688.54C202.274 689.483 221.299 680.745 233.486 665.109L450.633 386.505C466.121 366.634 492.23 358.329 516.351 365.6L784.664 446.479C806.955 453.198 831.128 446.643 846.97 429.582L926.008 344.464C940.718 328.622 962.714 321.75 983.826 326.398L1281.81 392.009C1299.28 395.857 1317.56 391.839 1331.81 381.02Z" fill="#D93636" fill-opacity="0.5"/>
<path d="M1216.56 460.925L1125.06 247.785C1108.53 209.269 1130.96 165.214 1171.85 156.023C1599.92 59.8116 2327.1 -102.192 2337.02 -98.4721C2350.22 -93.5235 2567.96 661.97 2563.01 698.26C2559.44 724.447 2493.86 1060.4 2451.99 1273.68C2444.95 1309.56 2410.43 1333.1 2374.43 1326.64L1212.92 1118.13C1203.63 1116.46 1194.8 1112.85 1187.01 1107.53L940.499 939.4C906.986 916.542 901.313 869.38 928.451 839.228L1204.8 532.176C1222.28 512.752 1226.87 484.938 1216.56 460.925Z" fill="#228991" fill-opacity="0.2"/>
<path d="M1114.29 368.55L1022.79 155.41C1006.26 116.895 1028.68 72.8396 1069.58 63.6484C1497.65 -32.5632 2224.83 -194.567 2234.75 -190.847C2247.95 -185.898 2465.69 569.595 2460.74 605.885C2457.17 632.073 2391.59 968.021 2349.72 1181.3C2342.67 1217.19 2308.16 1240.73 2272.16 1234.27L1110.65 1025.75C1101.36 1024.08 1092.53 1020.47 1084.74 1015.16L838.227 847.025C804.714 824.167 799.041 777.006 826.179 746.853L1102.53 439.801C1120.01 420.378 1124.6 392.563 1114.29 368.55Z" fill="#228991" fill-opacity="0.1"/>
</g>
<g clip-path="url(#clip0_1_2)">
<path d="M1278.34 370.29C1260.12 385.416 1253.03 368.713 1243.79 370.17M1312.88 370.41L1306.02 354.25C1305.34 352.192 1304.22 350.305 1302.74 348.713C1301.27 347.121 1299.47 345.862 1297.47 345.018C1309.96 337.991 1321.64 327.172 1311.96 304.373C1309.48 298.544 1304.86 293.89 1299.05 291.373C1298.79 285.465 1296.26 279.884 1291.99 275.791C1291.99 275.791 1286.44 276.421 1278.29 288.901C1267.61 290.37 1257.53 294.652 1249.06 301.308C1234.41 298.506 1230.11 302.059 1230.11 302.059C1230.09 307.973 1232.34 313.668 1236.41 317.96C1234.17 323.933 1234.32 330.543 1236.85 336.403C1246.46 359.035 1262.34 358.155 1276.15 354.218C1275.38 356.221 1275.04 358.363 1275.15 360.506C1275.26 362.65 1275.82 364.745 1276.8 366.657L1283.65 382.817" stroke="#510098" stroke-width="2.5" stroke-linecap="round" stroke-linejoin="round"/>
</g>
<g clip-path="url(#clip1_1_2)">
<path d="M699.086 276.361L691.055 274.21C691.145 264.336 688.464 254.634 683.316 246.208C678.168 237.782 670.76 230.969 661.933 226.543C653.106 222.116 643.215 220.255 633.383 221.17C623.551 222.084 614.173 225.738 606.314 231.716C598.455 237.695 592.43 245.757 588.925 254.989C585.419 264.22 584.573 274.249 586.483 283.937C588.393 293.625 592.982 302.583 599.728 309.793C606.475 317.003 615.108 322.177 624.648 324.725L682.008 340.095C690.46 342.36 699.465 341.174 707.043 336.799C714.62 332.424 720.149 325.218 722.414 316.767C724.679 308.315 723.493 299.31 719.118 291.733C714.743 284.155 707.537 278.626 699.086 276.361Z" stroke="#981162" stroke-width="4" stroke-linecap="round" stroke-linejoin="round"/>
</g>
<g clip-path="url(#clip2_1_2)">
<path d="M483.955 572.241L486.318 585.643M510.759 567.515L513.122 580.917M498.921 657.121L501.284 670.523M525.725 652.394L528.088 665.796M539.397 599.315L552.799 596.952M543.336 621.652L556.738 619.289M454.517 614.282L467.919 611.918M458.456 636.618L471.858 634.255M472.916 588.006L526.524 578.554C531.458 577.684 536.164 580.978 537.034 585.913L546.486 639.521C547.357 644.456 544.062 649.161 539.127 650.031L485.519 659.484C480.585 660.354 475.879 657.059 475.009 652.125L465.556 598.516C464.686 593.582 467.981 588.876 472.916 588.006ZM490.256 607.98L517.06 603.254L521.787 630.058L494.983 634.784L490.256 607.98Z" stroke="#510098" stroke-width="4" stroke-linecap="round" stroke-linejoin="round"/>
</g>
<path d="M976.143 221.807C989.185 210.945 1005.62 204.996 1022.59 204.996C1039.57 204.996 1056 210.945 1069.05 221.807M952.522 198.384C971.804 181.387 996.626 172.008 1022.33 172.008C1048.04 172.008 1072.86 181.387 1092.14 198.384M999.435 245.297C1006.13 240.538 1014.15 237.981 1022.36 237.981C1030.58 237.981 1038.59 240.538 1045.29 245.297M1022.33 270.964H1022.4" stroke="#88063E" stroke-width="4" stroke-linecap="round" stroke-linejoin="round"/>
<g clip-path="url(#clip3_1_2)">
<path d="M745.858 640.317C744.583 641.07 743.654 642.293 743.271 643.723C742.888 645.153 743.081 646.676 743.808 647.966L750.207 659.049C750.96 660.324 752.183 661.252 753.613 661.636C755.043 662.019 756.566 661.826 757.856 661.099L783.972 646.021C785.092 652.828 784.112 659.814 781.161 666.05C778.21 672.285 773.428 677.473 767.454 680.923C761.48 684.372 754.596 685.919 747.721 685.356C740.845 684.794 734.304 682.15 728.969 677.776L681.102 705.413C678.346 707.004 675.071 707.435 671.997 706.611C668.923 705.788 666.303 703.777 664.712 701.021C663.121 698.265 662.689 694.99 663.513 691.916C664.337 688.843 666.348 686.222 669.103 684.631L716.971 656.995C715.85 650.188 716.831 643.201 719.782 636.965C722.733 630.73 727.514 625.542 733.488 622.093C739.463 618.643 746.346 617.097 753.222 617.659C760.098 618.221 766.639 620.865 771.973 625.239L745.858 640.317Z" stroke="#510098" stroke-width="4" stroke-linecap="round" stroke-linejoin="round"/>
</g>
<path d="M994.288 633.865C994.288 656.64 975.825 675.103 953.049 675.103M994.288 633.865C994.288 611.089 975.825 592.626 953.049 592.626M994.288 633.865H911.811M953.049 675.103C930.274 675.103 911.811 656.64 911.811 633.865M953.049 675.103C963.364 663.811 969.226 649.156 969.545 633.865C969.226 618.574 963.364 603.919 953.049 592.626M953.049 675.103C942.734 663.811 936.872 649.156 936.554 633.865C936.872 618.574 942.734 603.919 953.049 592.626M911.811 633.865C911.811 611.089 930.274 592.626 953.049 592.626" stroke="#510098" stroke-width="4" stroke-linecap="round" stroke-linejoin="round"/>
<path d="M1373.13 468.91C1373.13 484.094 1360.83 496.402 1345.64 496.402M1373.13 468.91C1373.13 453.726 1360.83 441.417 1345.64 441.417M1373.13 468.91H1362.14M1345.64 496.402C1330.46 496.402 1318.15 484.094 1318.15 468.91M1345.64 496.402V485.405M1318.15 468.91C1318.15 453.726 1330.46 441.417 1345.64 441.417M1318.15 468.91H1329.15M1345.64 441.417V452.414" stroke="#510098" stroke-width="2" stroke-linecap="round" stroke-linejoin="round"/>
<path d="M589.39 795.455C592.503 798.569 594.624 802.537 595.482 806.857C596.341 811.176 595.899 815.653 594.214 819.722C592.528 823.791 589.674 827.268 586.012 829.715C582.35 832.162 578.045 833.467 573.641 833.467C569.237 833.467 564.931 832.162 561.269 829.715C557.608 827.268 554.753 823.791 553.068 819.722C551.382 815.653 550.94 811.176 551.799 806.857C552.658 802.537 554.778 798.569 557.892 795.455M573.653 783.974V808.717" stroke="#510098" stroke-width="2" stroke-linecap="round" stroke-linejoin="round"/>
<defs>
<clipPath id="clip0_1_2">
<rect width="108.87" height="108.87" fill="white" transform="translate(1207.08 306.905) rotate(-23)"/>
</clipPath>
<clipPath id="clip1_1_2">
<rect width="158.357" height="158.357" fill="white" transform="translate(601.443 181.888) rotate(15)"/>
</clipPath>
<clipPath id="clip2_1_2">
<rect width="108.87" height="108.87" fill="white" transform="translate(442.961 574.863) rotate(-10)"/>
</clipPath>
<clipPath id="clip3_1_2">
<rect width="135.746" height="135.746" fill="white" transform="translate(674.769 584.378) rotate(15)"/>
</clipPath>
</defs>
</svg>
