<svg xmlns="http://www.w3.org/2000/svg" xmlns:xlink="http://www.w3.org/1999/xlink" width="2880" zoomAndPan="magnify" viewBox="0 0 2160 1535.999932" height="2048" preserveAspectRatio="xMidYMid meet" version="1.0"><defs><filter x="0%" y="0%" width="100%" height="100%" id="ed2df0a8dc"><feColorMatrix values="0 0 0 0 1 0 0 0 0 1 0 0 0 0 1 0 0 0 1 0" color-interpolation-filters="sRGB"/></filter><mask id="c3e6a787b3"><g filter="url(#ed2df0a8dc)"><rect x="-216" width="2592" fill="#000000" y="-153.599993" height="1843.199919" fill-opacity="0.15"/></g></mask><clipPath id="7a24bad7ae"><path d="M 80 0 L 793 0 L 793 455 L 80 455 Z M 80 0 " clip-rule="nonzero"/></clipPath><clipPath id="94c2497e53"><rect x="0" width="888" y="0" height="670"/></clipPath><mask id="703dcaf89f"><g filter="url(#ed2df0a8dc)"><rect x="-216" width="2592" fill="#000000" y="-153.599993" height="1843.199919" fill-opacity="0.15"/></g></mask><clipPath id="584268aac1"><path d="M 0.734375 1.101562 L 1188.734375 1.101562 L 1188.734375 1189.101562 L 0.734375 1189.101562 Z M 0.734375 1.101562 " clip-rule="nonzero"/></clipPath><clipPath id="e1c4f81786"><rect x="0" width="1189" y="0" height="1189"/></clipPath><clipPath id="2ed3d4c941"><rect x="0" width="1190" y="0" height="1190"/></clipPath><mask id="017655a9fc"><g filter="url(#ed2df0a8dc)"><rect x="-216" width="2592" fill="#000000" y="-153.599993" height="1843.199919" fill-opacity="0.15"/></g></mask><clipPath id="3034496857"><path d="M 0 0.800781 L 1464.019531 0.800781 L 1464.019531 1022 L 0 1022 Z M 0 0.800781 " clip-rule="nonzero"/></clipPath><clipPath id="31a499755f"><path d="M 256 149 L 1276 149 L 1276 1022 L 256 1022 Z M 256 149 " clip-rule="nonzero"/></clipPath><clipPath id="6952d6efee"><rect x="0" width="1465" y="0" height="1022"/></clipPath><clipPath id="eb488d3fc4"><rect x="0" width="1465" y="0" height="1022"/></clipPath><mask id="e8e2d459ba"><g filter="url(#ed2df0a8dc)"><rect x="-216" width="2592" fill="#000000" y="-153.599993" height="1843.199919" fill-opacity="0.15"/></g></mask><clipPath id="d6b892a4c5"><path d="M 421 495 L 976 495 L 976 1220 L 421 1220 Z M 421 495 " clip-rule="nonzero"/></clipPath><clipPath id="ba8ee413ed"><path d="M 0.871094 584.730469 L 1114.9375 0.960938 L 1698.707031 1115.027344 L 584.640625 1698.796875 Z M 0.871094 584.730469 " clip-rule="nonzero"/></clipPath><clipPath id="f4e9fef0a9"><path d="M 0.871094 584.730469 L 1114.9375 0.960938 L 1698.707031 1115.027344 L 584.640625 1698.796875 Z M 0.871094 584.730469 " clip-rule="nonzero"/></clipPath><clipPath id="b7a502c40a"><path d="M 0.871094 584.730469 L 1114.9375 0.960938 L 1698.707031 1115.027344 L 584.640625 1698.796875 Z M 0.871094 584.730469 " clip-rule="nonzero"/></clipPath><clipPath id="ec3056fbab"><rect x="0" width="976" y="0" height="1220"/></clipPath><mask id="d15242d689"><g filter="url(#ed2df0a8dc)"><rect x="-216" width="2592" fill="#000000" y="-153.599993" height="1843.199919" fill-opacity="0.15"/></g></mask><clipPath id="6f1639f3b4"><path d="M 0 0 L 953 0 L 953 1230.71875 L 0 1230.71875 Z M 0 0 " clip-rule="nonzero"/></clipPath><clipPath id="72513b1720"><path d="M 875.640625 -37.996094 L 952.6875 1153.515625 L -238.824219 1230.558594 L -315.871094 39.046875 Z M 875.640625 -37.996094 " clip-rule="nonzero"/></clipPath><clipPath id="5f9d65a08b"><path d="M 0 259 L 710 259 L 710 992 L 0 992 Z M 0 259 " clip-rule="nonzero"/></clipPath><clipPath id="0a751df37c"><path d="M 875.640625 -37.996094 L 952.6875 1153.515625 L -238.824219 1230.558594 L -315.871094 39.046875 Z M 875.640625 -37.996094 " clip-rule="nonzero"/></clipPath><clipPath id="0113f3d260"><path d="M -315.660156 39.035156 L -238.613281 1230.546875 L 952.898438 1153.5 L 875.851562 -38.011719 Z M -315.660156 39.035156 " clip-rule="nonzero"/></clipPath><clipPath id="c10f3fa229"><path d="M -315.660156 39.035156 L -238.613281 1230.546875 L 952.898438 1153.5 L 875.851562 -38.011719 Z M -315.660156 39.035156 " clip-rule="nonzero"/></clipPath><clipPath id="407e3d30fb"><rect x="0" width="953" y="0" height="1231"/></clipPath><clipPath id="2e8c84350d"><rect x="0" width="954" y="0" height="1231"/></clipPath><mask id="931ec68bd4"><g filter="url(#ed2df0a8dc)"><rect x="-216" width="2592" fill="#000000" y="-153.599993" height="1843.199919" fill-opacity="0.15"/></g></mask><clipPath id="3d6092cdc7"><path d="M 0.976562 1.429688 L 794 1.429688 L 794 1140.679688 L 0.976562 1140.679688 Z M 0.976562 1.429688 " clip-rule="nonzero"/></clipPath><clipPath id="be88709168"><path d="M 257 81 L 794 81 L 794 980 L 257 980 Z M 257 81 " clip-rule="nonzero"/></clipPath><clipPath id="7c9f7dd4b6"><rect x="0" width="794" y="0" height="1140"/></clipPath><clipPath id="5b9f870ec6"><rect x="0" width="794" y="0" height="1141"/></clipPath></defs><g mask="url(#c3e6a787b3)"><g transform="matrix(1, 0, 0, 1, 636, -0.000000000000122336)"><g clip-path="url(#94c2497e53)"><g clip-path="url(#7a24bad7ae)"><path fill="#24a148" d="M 580.207031 42.464844 C 643.203125 84.164062 731.929688 93.925781 769.636719 137.402344 C 807.34375 180.875 794.035156 258.066406 765.199219 325.054688 C 735.921875 392.042969 691.558594 448.824219 635.21875 451.488281 C 579.320312 454.148438 511.445312 403.574219 443.128906 404.90625 C 374.367188 406.679688 304.273438 460.359375 259.46875 454.148438 C 214.660156 447.496094 194.699219 380.507812 160.097656 309.972656 C 125.492188 238.992188 75.808594 164.90625 80.6875 95.257812 C 85.566406 26.050781 145.457031 -38.273438 215.105469 -77.757812 C 284.753906 -117.683594 364.164062 -132.324219 422.722656 -102.601562 C 480.835938 -73.320312 517.65625 0.765625 580.207031 42.464844 Z M 580.207031 42.464844 " fill-opacity="1" fill-rule="nonzero"/></g></g></g></g><g mask="url(#703dcaf89f)"><g transform="matrix(1, 0, 0, 1, 669, 225)"><g clip-path="url(#2ed3d4c941)"><g clip-path="url(#584268aac1)"><g transform="matrix(1, 0, 0, 1, 0, 1)"><g clip-path="url(#e1c4f81786)"><path fill="#0f62fe" d="M 789.566406 749.195312 C 818.078125 713.554688 793.128906 633.957031 765.804688 571.585938 C 737.886719 509.8125 708.1875 464.667969 650.570312 411.207031 C 592.953125 357.152344 506.820312 294.785156 464.648438 317.949219 C 423.066406 340.523438 424.851562 448.035156 395.742188 554.957031 C 366.042969 661.875 305.457031 767.609375 333.375 803.246094 C 361.292969 838.886719 477.714844 803.839844 577.507812 790.179688 C 677.894531 777.113281 760.460938 784.832031 789.566406 749.195312 Z M 789.566406 749.195312 " fill-opacity="1" fill-rule="nonzero"/></g></g></g></g></g></g><g mask="url(#017655a9fc)"><g transform="matrix(1, 0, 0, 1, 0, 514)"><g clip-path="url(#eb488d3fc4)"><g clip-path="url(#3034496857)"><g transform="matrix(1, 0, 0, 1, 0, -0.000000000000113687)"><g clip-path="url(#6952d6efee)"><g clip-path="url(#31a499755f)"><path fill="#24a148" d="M 495.886719 1126.667969 C 435.136719 1051.667969 392.386719 984.917969 383.386719 916.667969 C 374.386719 848.417969 400.636719 778.667969 367.636719 669.917969 C 335.386719 561.167969 243.886719 413.417969 258.136719 304.667969 C 272.386719 195.917969 391.636719 126.917969 500.386719 156.167969 C 609.136719 185.417969 707.386719 312.167969 818.386719 360.917969 C 928.636719 410.417969 1052.386719 380.417969 1106.386719 422.417969 C 1161.136719 464.417969 1146.886719 577.667969 1179.136719 693.917969 C 1210.636719 810.167969 1290.136719 930.167969 1273.636719 1023.167969 C 1257.136719 1116.167969 1146.136719 1182.917969 1036.636719 1236.167969 C 927.886719 1289.417969 820.636719 1329.167969 728.386719 1307.417969 C 635.386719 1285.667969 556.636719 1201.667969 495.886719 1126.667969 Z M 495.886719 1126.667969 " fill-opacity="1" fill-rule="nonzero"/></g></g></g></g></g></g></g><g mask="url(#e8e2d459ba)"><g transform="matrix(1, 0, 0, 1, 1184, 316)"><g clip-path="url(#ec3056fbab)"><g clip-path="url(#d6b892a4c5)"><g clip-path="url(#ba8ee413ed)"><g clip-path="url(#f4e9fef0a9)"><g clip-path="url(#b7a502c40a)"><path fill="#0f62fe" d="M 866.625 596.113281 C 933.453125 634.222656 983.511719 648.460938 1022.351562 679.226562 C 1060.902344 709.4375 1088.816406 757.289062 1104.183594 811.003906 C 1118.992188 865.011719 1121.257812 924.882812 1118.429688 1012.984375 C 1116.164062 1100.789062 1109.070312 1215.972656 1050.191406 1285.164062 C 991.308594 1354.359375 879.789062 1377.292969 795.269531 1340.644531 C 710.191406 1304.289062 652.105469 1208.347656 605.539062 1126.253906 C 558.707031 1045.003906 523.679688 978.160156 485.230469 893.941406 C 446.511719 810.570312 404.082031 709.269531 428.445312 629.761719 C 452.257812 550.546875 542.867188 493.128906 629.265625 495.425781 C 715.933594 496.871094 800.085938 558.5625 866.625 596.113281 Z M 866.625 596.113281 " fill-opacity="1" fill-rule="nonzero"/></g></g></g></g></g></g></g><g mask="url(#d15242d689)"><g transform="matrix(1, 0, 0, 1, 0, -0.000000000000122336)"><g clip-path="url(#2e8c84350d)"><g clip-path="url(#6f1639f3b4)"><g clip-path="url(#72513b1720)"><g transform="matrix(1, 0, 0, 1, 0, -0.000000000000122336)"><g clip-path="url(#407e3d30fb)"><g clip-path="url(#5f9d65a08b)"><g clip-path="url(#0a751df37c)"><g clip-path="url(#0113f3d260)"><g clip-path="url(#c10f3fa229)"><path fill="#0f62fe" d="M 29.15625 856.675781 C 64.585938 932.757812 130.761719 1003.257812 196.277344 989.449219 C 261.789062 975.640625 326.636719 877.523438 371.558594 813.597656 C 417.078125 749.632812 442.113281 720.496094 487.136719 685.875 C 532.199219 651.855469 596.6875 612.984375 647.277344 534.933594 C 697.273438 456.921875 733.328125 339.128906 689.542969 291.105469 C 645.757812 243.085938 522.050781 263.648438 422.925781 266.46875 C 323.761719 268.695312 249.730469 252.542969 200.152344 281.472656 C 149.9375 309.847656 124.8125 383.859375 93.035156 447.535156 C 61.257812 511.207031 22.828125 564.542969 6.253906 632.019531 C -10.917969 699.535156 -6.234375 781.191406 29.15625 856.675781 Z M 29.15625 856.675781 " fill-opacity="1" fill-rule="nonzero"/></g></g></g></g></g></g></g></g></g></g></g><g mask="url(#931ec68bd4)"><g transform="matrix(1, 0, 0, 1, 1366, 25)"><g clip-path="url(#5b9f870ec6)"><g clip-path="url(#3d6092cdc7)"><g transform="matrix(1, 0, 0, 1, -0.000000000000227374, 1)"><g clip-path="url(#7c9f7dd4b6)"><g clip-path="url(#be88709168)"><path fill="#24a148" d="M 297.976562 953.632812 C 244.429688 906.925781 247.277344 790.722656 284.304688 709.835938 C 321.898438 628.378906 393.671875 582.238281 417.027344 523.566406 C 440.382812 464.894531 415.316406 393.125 432.976562 307.679688 C 450.632812 221.667969 510.445312 121.980469 593.039062 91.792969 C 675.066406 61.03125 779.308594 100.335938 839.6875 172.109375 C 900.070312 243.882812 916.585938 348.121094 880.703125 425.59375 C 845.382812 502.492188 757.664062 552.617188 722.34375 606.164062 C 686.460938 659.707031 702.410156 716.671875 685.890625 775.339844 C 669.371094 834.011719 620.382812 893.824219 540.636719 935.40625 C 460.886719 976.988281 351.519531 1000.34375 297.976562 953.632812 Z M 297.976562 953.632812 " fill-opacity="1" fill-rule="nonzero"/></g></g></g></g></g></g></g></svg>