<?xml version="1.0" encoding="UTF-8"?>
<svg version="1.1" xmlns="http://www.w3.org/2000/svg" width="500" height="500">
<path fill="currentColor" d="M0 0 C14.51830169 -0.07054883 29.03658023 -0.12321013 43.55501938 -0.15543652 C50.29845715 -0.17080746 57.04178751 -0.19170604 63.78515625 -0.22631836 C70.3080177 -0.25921291 76.83076829 -0.27691574 83.35370636 -0.28463173 C85.82684318 -0.29012172 88.29997479 -0.30084006 90.77306366 -0.31719017 C119.05747907 -0.49653528 147.71219225 1.3996627 169.36889648 21.76464844 C174.94650737 27.2739161 179.54731563 32.90479294 183 40 C183.57814453 41.15628906 183.57814453 41.15628906 184.16796875 42.3359375 C191.5062258 57.86019249 191.61123681 78.53043102 186.3125 94.7578125 C179.41312611 111.80090871 168.50490781 124.33440642 152 132.6875 C127.76071407 142.79836236 98.08836522 141.22231907 73 135 C72.34 134.67 71.68 134.34 71 134 C71.10838544 143.11136573 71.22118099 152.22266382 71.33933926 161.33390808 C71.39409417 165.56633285 71.44742835 169.79876482 71.49731445 174.03125 C71.54567014 178.12916998 71.59802034 182.22702255 71.65294075 186.32485962 C71.67304749 187.87462648 71.69180497 189.42441156 71.70907402 190.97421265 C70.79486065 213.52588039 70.79486065 213.52588039 77.0625 234.3125 C85.53731165 242.06605109 96.05143141 242.10238273 107 243 C107 244.98 107 246.96 107 249 C71.69 249 36.38 249 0 249 C0 247.02 0 245.04 0 243 C1.19496094 242.90203125 2.38992187 242.8040625 3.62109375 242.703125 C18.04553888 241.72645619 18.04553888 241.72645619 29.9375 234.25 C33.68037629 228.35213433 34.31045494 221.90118826 34.61691284 215.03894043 C34.6545285 214.30482547 34.69214416 213.57071052 34.73089969 212.81434965 C35.10071545 205.00259871 35.1409443 197.19581373 35.12939453 189.37695312 C35.13075458 187.79613709 35.13253787 186.21532136 35.13470459 184.63450623 C35.1392072 180.39689523 35.13751934 176.15930897 35.1343255 171.92169762 C35.13176436 167.45207028 35.13414977 162.98244482 35.13571167 158.51281738 C35.13752253 151.01195909 35.13515566 143.51111069 35.13037109 136.01025391 C35.12493058 127.38231185 35.12669401 118.75439345 35.1321975 110.12645197 C35.13675967 102.67112608 35.13736408 95.21580724 35.13475883 87.7604804 C35.13321304 83.32856198 35.13295503 78.89665462 35.13629532 74.46473694 C35.13921949 70.29490637 35.13711638 66.12510579 35.13140106 61.9552784 C35.13009753 60.44015108 35.13042563 58.92502117 35.13266373 57.40989494 C35.14321335 49.53164813 35.00140329 41.68376453 34.56222534 33.81652832 C34.52453698 33.11739807 34.48684862 32.41826781 34.44801819 31.69795179 C33.99102212 24.29412853 33.33300966 17.72178487 27.6875 12.5 C22.1342546 8.04704798 15.45375637 7.53936067 8.625 6.875 C7.79355469 6.78863281 6.96210938 6.70226562 6.10546875 6.61328125 C4.07092853 6.40281157 2.0355403 6.20056686 0 6 C0 4.02 0 2.04 0 0 Z M71 19 C71 52.99 71 86.98 71 122 C98.38221234 127.52721466 98.38221234 127.52721466 124 119 C135.61180479 110.15124515 142.922729 99.31236489 146 85 C147.26719701 65.60036575 145.73255408 47.78683528 133.59765625 31.84375 C125.71103925 23.20997981 114.72719345 16.56343186 102.84619141 15.87524414 C100.22995777 15.79227526 97.61747652 15.76497841 95 15.75 C94.12988281 15.729375 93.25976562 15.70875 92.36328125 15.6875 C84.51814975 15.64168901 79.10202275 17.13030244 71 19 Z " fill="#050505" transform="translate(153,128)"/>
</svg>
