<svg xmlns="http://www.w3.org/2000/svg" xmlns:xlink="http://www.w3.org/1999/xlink" width="50" zoomAndPan="magnify" viewBox="0 0 37.5 899.99999" height="1200" preserveAspectRatio="xMidYMid meet" version="1.0"><defs><clipPath id="4e3cbcadb2"><path d="M 16.644531 5.921875 L 20.363281 5.921875 L 20.363281 15.148438 L 16.644531 15.148438 Z M 16.644531 5.921875 " clip-rule="nonzero"/></clipPath><clipPath id="6baabb4265"><path d="M 0.644531 0.921875 L 4.363281 0.921875 L 4.363281 10.148438 L 0.644531 10.148438 Z M 0.644531 0.921875 " clip-rule="nonzero"/></clipPath><clipPath id="b79c92ac65"><rect x="0" width="5" y="0" height="11"/></clipPath><clipPath id="e49432d43b"><path d="M 16.644531 31.773438 L 20.363281 31.773438 L 20.363281 41 L 16.644531 41 Z M 16.644531 31.773438 " clip-rule="nonzero"/></clipPath><clipPath id="fa21cbb96e"><path d="M 0.644531 0.773438 L 4.363281 0.773438 L 4.363281 10 L 0.644531 10 Z M 0.644531 0.773438 " clip-rule="nonzero"/></clipPath><clipPath id="0c62d2a48d"><rect x="0" width="5" y="0" height="10"/></clipPath><clipPath id="8179d1e883"><path d="M 16.644531 44.722656 L 20.363281 44.722656 L 20.363281 53.945312 L 16.644531 53.945312 Z M 16.644531 44.722656 " clip-rule="nonzero"/></clipPath><clipPath id="c6a567c460"><path d="M 0.644531 0.722656 L 4.363281 0.722656 L 4.363281 9.945312 L 0.644531 9.945312 Z M 0.644531 0.722656 " clip-rule="nonzero"/></clipPath><clipPath id="9d4269704e"><rect x="0" width="5" y="0" height="10"/></clipPath><clipPath id="1d944df104"><path d="M 16.644531 57.667969 L 20.363281 57.667969 L 20.363281 66.894531 L 16.644531 66.894531 Z M 16.644531 57.667969 " clip-rule="nonzero"/></clipPath><clipPath id="fc852b0f6c"><path d="M 0.644531 0.667969 L 4.363281 0.667969 L 4.363281 9.894531 L 0.644531 9.894531 Z M 0.644531 0.667969 " clip-rule="nonzero"/></clipPath><clipPath id="9a9b4704bc"><rect x="0" width="5" y="0" height="10"/></clipPath><clipPath id="1c2cffea07"><path d="M 16.644531 18.847656 L 20.363281 18.847656 L 20.363281 28.074219 L 16.644531 28.074219 Z M 16.644531 18.847656 " clip-rule="nonzero"/></clipPath><clipPath id="99e3c363c6"><path d="M 0.644531 0.847656 L 4.363281 0.847656 L 4.363281 10.074219 L 0.644531 10.074219 Z M 0.644531 0.847656 " clip-rule="nonzero"/></clipPath><clipPath id="024b54964c"><rect x="0" width="5" y="0" height="11"/></clipPath><clipPath id="abe3d31589"><path d="M 13.0625 83.539062 L 23.945312 83.539062 L 23.945312 94.425781 L 13.0625 94.425781 Z M 13.0625 83.539062 " clip-rule="nonzero"/></clipPath><clipPath id="49e479707e"><path d="M 18.503906 83.539062 C 15.496094 83.539062 13.0625 85.976562 13.0625 88.984375 C 13.0625 91.988281 15.496094 94.425781 18.503906 94.425781 C 21.507812 94.425781 23.945312 91.988281 23.945312 88.984375 C 23.945312 85.976562 21.507812 83.539062 18.503906 83.539062 Z M 18.503906 83.539062 " clip-rule="nonzero"/></clipPath><clipPath id="77be804366"><path d="M 0.0625 0.539062 L 10.945312 0.539062 L 10.945312 11.425781 L 0.0625 11.425781 Z M 0.0625 0.539062 " clip-rule="nonzero"/></clipPath><clipPath id="e4b17da6a4"><path d="M 5.503906 0.539062 C 2.496094 0.539062 0.0625 2.976562 0.0625 5.984375 C 0.0625 8.988281 2.496094 11.425781 5.503906 11.425781 C 8.507812 11.425781 10.945312 8.988281 10.945312 5.984375 C 10.945312 2.976562 8.507812 0.539062 5.503906 0.539062 Z M 5.503906 0.539062 " clip-rule="nonzero"/></clipPath><clipPath id="1584071e96"><rect x="0" width="11" y="0" height="12"/></clipPath><clipPath id="867e9d92b0"><path d="M 16.644531 98.144531 L 20.363281 98.144531 L 20.363281 107.371094 L 16.644531 107.371094 Z M 16.644531 98.144531 " clip-rule="nonzero"/></clipPath><clipPath id="a3c29e942b"><path d="M 0.644531 0.144531 L 4.363281 0.144531 L 4.363281 9.371094 L 0.644531 9.371094 Z M 0.644531 0.144531 " clip-rule="nonzero"/></clipPath><clipPath id="852e6439df"><rect x="0" width="5" y="0" height="10"/></clipPath><clipPath id="9ebf9b6f23"><path d="M 16.644531 111.089844 L 20.363281 111.089844 L 20.363281 120.316406 L 16.644531 120.316406 Z M 16.644531 111.089844 " clip-rule="nonzero"/></clipPath><clipPath id="6f6cb6df9e"><path d="M 0.644531 0.0898438 L 4.363281 0.0898438 L 4.363281 9.316406 L 0.644531 9.316406 Z M 0.644531 0.0898438 " clip-rule="nonzero"/></clipPath><clipPath id="2d35830fc6"><rect x="0" width="5" y="0" height="10"/></clipPath><clipPath id="b7d4a08120"><path d="M 16.644531 124.039062 L 20.363281 124.039062 L 20.363281 133.265625 L 16.644531 133.265625 Z M 16.644531 124.039062 " clip-rule="nonzero"/></clipPath><clipPath id="f281900237"><path d="M 0.644531 0.0390625 L 4.363281 0.0390625 L 4.363281 9.265625 L 0.644531 9.265625 Z M 0.644531 0.0390625 " clip-rule="nonzero"/></clipPath><clipPath id="5c47595800"><rect x="0" width="5" y="0" height="10"/></clipPath><clipPath id="303e7034e0"><path d="M 16.644531 136.984375 L 20.363281 136.984375 L 20.363281 146.210938 L 16.644531 146.210938 Z M 16.644531 136.984375 " clip-rule="nonzero"/></clipPath><clipPath id="83b9f92573"><path d="M 0.644531 0.984375 L 4.363281 0.984375 L 4.363281 10.210938 L 0.644531 10.210938 Z M 0.644531 0.984375 " clip-rule="nonzero"/></clipPath><clipPath id="b8956c8bad"><rect x="0" width="5" y="0" height="11"/></clipPath><clipPath id="85ebe7553c"><path d="M 16.644531 149.929688 L 20.363281 149.929688 L 20.363281 159.15625 L 16.644531 159.15625 Z M 16.644531 149.929688 " clip-rule="nonzero"/></clipPath><clipPath id="a0a0832d6f"><path d="M 0.644531 0.929688 L 4.363281 0.929688 L 4.363281 10.15625 L 0.644531 10.15625 Z M 0.644531 0.929688 " clip-rule="nonzero"/></clipPath><clipPath id="6a6cdabb76"><rect x="0" width="5" y="0" height="11"/></clipPath><clipPath id="cb15257f53"><path d="M 16.644531 162.875 L 20.363281 162.875 L 20.363281 172.101562 L 16.644531 172.101562 Z M 16.644531 162.875 " clip-rule="nonzero"/></clipPath><clipPath id="7fa947a305"><path d="M 0.644531 0.875 L 4.363281 0.875 L 4.363281 10.101562 L 0.644531 10.101562 Z M 0.644531 0.875 " clip-rule="nonzero"/></clipPath><clipPath id="d64a5f06df"><rect x="0" width="5" y="0" height="11"/></clipPath><clipPath id="51fb1e519e"><path d="M 13.0625 279.316406 L 23.945312 279.316406 L 23.945312 290.199219 L 13.0625 290.199219 Z M 13.0625 279.316406 " clip-rule="nonzero"/></clipPath><clipPath id="53a562aab6"><path d="M 18.503906 279.316406 C 15.496094 279.316406 13.0625 281.75 13.0625 284.757812 C 13.0625 287.761719 15.496094 290.199219 18.503906 290.199219 C 21.507812 290.199219 23.945312 287.761719 23.945312 284.757812 C 23.945312 281.75 21.507812 279.316406 18.503906 279.316406 Z M 18.503906 279.316406 " clip-rule="nonzero"/></clipPath><clipPath id="da1d78898d"><path d="M 0.0625 0.316406 L 10.945312 0.316406 L 10.945312 11.199219 L 0.0625 11.199219 Z M 0.0625 0.316406 " clip-rule="nonzero"/></clipPath><clipPath id="5528c70d27"><path d="M 5.503906 0.316406 C 2.496094 0.316406 0.0625 2.75 0.0625 5.757812 C 0.0625 8.761719 2.496094 11.199219 5.503906 11.199219 C 8.507812 11.199219 10.945312 8.761719 10.945312 5.757812 C 10.945312 2.75 8.507812 0.316406 5.503906 0.316406 Z M 5.503906 0.316406 " clip-rule="nonzero"/></clipPath><clipPath id="5b2727500f"><rect x="0" width="11" y="0" height="12"/></clipPath><clipPath id="b95f1ea279"><path d="M 16.644531 175.804688 L 20.363281 175.804688 L 20.363281 185.03125 L 16.644531 185.03125 Z M 16.644531 175.804688 " clip-rule="nonzero"/></clipPath><clipPath id="c49f8f4afc"><path d="M 0.644531 0.804688 L 4.363281 0.804688 L 4.363281 10.03125 L 0.644531 10.03125 Z M 0.644531 0.804688 " clip-rule="nonzero"/></clipPath><clipPath id="83700228de"><rect x="0" width="5" y="0" height="11"/></clipPath><clipPath id="2695810348"><path d="M 16.644531 188.75 L 20.363281 188.75 L 20.363281 197.976562 L 16.644531 197.976562 Z M 16.644531 188.75 " clip-rule="nonzero"/></clipPath><clipPath id="b8285404cc"><path d="M 0.644531 0.75 L 4.363281 0.75 L 4.363281 9.976562 L 0.644531 9.976562 Z M 0.644531 0.75 " clip-rule="nonzero"/></clipPath><clipPath id="4186af89f8"><rect x="0" width="5" y="0" height="10"/></clipPath><clipPath id="1d2296e927"><path d="M 16.644531 201.695312 L 20.363281 201.695312 L 20.363281 210.921875 L 16.644531 210.921875 Z M 16.644531 201.695312 " clip-rule="nonzero"/></clipPath><clipPath id="5945a9ae3e"><path d="M 0.644531 0.695312 L 4.363281 0.695312 L 4.363281 9.921875 L 0.644531 9.921875 Z M 0.644531 0.695312 " clip-rule="nonzero"/></clipPath><clipPath id="462008f261"><rect x="0" width="5" y="0" height="10"/></clipPath><clipPath id="0668f07b74"><path d="M 16.644531 70.613281 L 20.363281 70.613281 L 20.363281 79.839844 L 16.644531 79.839844 Z M 16.644531 70.613281 " clip-rule="nonzero"/></clipPath><clipPath id="709a618d1d"><path d="M 0.644531 0.613281 L 4.363281 0.613281 L 4.363281 9.839844 L 0.644531 9.839844 Z M 0.644531 0.613281 " clip-rule="nonzero"/></clipPath><clipPath id="819be79fa9"><rect x="0" width="5" y="0" height="10"/></clipPath><clipPath id="fb18ddf27d"><path d="M 16.644531 214.621094 L 20.363281 214.621094 L 20.363281 223.847656 L 16.644531 223.847656 Z M 16.644531 214.621094 " clip-rule="nonzero"/></clipPath><clipPath id="09a5edaa56"><path d="M 0.644531 0.621094 L 4.363281 0.621094 L 4.363281 9.847656 L 0.644531 9.847656 Z M 0.644531 0.621094 " clip-rule="nonzero"/></clipPath><clipPath id="f1123bdd28"><rect x="0" width="5" y="0" height="10"/></clipPath><clipPath id="07aa95fd4f"><path d="M 16.644531 227.570312 L 20.363281 227.570312 L 20.363281 236.796875 L 16.644531 236.796875 Z M 16.644531 227.570312 " clip-rule="nonzero"/></clipPath><clipPath id="1199a90d95"><path d="M 0.644531 0.570312 L 4.363281 0.570312 L 4.363281 9.796875 L 0.644531 9.796875 Z M 0.644531 0.570312 " clip-rule="nonzero"/></clipPath><clipPath id="ae979ec3cc"><rect x="0" width="5" y="0" height="10"/></clipPath><clipPath id="0e96c104c6"><path d="M 16.644531 240.496094 L 20.363281 240.496094 L 20.363281 249.722656 L 16.644531 249.722656 Z M 16.644531 240.496094 " clip-rule="nonzero"/></clipPath><clipPath id="695b8387ff"><path d="M 0.644531 0.496094 L 4.363281 0.496094 L 4.363281 9.722656 L 0.644531 9.722656 Z M 0.644531 0.496094 " clip-rule="nonzero"/></clipPath><clipPath id="6063826e25"><rect x="0" width="5" y="0" height="10"/></clipPath><clipPath id="8e6584e82f"><path d="M 16.644531 253.441406 L 20.363281 253.441406 L 20.363281 262.667969 L 16.644531 262.667969 Z M 16.644531 253.441406 " clip-rule="nonzero"/></clipPath><clipPath id="00f24ffe57"><path d="M 0.644531 0.441406 L 4.363281 0.441406 L 4.363281 9.667969 L 0.644531 9.667969 Z M 0.644531 0.441406 " clip-rule="nonzero"/></clipPath><clipPath id="5591ce0090"><rect x="0" width="5" y="0" height="10"/></clipPath><clipPath id="7d9bbb9726"><path d="M 16.644531 266.386719 L 20.363281 266.386719 L 20.363281 275.613281 L 16.644531 275.613281 Z M 16.644531 266.386719 " clip-rule="nonzero"/></clipPath><clipPath id="7287f819a8"><path d="M 0.644531 0.386719 L 4.363281 0.386719 L 4.363281 9.613281 L 0.644531 9.613281 Z M 0.644531 0.386719 " clip-rule="nonzero"/></clipPath><clipPath id="70ec4b5660"><rect x="0" width="5" y="0" height="10"/></clipPath><clipPath id="ac4a424600"><path d="M 16.644531 293.898438 L 20.363281 293.898438 L 20.363281 303.125 L 16.644531 303.125 Z M 16.644531 293.898438 " clip-rule="nonzero"/></clipPath><clipPath id="7e95b36ef1"><path d="M 0.644531 0.898438 L 4.363281 0.898438 L 4.363281 10.125 L 0.644531 10.125 Z M 0.644531 0.898438 " clip-rule="nonzero"/></clipPath><clipPath id="bc6aa8bfea"><rect x="0" width="5" y="0" height="11"/></clipPath><clipPath id="5b7329a22f"><path d="M 16.644531 306.847656 L 20.363281 306.847656 L 20.363281 316.074219 L 16.644531 316.074219 Z M 16.644531 306.847656 " clip-rule="nonzero"/></clipPath><clipPath id="f67ff899f6"><path d="M 0.644531 0.847656 L 4.363281 0.847656 L 4.363281 10.074219 L 0.644531 10.074219 Z M 0.644531 0.847656 " clip-rule="nonzero"/></clipPath><clipPath id="a5ebbe120f"><rect x="0" width="5" y="0" height="11"/></clipPath><clipPath id="0452f14973"><path d="M 16.644531 319.792969 L 20.363281 319.792969 L 20.363281 329.019531 L 16.644531 329.019531 Z M 16.644531 319.792969 " clip-rule="nonzero"/></clipPath><clipPath id="1c89ef1415"><path d="M 0.644531 0.792969 L 4.363281 0.792969 L 4.363281 10.019531 L 0.644531 10.019531 Z M 0.644531 0.792969 " clip-rule="nonzero"/></clipPath><clipPath id="6e52edd5d4"><rect x="0" width="5" y="0" height="11"/></clipPath><clipPath id="69d6b73a02"><path d="M 16.644531 332.738281 L 20.363281 332.738281 L 20.363281 341.964844 L 16.644531 341.964844 Z M 16.644531 332.738281 " clip-rule="nonzero"/></clipPath><clipPath id="4d8b068807"><path d="M 0.644531 0.738281 L 4.363281 0.738281 L 4.363281 9.964844 L 0.644531 9.964844 Z M 0.644531 0.738281 " clip-rule="nonzero"/></clipPath><clipPath id="eb6ac90b30"><rect x="0" width="5" y="0" height="10"/></clipPath><clipPath id="04203ba044"><path d="M 16.644531 345.6875 L 20.363281 345.6875 L 20.363281 354.910156 L 16.644531 354.910156 Z M 16.644531 345.6875 " clip-rule="nonzero"/></clipPath><clipPath id="964d520c2d"><path d="M 0.644531 0.6875 L 4.363281 0.6875 L 4.363281 9.910156 L 0.644531 9.910156 Z M 0.644531 0.6875 " clip-rule="nonzero"/></clipPath><clipPath id="a7ee3c63da"><rect x="0" width="5" y="0" height="10"/></clipPath><clipPath id="c38e1f7903"><path d="M 16.644531 358.632812 L 20.363281 358.632812 L 20.363281 367.859375 L 16.644531 367.859375 Z M 16.644531 358.632812 " clip-rule="nonzero"/></clipPath><clipPath id="edff70f049"><path d="M 0.644531 0.632812 L 4.363281 0.632812 L 4.363281 9.859375 L 0.644531 9.859375 Z M 0.644531 0.632812 " clip-rule="nonzero"/></clipPath><clipPath id="ea3e403978"><rect x="0" width="5" y="0" height="10"/></clipPath><clipPath id="6eb1e0049d"><path d="M 16.644531 371.558594 L 20.363281 371.558594 L 20.363281 380.785156 L 16.644531 380.785156 Z M 16.644531 371.558594 " clip-rule="nonzero"/></clipPath><clipPath id="1e7831bb90"><path d="M 0.644531 0.558594 L 4.363281 0.558594 L 4.363281 9.785156 L 0.644531 9.785156 Z M 0.644531 0.558594 " clip-rule="nonzero"/></clipPath><clipPath id="0650c0f021"><rect x="0" width="5" y="0" height="10"/></clipPath><clipPath id="6ad9e59e1e"><path d="M 16.644531 384.503906 L 20.363281 384.503906 L 20.363281 393.730469 L 16.644531 393.730469 Z M 16.644531 384.503906 " clip-rule="nonzero"/></clipPath><clipPath id="00a954baae"><path d="M 0.644531 0.503906 L 4.363281 0.503906 L 4.363281 9.730469 L 0.644531 9.730469 Z M 0.644531 0.503906 " clip-rule="nonzero"/></clipPath><clipPath id="71e59fb724"><rect x="0" width="5" y="0" height="10"/></clipPath><clipPath id="f98527e5f9"><path d="M 13.0625 397.433594 L 23.945312 397.433594 L 23.945312 408.316406 L 13.0625 408.316406 Z M 13.0625 397.433594 " clip-rule="nonzero"/></clipPath><clipPath id="33d20817ae"><path d="M 18.503906 397.433594 C 15.496094 397.433594 13.0625 399.867188 13.0625 402.875 C 13.0625 405.878906 15.496094 408.316406 18.503906 408.316406 C 21.507812 408.316406 23.945312 405.878906 23.945312 402.875 C 23.945312 399.867188 21.507812 397.433594 18.503906 397.433594 Z M 18.503906 397.433594 " clip-rule="nonzero"/></clipPath><clipPath id="0c0d7ab203"><path d="M 0.0625 0.433594 L 10.945312 0.433594 L 10.945312 11.316406 L 0.0625 11.316406 Z M 0.0625 0.433594 " clip-rule="nonzero"/></clipPath><clipPath id="ac6dc8e5be"><path d="M 5.503906 0.433594 C 2.496094 0.433594 0.0625 2.867188 0.0625 5.875 C 0.0625 8.878906 2.496094 11.316406 5.503906 11.316406 C 8.507812 11.316406 10.945312 8.878906 10.945312 5.875 C 10.945312 2.867188 8.507812 0.433594 5.503906 0.433594 Z M 5.503906 0.433594 " clip-rule="nonzero"/></clipPath><clipPath id="f1cdcd72b8"><rect x="0" width="11" y="0" height="12"/></clipPath><clipPath id="3f4ede83b3"><path d="M 16.644531 412.015625 L 20.363281 412.015625 L 20.363281 421.242188 L 16.644531 421.242188 Z M 16.644531 412.015625 " clip-rule="nonzero"/></clipPath><clipPath id="cd3d54aefe"><path d="M 0.644531 0.015625 L 4.363281 0.015625 L 4.363281 9.242188 L 0.644531 9.242188 Z M 0.644531 0.015625 " clip-rule="nonzero"/></clipPath><clipPath id="da25f2bc7e"><rect x="0" width="5" y="0" height="10"/></clipPath><clipPath id="528409b853"><path d="M 16.644531 424.964844 L 20.363281 424.964844 L 20.363281 434.1875 L 16.644531 434.1875 Z M 16.644531 424.964844 " clip-rule="nonzero"/></clipPath><clipPath id="37158e7f60"><path d="M 0.644531 0.964844 L 4.363281 0.964844 L 4.363281 10.1875 L 0.644531 10.1875 Z M 0.644531 0.964844 " clip-rule="nonzero"/></clipPath><clipPath id="e4e43ae569"><rect x="0" width="5" y="0" height="11"/></clipPath><clipPath id="6f42d684a2"><path d="M 16.644531 437.910156 L 20.363281 437.910156 L 20.363281 447.136719 L 16.644531 447.136719 Z M 16.644531 437.910156 " clip-rule="nonzero"/></clipPath><clipPath id="7f13ac6223"><path d="M 0.644531 0.910156 L 4.363281 0.910156 L 4.363281 10.136719 L 0.644531 10.136719 Z M 0.644531 0.910156 " clip-rule="nonzero"/></clipPath><clipPath id="9f7e8448a7"><rect x="0" width="5" y="0" height="11"/></clipPath><clipPath id="f7ac51c607"><path d="M 16.644531 450.855469 L 20.363281 450.855469 L 20.363281 460.082031 L 16.644531 460.082031 Z M 16.644531 450.855469 " clip-rule="nonzero"/></clipPath><clipPath id="c688dc1356"><path d="M 0.644531 0.855469 L 4.363281 0.855469 L 4.363281 10.082031 L 0.644531 10.082031 Z M 0.644531 0.855469 " clip-rule="nonzero"/></clipPath><clipPath id="8f6e17ba63"><rect x="0" width="5" y="0" height="11"/></clipPath><clipPath id="b896c439df"><path d="M 16.644531 463.800781 L 20.363281 463.800781 L 20.363281 473.027344 L 16.644531 473.027344 Z M 16.644531 463.800781 " clip-rule="nonzero"/></clipPath><clipPath id="8629ec68ce"><path d="M 0.644531 0.800781 L 4.363281 0.800781 L 4.363281 10.027344 L 0.644531 10.027344 Z M 0.644531 0.800781 " clip-rule="nonzero"/></clipPath><clipPath id="9bc20a81fc"><rect x="0" width="5" y="0" height="11"/></clipPath><clipPath id="1ececad1e0"><path d="M 16.644531 476.75 L 20.363281 476.75 L 20.363281 485.972656 L 16.644531 485.972656 Z M 16.644531 476.75 " clip-rule="nonzero"/></clipPath><clipPath id="a5336d495b"><path d="M 0.644531 0.75 L 4.363281 0.75 L 4.363281 9.972656 L 0.644531 9.972656 Z M 0.644531 0.75 " clip-rule="nonzero"/></clipPath><clipPath id="e7ddc79881"><rect x="0" width="5" y="0" height="10"/></clipPath><clipPath id="5c737e75d0"><path d="M 16.644531 489.675781 L 20.363281 489.675781 L 20.363281 498.902344 L 16.644531 498.902344 Z M 16.644531 489.675781 " clip-rule="nonzero"/></clipPath><clipPath id="a4ce52e4d9"><path d="M 0.644531 0.675781 L 4.363281 0.675781 L 4.363281 9.902344 L 0.644531 9.902344 Z M 0.644531 0.675781 " clip-rule="nonzero"/></clipPath><clipPath id="f88bef27b4"><rect x="0" width="5" y="0" height="10"/></clipPath><clipPath id="aadb036f1c"><path d="M 13.0625 502.601562 L 23.945312 502.601562 L 23.945312 513.488281 L 13.0625 513.488281 Z M 13.0625 502.601562 " clip-rule="nonzero"/></clipPath><clipPath id="6ea87112b8"><path d="M 18.503906 502.601562 C 15.496094 502.601562 13.0625 505.039062 13.0625 508.042969 C 13.0625 511.050781 15.496094 513.488281 18.503906 513.488281 C 21.507812 513.488281 23.945312 511.050781 23.945312 508.042969 C 23.945312 505.039062 21.507812 502.601562 18.503906 502.601562 Z M 18.503906 502.601562 " clip-rule="nonzero"/></clipPath><clipPath id="46104efe60"><path d="M 0.0625 0.601562 L 10.945312 0.601562 L 10.945312 11.488281 L 0.0625 11.488281 Z M 0.0625 0.601562 " clip-rule="nonzero"/></clipPath><clipPath id="fc6550135d"><path d="M 5.503906 0.601562 C 2.496094 0.601562 0.0625 3.039062 0.0625 6.042969 C 0.0625 9.050781 2.496094 11.488281 5.503906 11.488281 C 8.507812 11.488281 10.945312 9.050781 10.945312 6.042969 C 10.945312 3.039062 8.507812 0.601562 5.503906 0.601562 Z M 5.503906 0.601562 " clip-rule="nonzero"/></clipPath><clipPath id="ed037f269f"><rect x="0" width="11" y="0" height="12"/></clipPath><clipPath id="45189600c7"><path d="M 16.644531 517.1875 L 20.363281 517.1875 L 20.363281 526.414062 L 16.644531 526.414062 Z M 16.644531 517.1875 " clip-rule="nonzero"/></clipPath><clipPath id="9c6ceba92d"><path d="M 0.644531 0.1875 L 4.363281 0.1875 L 4.363281 9.414062 L 0.644531 9.414062 Z M 0.644531 0.1875 " clip-rule="nonzero"/></clipPath><clipPath id="752433eb30"><rect x="0" width="5" y="0" height="10"/></clipPath><clipPath id="cea2e639a0"><path d="M 16.644531 530.132812 L 20.363281 530.132812 L 20.363281 539.359375 L 16.644531 539.359375 Z M 16.644531 530.132812 " clip-rule="nonzero"/></clipPath><clipPath id="bde276ea8a"><path d="M 0.644531 0.132812 L 4.363281 0.132812 L 4.363281 9.359375 L 0.644531 9.359375 Z M 0.644531 0.132812 " clip-rule="nonzero"/></clipPath><clipPath id="3c1424d08e"><rect x="0" width="5" y="0" height="10"/></clipPath><clipPath id="3f15dc85ea"><path d="M 16.644531 543.078125 L 20.363281 543.078125 L 20.363281 552.304688 L 16.644531 552.304688 Z M 16.644531 543.078125 " clip-rule="nonzero"/></clipPath><clipPath id="db43522d4a"><path d="M 0.644531 0.078125 L 4.363281 0.078125 L 4.363281 9.304688 L 0.644531 9.304688 Z M 0.644531 0.078125 " clip-rule="nonzero"/></clipPath><clipPath id="99db0c83ee"><rect x="0" width="5" y="0" height="10"/></clipPath><clipPath id="e748c06a79"><path d="M 16.644531 556.027344 L 20.363281 556.027344 L 20.363281 565.253906 L 16.644531 565.253906 Z M 16.644531 556.027344 " clip-rule="nonzero"/></clipPath><clipPath id="4a3479b4ac"><path d="M 0.644531 0.0273438 L 4.363281 0.0273438 L 4.363281 9.253906 L 0.644531 9.253906 Z M 0.644531 0.0273438 " clip-rule="nonzero"/></clipPath><clipPath id="bdc831274a"><rect x="0" width="5" y="0" height="10"/></clipPath><clipPath id="2792215f60"><path d="M 16.644531 568.972656 L 20.363281 568.972656 L 20.363281 578.199219 L 16.644531 578.199219 Z M 16.644531 568.972656 " clip-rule="nonzero"/></clipPath><clipPath id="b32d883451"><path d="M 0.644531 0.972656 L 4.363281 0.972656 L 4.363281 10.199219 L 0.644531 10.199219 Z M 0.644531 0.972656 " clip-rule="nonzero"/></clipPath><clipPath id="b8d62f971e"><rect x="0" width="5" y="0" height="11"/></clipPath><clipPath id="b76924ed8a"><path d="M 16.644531 581.917969 L 20.363281 581.917969 L 20.363281 591.144531 L 16.644531 591.144531 Z M 16.644531 581.917969 " clip-rule="nonzero"/></clipPath><clipPath id="9c49094589"><path d="M 0.644531 0.917969 L 4.363281 0.917969 L 4.363281 10.144531 L 0.644531 10.144531 Z M 0.644531 0.917969 " clip-rule="nonzero"/></clipPath><clipPath id="76df5a6348"><rect x="0" width="5" y="0" height="11"/></clipPath><clipPath id="a426a15962"><path d="M 16.644531 594.84375 L 20.363281 594.84375 L 20.363281 604.070312 L 16.644531 604.070312 Z M 16.644531 594.84375 " clip-rule="nonzero"/></clipPath><clipPath id="40069afe38"><path d="M 0.644531 0.84375 L 4.363281 0.84375 L 4.363281 10.070312 L 0.644531 10.070312 Z M 0.644531 0.84375 " clip-rule="nonzero"/></clipPath><clipPath id="413d38094f"><rect x="0" width="5" y="0" height="11"/></clipPath><clipPath id="6d793b7f17"><path d="M 16.644531 607.792969 L 20.363281 607.792969 L 20.363281 617.019531 L 16.644531 617.019531 Z M 16.644531 607.792969 " clip-rule="nonzero"/></clipPath><clipPath id="2b78ada615"><path d="M 0.644531 0.792969 L 4.363281 0.792969 L 4.363281 10.019531 L 0.644531 10.019531 Z M 0.644531 0.792969 " clip-rule="nonzero"/></clipPath><clipPath id="9f8f4aebf1"><rect x="0" width="5" y="0" height="11"/></clipPath><clipPath id="eec7efb593"><path d="M 16.644531 620.71875 L 20.363281 620.71875 L 20.363281 629.945312 L 16.644531 629.945312 Z M 16.644531 620.71875 " clip-rule="nonzero"/></clipPath><clipPath id="4144350541"><path d="M 0.644531 0.71875 L 4.363281 0.71875 L 4.363281 9.945312 L 0.644531 9.945312 Z M 0.644531 0.71875 " clip-rule="nonzero"/></clipPath><clipPath id="5260c27438"><rect x="0" width="5" y="0" height="10"/></clipPath><clipPath id="349bc79759"><path d="M 13.0625 633.644531 L 23.945312 633.644531 L 23.945312 644.53125 L 13.0625 644.53125 Z M 13.0625 633.644531 " clip-rule="nonzero"/></clipPath><clipPath id="e394ca835d"><path d="M 18.503906 633.644531 C 15.496094 633.644531 13.0625 636.082031 13.0625 639.085938 C 13.0625 642.09375 15.496094 644.53125 18.503906 644.53125 C 21.507812 644.53125 23.945312 642.09375 23.945312 639.085938 C 23.945312 636.082031 21.507812 633.644531 18.503906 633.644531 Z M 18.503906 633.644531 " clip-rule="nonzero"/></clipPath><clipPath id="2035225c7d"><path d="M 0.0625 0.644531 L 10.945312 0.644531 L 10.945312 11.53125 L 0.0625 11.53125 Z M 0.0625 0.644531 " clip-rule="nonzero"/></clipPath><clipPath id="d806ad6d45"><path d="M 5.503906 0.644531 C 2.496094 0.644531 0.0625 3.082031 0.0625 6.085938 C 0.0625 9.09375 2.496094 11.53125 5.503906 11.53125 C 8.507812 11.53125 10.945312 9.09375 10.945312 6.085938 C 10.945312 3.082031 8.507812 0.644531 5.503906 0.644531 Z M 5.503906 0.644531 " clip-rule="nonzero"/></clipPath><clipPath id="92d4055884"><rect x="0" width="11" y="0" height="12"/></clipPath><clipPath id="f3136622ac"><path d="M 16.644531 648.230469 L 20.363281 648.230469 L 20.363281 657.457031 L 16.644531 657.457031 Z M 16.644531 648.230469 " clip-rule="nonzero"/></clipPath><clipPath id="41c50eec69"><path d="M 0.644531 0.230469 L 4.363281 0.230469 L 4.363281 9.457031 L 0.644531 9.457031 Z M 0.644531 0.230469 " clip-rule="nonzero"/></clipPath><clipPath id="0e0810d629"><rect x="0" width="5" y="0" height="10"/></clipPath><clipPath id="1f6a09e2bb"><path d="M 16.644531 661.175781 L 20.363281 661.175781 L 20.363281 670.402344 L 16.644531 670.402344 Z M 16.644531 661.175781 " clip-rule="nonzero"/></clipPath><clipPath id="fdfe9c9883"><path d="M 0.644531 0.175781 L 4.363281 0.175781 L 4.363281 9.402344 L 0.644531 9.402344 Z M 0.644531 0.175781 " clip-rule="nonzero"/></clipPath><clipPath id="c07b0ed4de"><rect x="0" width="5" y="0" height="10"/></clipPath><clipPath id="741a5a730c"><path d="M 16.644531 674.125 L 20.363281 674.125 L 20.363281 683.347656 L 16.644531 683.347656 Z M 16.644531 674.125 " clip-rule="nonzero"/></clipPath><clipPath id="4e723ab452"><path d="M 0.644531 0.125 L 4.363281 0.125 L 4.363281 9.347656 L 0.644531 9.347656 Z M 0.644531 0.125 " clip-rule="nonzero"/></clipPath><clipPath id="6a54e18245"><rect x="0" width="5" y="0" height="10"/></clipPath><clipPath id="fbbb2326bb"><path d="M 16.644531 687.070312 L 20.363281 687.070312 L 20.363281 696.296875 L 16.644531 696.296875 Z M 16.644531 687.070312 " clip-rule="nonzero"/></clipPath><clipPath id="26d45ff7a7"><path d="M 0.644531 0.0703125 L 4.363281 0.0703125 L 4.363281 9.296875 L 0.644531 9.296875 Z M 0.644531 0.0703125 " clip-rule="nonzero"/></clipPath><clipPath id="4b4cc0d246"><rect x="0" width="5" y="0" height="10"/></clipPath><clipPath id="1f16cae51b"><path d="M 16.644531 700.015625 L 20.363281 700.015625 L 20.363281 709.242188 L 16.644531 709.242188 Z M 16.644531 700.015625 " clip-rule="nonzero"/></clipPath><clipPath id="63dd03df44"><path d="M 0.644531 0.015625 L 4.363281 0.015625 L 4.363281 9.242188 L 0.644531 9.242188 Z M 0.644531 0.015625 " clip-rule="nonzero"/></clipPath><clipPath id="65ffd6e6f3"><rect x="0" width="5" y="0" height="10"/></clipPath><clipPath id="27472bcd37"><path d="M 16.644531 712.941406 L 20.363281 712.941406 L 20.363281 722.167969 L 16.644531 722.167969 Z M 16.644531 712.941406 " clip-rule="nonzero"/></clipPath><clipPath id="88c7598dda"><path d="M 0.644531 0.941406 L 4.363281 0.941406 L 4.363281 10.167969 L 0.644531 10.167969 Z M 0.644531 0.941406 " clip-rule="nonzero"/></clipPath><clipPath id="192d2c5130"><rect x="0" width="5" y="0" height="11"/></clipPath><clipPath id="51b31f2a36"><path d="M 16.644531 725.890625 L 20.363281 725.890625 L 20.363281 735.113281 L 16.644531 735.113281 Z M 16.644531 725.890625 " clip-rule="nonzero"/></clipPath><clipPath id="b6bc77a14c"><path d="M 0.644531 0.890625 L 4.363281 0.890625 L 4.363281 10.113281 L 0.644531 10.113281 Z M 0.644531 0.890625 " clip-rule="nonzero"/></clipPath><clipPath id="a2f1872f71"><rect x="0" width="5" y="0" height="11"/></clipPath><clipPath id="9ef678a2b3"><path d="M 16.644531 738.816406 L 20.363281 738.816406 L 20.363281 748.042969 L 16.644531 748.042969 Z M 16.644531 738.816406 " clip-rule="nonzero"/></clipPath><clipPath id="3a0caeae51"><path d="M 0.644531 0.816406 L 4.363281 0.816406 L 4.363281 10.042969 L 0.644531 10.042969 Z M 0.644531 0.816406 " clip-rule="nonzero"/></clipPath><clipPath id="c3fe8cb099"><rect x="0" width="5" y="0" height="11"/></clipPath><clipPath id="68655479f6"><path d="M 13.0625 751.742188 L 23.945312 751.742188 L 23.945312 762.625 L 13.0625 762.625 Z M 13.0625 751.742188 " clip-rule="nonzero"/></clipPath><clipPath id="ee5c9acbaf"><path d="M 18.503906 751.742188 C 15.496094 751.742188 13.0625 754.179688 13.0625 757.183594 C 13.0625 760.191406 15.496094 762.625 18.503906 762.625 C 21.507812 762.625 23.945312 760.191406 23.945312 757.183594 C 23.945312 754.179688 21.507812 751.742188 18.503906 751.742188 Z M 18.503906 751.742188 " clip-rule="nonzero"/></clipPath><clipPath id="ded0d49581"><path d="M 0.0625 0.742188 L 10.945312 0.742188 L 10.945312 11.625 L 0.0625 11.625 Z M 0.0625 0.742188 " clip-rule="nonzero"/></clipPath><clipPath id="dd2dd06988"><path d="M 5.503906 0.742188 C 2.496094 0.742188 0.0625 3.179688 0.0625 6.183594 C 0.0625 9.191406 2.496094 11.625 5.503906 11.625 C 8.507812 11.625 10.945312 9.191406 10.945312 6.183594 C 10.945312 3.179688 8.507812 0.742188 5.503906 0.742188 Z M 5.503906 0.742188 " clip-rule="nonzero"/></clipPath><clipPath id="a73a418022"><rect x="0" width="11" y="0" height="12"/></clipPath><clipPath id="852024624e"><path d="M 16.644531 766.328125 L 20.363281 766.328125 L 20.363281 775.554688 L 16.644531 775.554688 Z M 16.644531 766.328125 " clip-rule="nonzero"/></clipPath><clipPath id="47ff45e2d1"><path d="M 0.644531 0.328125 L 4.363281 0.328125 L 4.363281 9.554688 L 0.644531 9.554688 Z M 0.644531 0.328125 " clip-rule="nonzero"/></clipPath><clipPath id="b40b75355d"><rect x="0" width="5" y="0" height="10"/></clipPath><clipPath id="3893de733e"><path d="M 16.644531 779.273438 L 20.363281 779.273438 L 20.363281 788.5 L 16.644531 788.5 Z M 16.644531 779.273438 " clip-rule="nonzero"/></clipPath><clipPath id="3794759997"><path d="M 0.644531 0.273438 L 4.363281 0.273438 L 4.363281 9.5 L 0.644531 9.5 Z M 0.644531 0.273438 " clip-rule="nonzero"/></clipPath><clipPath id="c7ccb77480"><rect x="0" width="5" y="0" height="10"/></clipPath><clipPath id="c71691db4a"><path d="M 16.644531 792.21875 L 20.363281 792.21875 L 20.363281 801.445312 L 16.644531 801.445312 Z M 16.644531 792.21875 " clip-rule="nonzero"/></clipPath><clipPath id="6783cf8938"><path d="M 0.644531 0.21875 L 4.363281 0.21875 L 4.363281 9.445312 L 0.644531 9.445312 Z M 0.644531 0.21875 " clip-rule="nonzero"/></clipPath><clipPath id="8b4d9d77ae"><rect x="0" width="5" y="0" height="10"/></clipPath><clipPath id="558cfd3950"><path d="M 16.644531 805.167969 L 20.363281 805.167969 L 20.363281 814.394531 L 16.644531 814.394531 Z M 16.644531 805.167969 " clip-rule="nonzero"/></clipPath><clipPath id="17f4702b89"><path d="M 0.644531 0.167969 L 4.363281 0.167969 L 4.363281 9.394531 L 0.644531 9.394531 Z M 0.644531 0.167969 " clip-rule="nonzero"/></clipPath><clipPath id="d659a606a7"><rect x="0" width="5" y="0" height="10"/></clipPath><clipPath id="eac1a08e27"><path d="M 16.644531 818.113281 L 20.363281 818.113281 L 20.363281 827.339844 L 16.644531 827.339844 Z M 16.644531 818.113281 " clip-rule="nonzero"/></clipPath><clipPath id="8f46731fcc"><path d="M 0.644531 0.113281 L 4.363281 0.113281 L 4.363281 9.339844 L 0.644531 9.339844 Z M 0.644531 0.113281 " clip-rule="nonzero"/></clipPath><clipPath id="c3bb1d393a"><rect x="0" width="5" y="0" height="10"/></clipPath><clipPath id="36128755bf"><path d="M 16.644531 831.039062 L 20.363281 831.039062 L 20.363281 840.265625 L 16.644531 840.265625 Z M 16.644531 831.039062 " clip-rule="nonzero"/></clipPath><clipPath id="92be639850"><path d="M 0.644531 0.0390625 L 4.363281 0.0390625 L 4.363281 9.265625 L 0.644531 9.265625 Z M 0.644531 0.0390625 " clip-rule="nonzero"/></clipPath><clipPath id="772f22cf04"><rect x="0" width="5" y="0" height="10"/></clipPath><clipPath id="1d5b8bf504"><path d="M 16.644531 843.984375 L 20.363281 843.984375 L 20.363281 853.210938 L 16.644531 853.210938 Z M 16.644531 843.984375 " clip-rule="nonzero"/></clipPath><clipPath id="f0a21fc01c"><path d="M 0.644531 0.984375 L 4.363281 0.984375 L 4.363281 10.210938 L 0.644531 10.210938 Z M 0.644531 0.984375 " clip-rule="nonzero"/></clipPath><clipPath id="633a5ea8c0"><rect x="0" width="5" y="0" height="11"/></clipPath><clipPath id="3d71978dbe"><path d="M 13.0625 869.496094 L 23.945312 869.496094 L 23.945312 880.378906 L 13.0625 880.378906 Z M 13.0625 869.496094 " clip-rule="nonzero"/></clipPath><clipPath id="ded6fc7c86"><path d="M 18.503906 869.496094 C 15.496094 869.496094 13.0625 871.929688 13.0625 874.9375 C 13.0625 877.941406 15.496094 880.378906 18.503906 880.378906 C 21.507812 880.378906 23.945312 877.941406 23.945312 874.9375 C 23.945312 871.929688 21.507812 869.496094 18.503906 869.496094 Z M 18.503906 869.496094 " clip-rule="nonzero"/></clipPath><clipPath id="49dc12b92d"><path d="M 0.0625 0.496094 L 10.945312 0.496094 L 10.945312 11.378906 L 0.0625 11.378906 Z M 0.0625 0.496094 " clip-rule="nonzero"/></clipPath><clipPath id="80e7e45a58"><path d="M 5.503906 0.496094 C 2.496094 0.496094 0.0625 2.929688 0.0625 5.9375 C 0.0625 8.941406 2.496094 11.378906 5.503906 11.378906 C 8.507812 11.378906 10.945312 8.941406 10.945312 5.9375 C 10.945312 2.929688 8.507812 0.496094 5.503906 0.496094 Z M 5.503906 0.496094 " clip-rule="nonzero"/></clipPath><clipPath id="7f4b359f50"><rect x="0" width="11" y="0" height="12"/></clipPath><clipPath id="d028b11c8e"><path d="M 16.644531 856.914062 L 20.363281 856.914062 L 20.363281 866.140625 L 16.644531 866.140625 Z M 16.644531 856.914062 " clip-rule="nonzero"/></clipPath><clipPath id="923e0d3741"><path d="M 0.644531 0.914062 L 4.363281 0.914062 L 4.363281 10.140625 L 0.644531 10.140625 Z M 0.644531 0.914062 " clip-rule="nonzero"/></clipPath><clipPath id="cf2c093bd3"><rect x="0" width="5" y="0" height="11"/></clipPath><clipPath id="d69cee8d5f"><path d="M 16.644531 884.082031 L 20.363281 884.082031 L 20.363281 893.304688 L 16.644531 893.304688 Z M 16.644531 884.082031 " clip-rule="nonzero"/></clipPath><clipPath id="85eefddef0"><path d="M 0.644531 0.0820312 L 4.363281 0.0820312 L 4.363281 9.304688 L 0.644531 9.304688 Z M 0.644531 0.0820312 " clip-rule="nonzero"/></clipPath><clipPath id="daa23028d7"><rect x="0" width="5" y="0" height="10"/></clipPath></defs><g clip-path="url(#4e3cbcadb2)"><g transform="matrix(1, 0, 0, 1, 16, 5)"><g clip-path="url(#b79c92ac65)"><g clip-path="url(#6baabb4265)"><path fill="#cdcdcd" d="M 0.644531 0.921875 L 4.363281 0.921875 L 4.363281 10.148438 L 0.644531 10.148438 Z M 0.644531 0.921875 " fill-opacity="1" fill-rule="nonzero"/></g></g></g></g><g clip-path="url(#e49432d43b)"><g transform="matrix(1, 0, 0, 1, 16, 31)"><g clip-path="url(#0c62d2a48d)"><g clip-path="url(#fa21cbb96e)"><path fill="#cdcdcd" d="M 0.644531 0.773438 L 4.363281 0.773438 L 4.363281 10.003906 L 0.644531 10.003906 Z M 0.644531 0.773438 " fill-opacity="1" fill-rule="nonzero"/></g></g></g></g><g clip-path="url(#8179d1e883)"><g transform="matrix(1, 0, 0, 1, 16, 44)"><g clip-path="url(#9d4269704e)"><g clip-path="url(#c6a567c460)"><path fill="#cdcdcd" d="M 0.644531 0.722656 L 4.363281 0.722656 L 4.363281 9.949219 L 0.644531 9.949219 Z M 0.644531 0.722656 " fill-opacity="1" fill-rule="nonzero"/></g></g></g></g><g clip-path="url(#1d944df104)"><g transform="matrix(1, 0, 0, 1, 16, 57)"><g clip-path="url(#9a9b4704bc)"><g clip-path="url(#fc852b0f6c)"><path fill="#cdcdcd" d="M 0.644531 0.667969 L 4.363281 0.667969 L 4.363281 9.894531 L 0.644531 9.894531 Z M 0.644531 0.667969 " fill-opacity="1" fill-rule="nonzero"/></g></g></g></g><g clip-path="url(#1c2cffea07)"><g transform="matrix(1, 0, 0, 1, 16, 18)"><g clip-path="url(#024b54964c)"><g clip-path="url(#99e3c363c6)"><path fill="#cdcdcd" d="M 0.644531 0.847656 L 4.363281 0.847656 L 4.363281 10.074219 L 0.644531 10.074219 Z M 0.644531 0.847656 " fill-opacity="1" fill-rule="nonzero"/></g></g></g></g><g clip-path="url(#abe3d31589)"><g clip-path="url(#49e479707e)"><g transform="matrix(1, 0, 0, 1, 13, 83)"><g clip-path="url(#1584071e96)"><g clip-path="url(#77be804366)"><g clip-path="url(#e4b17da6a4)"><path fill="#cdcdcd" d="M 0.0625 0.539062 L 10.945312 0.539062 L 10.945312 11.425781 L 0.0625 11.425781 Z M 0.0625 0.539062 " fill-opacity="1" fill-rule="nonzero"/></g></g></g></g></g></g><g clip-path="url(#867e9d92b0)"><g transform="matrix(1, 0, 0, 1, 16, 98)"><g clip-path="url(#852e6439df)"><g clip-path="url(#a3c29e942b)"><path fill="#cdcdcd" d="M 0.644531 0.144531 L 4.363281 0.144531 L 4.363281 9.371094 L 0.644531 9.371094 Z M 0.644531 0.144531 " fill-opacity="1" fill-rule="nonzero"/></g></g></g></g><g clip-path="url(#9ebf9b6f23)"><g transform="matrix(1, 0, 0, 1, 16, 111)"><g clip-path="url(#2d35830fc6)"><g clip-path="url(#6f6cb6df9e)"><path fill="#cdcdcd" d="M 0.644531 0.0898438 L 4.363281 0.0898438 L 4.363281 9.320312 L 0.644531 9.320312 Z M 0.644531 0.0898438 " fill-opacity="1" fill-rule="nonzero"/></g></g></g></g><g clip-path="url(#b7d4a08120)"><g transform="matrix(1, 0, 0, 1, 16, 124)"><g clip-path="url(#5c47595800)"><g clip-path="url(#f281900237)"><path fill="#cdcdcd" d="M 0.644531 0.0390625 L 4.363281 0.0390625 L 4.363281 9.265625 L 0.644531 9.265625 Z M 0.644531 0.0390625 " fill-opacity="1" fill-rule="nonzero"/></g></g></g></g><g clip-path="url(#303e7034e0)"><g transform="matrix(1, 0, 0, 1, 16, 136)"><g clip-path="url(#b8956c8bad)"><g clip-path="url(#83b9f92573)"><path fill="#cdcdcd" d="M 0.644531 0.984375 L 4.363281 0.984375 L 4.363281 10.210938 L 0.644531 10.210938 Z M 0.644531 0.984375 " fill-opacity="1" fill-rule="nonzero"/></g></g></g></g><g clip-path="url(#85ebe7553c)"><g transform="matrix(1, 0, 0, 1, 16, 149)"><g clip-path="url(#6a6cdabb76)"><g clip-path="url(#a0a0832d6f)"><path fill="#cdcdcd" d="M 0.644531 0.929688 L 4.363281 0.929688 L 4.363281 10.15625 L 0.644531 10.15625 Z M 0.644531 0.929688 " fill-opacity="1" fill-rule="nonzero"/></g></g></g></g><g clip-path="url(#cb15257f53)"><g transform="matrix(1, 0, 0, 1, 16, 162)"><g clip-path="url(#d64a5f06df)"><g clip-path="url(#7fa947a305)"><path fill="#cdcdcd" d="M 0.644531 0.875 L 4.363281 0.875 L 4.363281 10.105469 L 0.644531 10.105469 Z M 0.644531 0.875 " fill-opacity="1" fill-rule="nonzero"/></g></g></g></g><g clip-path="url(#51fb1e519e)"><g clip-path="url(#53a562aab6)"><g transform="matrix(1, 0, 0, 1, 13, 279)"><g clip-path="url(#5b2727500f)"><g clip-path="url(#da1d78898d)"><g clip-path="url(#5528c70d27)"><path fill="#cdcdcd" d="M 0.0625 0.316406 L 10.945312 0.316406 L 10.945312 11.199219 L 0.0625 11.199219 Z M 0.0625 0.316406 " fill-opacity="1" fill-rule="nonzero"/></g></g></g></g></g></g><g clip-path="url(#b95f1ea279)"><g transform="matrix(1, 0, 0, 1, 16, 175)"><g clip-path="url(#83700228de)"><g clip-path="url(#c49f8f4afc)"><path fill="#cdcdcd" d="M 0.644531 0.804688 L 4.363281 0.804688 L 4.363281 10.03125 L 0.644531 10.03125 Z M 0.644531 0.804688 " fill-opacity="1" fill-rule="nonzero"/></g></g></g></g><g clip-path="url(#2695810348)"><g transform="matrix(1, 0, 0, 1, 16, 188)"><g clip-path="url(#4186af89f8)"><g clip-path="url(#b8285404cc)"><path fill="#cdcdcd" d="M 0.644531 0.75 L 4.363281 0.75 L 4.363281 9.976562 L 0.644531 9.976562 Z M 0.644531 0.75 " fill-opacity="1" fill-rule="nonzero"/></g></g></g></g><g clip-path="url(#1d2296e927)"><g transform="matrix(1, 0, 0, 1, 16, 201)"><g clip-path="url(#462008f261)"><g clip-path="url(#5945a9ae3e)"><path fill="#cdcdcd" d="M 0.644531 0.695312 L 4.363281 0.695312 L 4.363281 9.921875 L 0.644531 9.921875 Z M 0.644531 0.695312 " fill-opacity="1" fill-rule="nonzero"/></g></g></g></g><g clip-path="url(#0668f07b74)"><g transform="matrix(1, 0, 0, 1, 16, 70)"><g clip-path="url(#819be79fa9)"><g clip-path="url(#709a618d1d)"><path fill="#cdcdcd" d="M 0.644531 0.613281 L 4.363281 0.613281 L 4.363281 9.839844 L 0.644531 9.839844 Z M 0.644531 0.613281 " fill-opacity="1" fill-rule="nonzero"/></g></g></g></g><g clip-path="url(#fb18ddf27d)"><g transform="matrix(1, 0, 0, 1, 16, 214)"><g clip-path="url(#f1123bdd28)"><g clip-path="url(#09a5edaa56)"><path fill="#cdcdcd" d="M 0.644531 0.621094 L 4.363281 0.621094 L 4.363281 9.851562 L 0.644531 9.851562 Z M 0.644531 0.621094 " fill-opacity="1" fill-rule="nonzero"/></g></g></g></g><g clip-path="url(#07aa95fd4f)"><g transform="matrix(1, 0, 0, 1, 16, 227)"><g clip-path="url(#ae979ec3cc)"><g clip-path="url(#1199a90d95)"><path fill="#cdcdcd" d="M 0.644531 0.570312 L 4.363281 0.570312 L 4.363281 9.796875 L 0.644531 9.796875 Z M 0.644531 0.570312 " fill-opacity="1" fill-rule="nonzero"/></g></g></g></g><g clip-path="url(#0e96c104c6)"><g transform="matrix(1, 0, 0, 1, 16, 240)"><g clip-path="url(#6063826e25)"><g clip-path="url(#695b8387ff)"><path fill="#cdcdcd" d="M 0.644531 0.496094 L 4.363281 0.496094 L 4.363281 9.722656 L 0.644531 9.722656 Z M 0.644531 0.496094 " fill-opacity="1" fill-rule="nonzero"/></g></g></g></g><g clip-path="url(#8e6584e82f)"><g transform="matrix(1, 0, 0, 1, 16, 253)"><g clip-path="url(#5591ce0090)"><g clip-path="url(#00f24ffe57)"><path fill="#cdcdcd" d="M 0.644531 0.441406 L 4.363281 0.441406 L 4.363281 9.667969 L 0.644531 9.667969 Z M 0.644531 0.441406 " fill-opacity="1" fill-rule="nonzero"/></g></g></g></g><g clip-path="url(#7d9bbb9726)"><g transform="matrix(1, 0, 0, 1, 16, 266)"><g clip-path="url(#70ec4b5660)"><g clip-path="url(#7287f819a8)"><path fill="#cdcdcd" d="M 0.644531 0.386719 L 4.363281 0.386719 L 4.363281 9.617188 L 0.644531 9.617188 Z M 0.644531 0.386719 " fill-opacity="1" fill-rule="nonzero"/></g></g></g></g><g clip-path="url(#ac4a424600)"><g transform="matrix(1, 0, 0, 1, 16, 293)"><g clip-path="url(#bc6aa8bfea)"><g clip-path="url(#7e95b36ef1)"><path fill="#cdcdcd" d="M 0.644531 0.898438 L 4.363281 0.898438 L 4.363281 10.128906 L 0.644531 10.128906 Z M 0.644531 0.898438 " fill-opacity="1" fill-rule="nonzero"/></g></g></g></g><g clip-path="url(#5b7329a22f)"><g transform="matrix(1, 0, 0, 1, 16, 306)"><g clip-path="url(#a5ebbe120f)"><g clip-path="url(#f67ff899f6)"><path fill="#cdcdcd" d="M 0.644531 0.847656 L 4.363281 0.847656 L 4.363281 10.074219 L 0.644531 10.074219 Z M 0.644531 0.847656 " fill-opacity="1" fill-rule="nonzero"/></g></g></g></g><g clip-path="url(#0452f14973)"><g transform="matrix(1, 0, 0, 1, 16, 319)"><g clip-path="url(#6e52edd5d4)"><g clip-path="url(#1c89ef1415)"><path fill="#cdcdcd" d="M 0.644531 0.792969 L 4.363281 0.792969 L 4.363281 10.019531 L 0.644531 10.019531 Z M 0.644531 0.792969 " fill-opacity="1" fill-rule="nonzero"/></g></g></g></g><g clip-path="url(#69d6b73a02)"><g transform="matrix(1, 0, 0, 1, 16, 332)"><g clip-path="url(#eb6ac90b30)"><g clip-path="url(#4d8b068807)"><path fill="#cdcdcd" d="M 0.644531 0.738281 L 4.363281 0.738281 L 4.363281 9.964844 L 0.644531 9.964844 Z M 0.644531 0.738281 " fill-opacity="1" fill-rule="nonzero"/></g></g></g></g><g clip-path="url(#04203ba044)"><g transform="matrix(1, 0, 0, 1, 16, 345)"><g clip-path="url(#a7ee3c63da)"><g clip-path="url(#964d520c2d)"><path fill="#cdcdcd" d="M 0.644531 0.6875 L 4.363281 0.6875 L 4.363281 9.914062 L 0.644531 9.914062 Z M 0.644531 0.6875 " fill-opacity="1" fill-rule="nonzero"/></g></g></g></g><g clip-path="url(#c38e1f7903)"><g transform="matrix(1, 0, 0, 1, 16, 358)"><g clip-path="url(#ea3e403978)"><g clip-path="url(#edff70f049)"><path fill="#cdcdcd" d="M 0.644531 0.632812 L 4.363281 0.632812 L 4.363281 9.859375 L 0.644531 9.859375 Z M 0.644531 0.632812 " fill-opacity="1" fill-rule="nonzero"/></g></g></g></g><g clip-path="url(#6eb1e0049d)"><g transform="matrix(1, 0, 0, 1, 16, 371)"><g clip-path="url(#0650c0f021)"><g clip-path="url(#1e7831bb90)"><path fill="#cdcdcd" d="M 0.644531 0.558594 L 4.363281 0.558594 L 4.363281 9.785156 L 0.644531 9.785156 Z M 0.644531 0.558594 " fill-opacity="1" fill-rule="nonzero"/></g></g></g></g><g clip-path="url(#6ad9e59e1e)"><g transform="matrix(1, 0, 0, 1, 16, 384)"><g clip-path="url(#71e59fb724)"><g clip-path="url(#00a954baae)"><path fill="#cdcdcd" d="M 0.644531 0.503906 L 4.363281 0.503906 L 4.363281 9.730469 L 0.644531 9.730469 Z M 0.644531 0.503906 " fill-opacity="1" fill-rule="nonzero"/></g></g></g></g><g clip-path="url(#f98527e5f9)"><g clip-path="url(#33d20817ae)"><g transform="matrix(1, 0, 0, 1, 13, 397)"><g clip-path="url(#f1cdcd72b8)"><g clip-path="url(#0c0d7ab203)"><g clip-path="url(#ac6dc8e5be)"><path fill="#cdcdcd" d="M 0.0625 0.433594 L 10.945312 0.433594 L 10.945312 11.316406 L 0.0625 11.316406 Z M 0.0625 0.433594 " fill-opacity="1" fill-rule="nonzero"/></g></g></g></g></g></g><g clip-path="url(#3f4ede83b3)"><g transform="matrix(1, 0, 0, 1, 16, 412)"><g clip-path="url(#da25f2bc7e)"><g clip-path="url(#cd3d54aefe)"><path fill="#cdcdcd" d="M 0.644531 0.015625 L 4.363281 0.015625 L 4.363281 9.246094 L 0.644531 9.246094 Z M 0.644531 0.015625 " fill-opacity="1" fill-rule="nonzero"/></g></g></g></g><g clip-path="url(#528409b853)"><g transform="matrix(1, 0, 0, 1, 16, 424)"><g clip-path="url(#e4e43ae569)"><g clip-path="url(#37158e7f60)"><path fill="#cdcdcd" d="M 0.644531 0.964844 L 4.363281 0.964844 L 4.363281 10.191406 L 0.644531 10.191406 Z M 0.644531 0.964844 " fill-opacity="1" fill-rule="nonzero"/></g></g></g></g><g clip-path="url(#6f42d684a2)"><g transform="matrix(1, 0, 0, 1, 16, 437)"><g clip-path="url(#9f7e8448a7)"><g clip-path="url(#7f13ac6223)"><path fill="#cdcdcd" d="M 0.644531 0.910156 L 4.363281 0.910156 L 4.363281 10.136719 L 0.644531 10.136719 Z M 0.644531 0.910156 " fill-opacity="1" fill-rule="nonzero"/></g></g></g></g><g clip-path="url(#f7ac51c607)"><g transform="matrix(1, 0, 0, 1, 16, 450)"><g clip-path="url(#8f6e17ba63)"><g clip-path="url(#c688dc1356)"><path fill="#cdcdcd" d="M 0.644531 0.855469 L 4.363281 0.855469 L 4.363281 10.082031 L 0.644531 10.082031 Z M 0.644531 0.855469 " fill-opacity="1" fill-rule="nonzero"/></g></g></g></g><g clip-path="url(#b896c439df)"><g transform="matrix(1, 0, 0, 1, 16, 463)"><g clip-path="url(#9bc20a81fc)"><g clip-path="url(#8629ec68ce)"><path fill="#cdcdcd" d="M 0.644531 0.800781 L 4.363281 0.800781 L 4.363281 10.03125 L 0.644531 10.03125 Z M 0.644531 0.800781 " fill-opacity="1" fill-rule="nonzero"/></g></g></g></g><g clip-path="url(#1ececad1e0)"><g transform="matrix(1, 0, 0, 1, 16, 476)"><g clip-path="url(#e7ddc79881)"><g clip-path="url(#a5336d495b)"><path fill="#cdcdcd" d="M 0.644531 0.75 L 4.363281 0.75 L 4.363281 9.976562 L 0.644531 9.976562 Z M 0.644531 0.75 " fill-opacity="1" fill-rule="nonzero"/></g></g></g></g><g clip-path="url(#5c737e75d0)"><g transform="matrix(1, 0, 0, 1, 16, 489)"><g clip-path="url(#f88bef27b4)"><g clip-path="url(#a4ce52e4d9)"><path fill="#cdcdcd" d="M 0.644531 0.675781 L 4.363281 0.675781 L 4.363281 9.902344 L 0.644531 9.902344 Z M 0.644531 0.675781 " fill-opacity="1" fill-rule="nonzero"/></g></g></g></g><g clip-path="url(#aadb036f1c)"><g clip-path="url(#6ea87112b8)"><g transform="matrix(1, 0, 0, 1, 13, 502)"><g clip-path="url(#ed037f269f)"><g clip-path="url(#46104efe60)"><g clip-path="url(#fc6550135d)"><path fill="#cdcdcd" d="M 0.0625 0.601562 L 10.945312 0.601562 L 10.945312 11.488281 L 0.0625 11.488281 Z M 0.0625 0.601562 " fill-opacity="1" fill-rule="nonzero"/></g></g></g></g></g></g><g clip-path="url(#45189600c7)"><g transform="matrix(1, 0, 0, 1, 16, 517)"><g clip-path="url(#752433eb30)"><g clip-path="url(#9c6ceba92d)"><path fill="#cdcdcd" d="M 0.644531 0.1875 L 4.363281 0.1875 L 4.363281 9.414062 L 0.644531 9.414062 Z M 0.644531 0.1875 " fill-opacity="1" fill-rule="nonzero"/></g></g></g></g><g clip-path="url(#cea2e639a0)"><g transform="matrix(1, 0, 0, 1, 16, 530)"><g clip-path="url(#3c1424d08e)"><g clip-path="url(#bde276ea8a)"><path fill="#cdcdcd" d="M 0.644531 0.132812 L 4.363281 0.132812 L 4.363281 9.359375 L 0.644531 9.359375 Z M 0.644531 0.132812 " fill-opacity="1" fill-rule="nonzero"/></g></g></g></g><g clip-path="url(#3f15dc85ea)"><g transform="matrix(1, 0, 0, 1, 16, 543)"><g clip-path="url(#99db0c83ee)"><g clip-path="url(#db43522d4a)"><path fill="#cdcdcd" d="M 0.644531 0.078125 L 4.363281 0.078125 L 4.363281 9.308594 L 0.644531 9.308594 Z M 0.644531 0.078125 " fill-opacity="1" fill-rule="nonzero"/></g></g></g></g><g clip-path="url(#e748c06a79)"><g transform="matrix(1, 0, 0, 1, 16, 556)"><g clip-path="url(#bdc831274a)"><g clip-path="url(#4a3479b4ac)"><path fill="#cdcdcd" d="M 0.644531 0.0273438 L 4.363281 0.0273438 L 4.363281 9.253906 L 0.644531 9.253906 Z M 0.644531 0.0273438 " fill-opacity="1" fill-rule="nonzero"/></g></g></g></g><g clip-path="url(#2792215f60)"><g transform="matrix(1, 0, 0, 1, 16, 568)"><g clip-path="url(#b8d62f971e)"><g clip-path="url(#b32d883451)"><path fill="#cdcdcd" d="M 0.644531 0.972656 L 4.363281 0.972656 L 4.363281 10.199219 L 0.644531 10.199219 Z M 0.644531 0.972656 " fill-opacity="1" fill-rule="nonzero"/></g></g></g></g><g clip-path="url(#b76924ed8a)"><g transform="matrix(1, 0, 0, 1, 16, 581)"><g clip-path="url(#76df5a6348)"><g clip-path="url(#9c49094589)"><path fill="#cdcdcd" d="M 0.644531 0.917969 L 4.363281 0.917969 L 4.363281 10.144531 L 0.644531 10.144531 Z M 0.644531 0.917969 " fill-opacity="1" fill-rule="nonzero"/></g></g></g></g><g clip-path="url(#a426a15962)"><g transform="matrix(1, 0, 0, 1, 16, 594)"><g clip-path="url(#413d38094f)"><g clip-path="url(#40069afe38)"><path fill="#cdcdcd" d="M 0.644531 0.84375 L 4.363281 0.84375 L 4.363281 10.074219 L 0.644531 10.074219 Z M 0.644531 0.84375 " fill-opacity="1" fill-rule="nonzero"/></g></g></g></g><g clip-path="url(#6d793b7f17)"><g transform="matrix(1, 0, 0, 1, 16, 607)"><g clip-path="url(#9f8f4aebf1)"><g clip-path="url(#2b78ada615)"><path fill="#cdcdcd" d="M 0.644531 0.792969 L 4.363281 0.792969 L 4.363281 10.019531 L 0.644531 10.019531 Z M 0.644531 0.792969 " fill-opacity="1" fill-rule="nonzero"/></g></g></g></g><g clip-path="url(#eec7efb593)"><g transform="matrix(1, 0, 0, 1, 16, 620)"><g clip-path="url(#5260c27438)"><g clip-path="url(#4144350541)"><path fill="#cdcdcd" d="M 0.644531 0.71875 L 4.363281 0.71875 L 4.363281 9.945312 L 0.644531 9.945312 Z M 0.644531 0.71875 " fill-opacity="1" fill-rule="nonzero"/></g></g></g></g><g clip-path="url(#349bc79759)"><g clip-path="url(#e394ca835d)"><g transform="matrix(1, 0, 0, 1, 13, 633)"><g clip-path="url(#92d4055884)"><g clip-path="url(#2035225c7d)"><g clip-path="url(#d806ad6d45)"><path fill="#cdcdcd" d="M 0.0625 0.644531 L 10.945312 0.644531 L 10.945312 11.53125 L 0.0625 11.53125 Z M 0.0625 0.644531 " fill-opacity="1" fill-rule="nonzero"/></g></g></g></g></g></g><g clip-path="url(#f3136622ac)"><g transform="matrix(1, 0, 0, 1, 16, 648)"><g clip-path="url(#0e0810d629)"><g clip-path="url(#41c50eec69)"><path fill="#cdcdcd" d="M 0.644531 0.230469 L 4.363281 0.230469 L 4.363281 9.457031 L 0.644531 9.457031 Z M 0.644531 0.230469 " fill-opacity="1" fill-rule="nonzero"/></g></g></g></g><g clip-path="url(#1f6a09e2bb)"><g transform="matrix(1, 0, 0, 1, 16, 661)"><g clip-path="url(#c07b0ed4de)"><g clip-path="url(#fdfe9c9883)"><path fill="#cdcdcd" d="M 0.644531 0.175781 L 4.363281 0.175781 L 4.363281 9.40625 L 0.644531 9.40625 Z M 0.644531 0.175781 " fill-opacity="1" fill-rule="nonzero"/></g></g></g></g><g clip-path="url(#741a5a730c)"><g transform="matrix(1, 0, 0, 1, 16, 674)"><g clip-path="url(#6a54e18245)"><g clip-path="url(#4e723ab452)"><path fill="#cdcdcd" d="M 0.644531 0.125 L 4.363281 0.125 L 4.363281 9.351562 L 0.644531 9.351562 Z M 0.644531 0.125 " fill-opacity="1" fill-rule="nonzero"/></g></g></g></g><g clip-path="url(#fbbb2326bb)"><g transform="matrix(1, 0, 0, 1, 16, 687)"><g clip-path="url(#4b4cc0d246)"><g clip-path="url(#26d45ff7a7)"><path fill="#cdcdcd" d="M 0.644531 0.0703125 L 4.363281 0.0703125 L 4.363281 9.296875 L 0.644531 9.296875 Z M 0.644531 0.0703125 " fill-opacity="1" fill-rule="nonzero"/></g></g></g></g><g clip-path="url(#1f16cae51b)"><g transform="matrix(1, 0, 0, 1, 16, 700)"><g clip-path="url(#65ffd6e6f3)"><g clip-path="url(#63dd03df44)"><path fill="#cdcdcd" d="M 0.644531 0.015625 L 4.363281 0.015625 L 4.363281 9.242188 L 0.644531 9.242188 Z M 0.644531 0.015625 " fill-opacity="1" fill-rule="nonzero"/></g></g></g></g><g clip-path="url(#27472bcd37)"><g transform="matrix(1, 0, 0, 1, 16, 712)"><g clip-path="url(#192d2c5130)"><g clip-path="url(#88c7598dda)"><path fill="#cdcdcd" d="M 0.644531 0.941406 L 4.363281 0.941406 L 4.363281 10.171875 L 0.644531 10.171875 Z M 0.644531 0.941406 " fill-opacity="1" fill-rule="nonzero"/></g></g></g></g><g clip-path="url(#51b31f2a36)"><g transform="matrix(1, 0, 0, 1, 16, 725)"><g clip-path="url(#a2f1872f71)"><g clip-path="url(#b6bc77a14c)"><path fill="#cdcdcd" d="M 0.644531 0.890625 L 4.363281 0.890625 L 4.363281 10.117188 L 0.644531 10.117188 Z M 0.644531 0.890625 " fill-opacity="1" fill-rule="nonzero"/></g></g></g></g><g clip-path="url(#9ef678a2b3)"><g transform="matrix(1, 0, 0, 1, 16, 738)"><g clip-path="url(#c3fe8cb099)"><g clip-path="url(#3a0caeae51)"><path fill="#cdcdcd" d="M 0.644531 0.816406 L 4.363281 0.816406 L 4.363281 10.042969 L 0.644531 10.042969 Z M 0.644531 0.816406 " fill-opacity="1" fill-rule="nonzero"/></g></g></g></g><g clip-path="url(#68655479f6)"><g clip-path="url(#ee5c9acbaf)"><g transform="matrix(1, 0, 0, 1, 13, 751)"><g clip-path="url(#a73a418022)"><g clip-path="url(#ded0d49581)"><g clip-path="url(#dd2dd06988)"><path fill="#cdcdcd" d="M 0.0625 0.742188 L 10.945312 0.742188 L 10.945312 11.625 L 0.0625 11.625 Z M 0.0625 0.742188 " fill-opacity="1" fill-rule="nonzero"/></g></g></g></g></g></g><g clip-path="url(#852024624e)"><g transform="matrix(1, 0, 0, 1, 16, 766)"><g clip-path="url(#b40b75355d)"><g clip-path="url(#47ff45e2d1)"><path fill="#cdcdcd" d="M 0.644531 0.328125 L 4.363281 0.328125 L 4.363281 9.554688 L 0.644531 9.554688 Z M 0.644531 0.328125 " fill-opacity="1" fill-rule="nonzero"/></g></g></g></g><g clip-path="url(#3893de733e)"><g transform="matrix(1, 0, 0, 1, 16, 779)"><g clip-path="url(#c7ccb77480)"><g clip-path="url(#3794759997)"><path fill="#cdcdcd" d="M 0.644531 0.273438 L 4.363281 0.273438 L 4.363281 9.5 L 0.644531 9.5 Z M 0.644531 0.273438 " fill-opacity="1" fill-rule="nonzero"/></g></g></g></g><g clip-path="url(#c71691db4a)"><g transform="matrix(1, 0, 0, 1, 16, 792)"><g clip-path="url(#8b4d9d77ae)"><g clip-path="url(#6783cf8938)"><path fill="#cdcdcd" d="M 0.644531 0.21875 L 4.363281 0.21875 L 4.363281 9.449219 L 0.644531 9.449219 Z M 0.644531 0.21875 " fill-opacity="1" fill-rule="nonzero"/></g></g></g></g><g clip-path="url(#558cfd3950)"><g transform="matrix(1, 0, 0, 1, 16, 805)"><g clip-path="url(#d659a606a7)"><g clip-path="url(#17f4702b89)"><path fill="#cdcdcd" d="M 0.644531 0.167969 L 4.363281 0.167969 L 4.363281 9.394531 L 0.644531 9.394531 Z M 0.644531 0.167969 " fill-opacity="1" fill-rule="nonzero"/></g></g></g></g><g clip-path="url(#eac1a08e27)"><g transform="matrix(1, 0, 0, 1, 16, 818)"><g clip-path="url(#c3bb1d393a)"><g clip-path="url(#8f46731fcc)"><path fill="#cdcdcd" d="M 0.644531 0.113281 L 4.363281 0.113281 L 4.363281 9.339844 L 0.644531 9.339844 Z M 0.644531 0.113281 " fill-opacity="1" fill-rule="nonzero"/></g></g></g></g><g clip-path="url(#36128755bf)"><g transform="matrix(1, 0, 0, 1, 16, 831)"><g clip-path="url(#772f22cf04)"><g clip-path="url(#92be639850)"><path fill="#cdcdcd" d="M 0.644531 0.0390625 L 4.363281 0.0390625 L 4.363281 9.265625 L 0.644531 9.265625 Z M 0.644531 0.0390625 " fill-opacity="1" fill-rule="nonzero"/></g></g></g></g><g clip-path="url(#1d5b8bf504)"><g transform="matrix(1, 0, 0, 1, 16, 843)"><g clip-path="url(#633a5ea8c0)"><g clip-path="url(#f0a21fc01c)"><path fill="#cdcdcd" d="M 0.644531 0.984375 L 4.363281 0.984375 L 4.363281 10.214844 L 0.644531 10.214844 Z M 0.644531 0.984375 " fill-opacity="1" fill-rule="nonzero"/></g></g></g></g><g clip-path="url(#3d71978dbe)"><g clip-path="url(#ded6fc7c86)"><g transform="matrix(1, 0, 0, 1, 13, 869)"><g clip-path="url(#7f4b359f50)"><g clip-path="url(#49dc12b92d)"><g clip-path="url(#80e7e45a58)"><path fill="#cdcdcd" d="M 0.0625 0.496094 L 10.945312 0.496094 L 10.945312 11.378906 L 0.0625 11.378906 Z M 0.0625 0.496094 " fill-opacity="1" fill-rule="nonzero"/></g></g></g></g></g></g><g clip-path="url(#d028b11c8e)"><g transform="matrix(1, 0, 0, 1, 16, 856)"><g clip-path="url(#cf2c093bd3)"><g clip-path="url(#923e0d3741)"><path fill="#cdcdcd" d="M 0.644531 0.914062 L 4.363281 0.914062 L 4.363281 10.140625 L 0.644531 10.140625 Z M 0.644531 0.914062 " fill-opacity="1" fill-rule="nonzero"/></g></g></g></g><g clip-path="url(#d69cee8d5f)"><g transform="matrix(1, 0, 0, 1, 16, 884)"><g clip-path="url(#daa23028d7)"><g clip-path="url(#85eefddef0)"><path fill="#cdcdcd" d="M 0.644531 0.0820312 L 4.363281 0.0820312 L 4.363281 9.308594 L 0.644531 9.308594 Z M 0.644531 0.0820312 " fill-opacity="1" fill-rule="nonzero"/></g></g></g></g></svg>