<svg xmlns="http://www.w3.org/2000/svg" xmlns:xlink="http://www.w3.org/1999/xlink" width="50" zoomAndPan="magnify" viewBox="0 0 37.5 1500" height="2000" preserveAspectRatio="xMidYMid meet" version="1.0"><defs><clipPath id="0b58223d03"><path d="M 16.644531 9.867188 L 20.363281 9.867188 L 20.363281 19.09375 L 16.644531 19.09375 Z M 16.644531 9.867188 " clip-rule="nonzero"/></clipPath><clipPath id="971460578d"><path d="M 0.644531 0.867188 L 4.363281 0.867188 L 4.363281 10.09375 L 0.644531 10.09375 Z M 0.644531 0.867188 " clip-rule="nonzero"/></clipPath><clipPath id="a9ceadd94b"><rect x="0" width="5" y="0" height="11"/></clipPath><clipPath id="9fa40f0b59"><path d="M 16.644531 35.722656 L 20.363281 35.722656 L 20.363281 44.949219 L 16.644531 44.949219 Z M 16.644531 35.722656 " clip-rule="nonzero"/></clipPath><clipPath id="d941de7c33"><path d="M 0.644531 0.722656 L 4.363281 0.722656 L 4.363281 9.949219 L 0.644531 9.949219 Z M 0.644531 0.722656 " clip-rule="nonzero"/></clipPath><clipPath id="f801ecab6a"><rect x="0" width="5" y="0" height="10"/></clipPath><clipPath id="f4625d885e"><path d="M 16.644531 48.667969 L 20.363281 48.667969 L 20.363281 57.894531 L 16.644531 57.894531 Z M 16.644531 48.667969 " clip-rule="nonzero"/></clipPath><clipPath id="7e4dcac841"><path d="M 0.644531 0.667969 L 4.363281 0.667969 L 4.363281 9.894531 L 0.644531 9.894531 Z M 0.644531 0.667969 " clip-rule="nonzero"/></clipPath><clipPath id="69a146e5b7"><rect x="0" width="5" y="0" height="10"/></clipPath><clipPath id="c28613b53e"><path d="M 16.644531 61.613281 L 20.363281 61.613281 L 20.363281 70.839844 L 16.644531 70.839844 Z M 16.644531 61.613281 " clip-rule="nonzero"/></clipPath><clipPath id="90b2795126"><path d="M 0.644531 0.613281 L 4.363281 0.613281 L 4.363281 9.839844 L 0.644531 9.839844 Z M 0.644531 0.613281 " clip-rule="nonzero"/></clipPath><clipPath id="9daf6c82e6"><rect x="0" width="5" y="0" height="10"/></clipPath><clipPath id="b6291d8030"><path d="M 16.644531 22.796875 L 20.363281 22.796875 L 20.363281 32.019531 L 16.644531 32.019531 Z M 16.644531 22.796875 " clip-rule="nonzero"/></clipPath><clipPath id="5d197c4c45"><path d="M 0.644531 0.796875 L 4.363281 0.796875 L 4.363281 10.019531 L 0.644531 10.019531 Z M 0.644531 0.796875 " clip-rule="nonzero"/></clipPath><clipPath id="4f14b792b0"><rect x="0" width="5" y="0" height="11"/></clipPath><clipPath id="d23db0d80f"><path d="M 13.0625 74.542969 L 23.945312 74.542969 L 23.945312 85.425781 L 13.0625 85.425781 Z M 13.0625 74.542969 " clip-rule="nonzero"/></clipPath><clipPath id="cad016c0bc"><path d="M 18.503906 74.542969 C 15.496094 74.542969 13.0625 76.976562 13.0625 79.984375 C 13.0625 82.988281 15.496094 85.425781 18.503906 85.425781 C 21.507812 85.425781 23.945312 82.988281 23.945312 79.984375 C 23.945312 76.976562 21.507812 74.542969 18.503906 74.542969 Z M 18.503906 74.542969 " clip-rule="nonzero"/></clipPath><clipPath id="7831b193c4"><path d="M 0.0625 0.542969 L 10.945312 0.542969 L 10.945312 11.425781 L 0.0625 11.425781 Z M 0.0625 0.542969 " clip-rule="nonzero"/></clipPath><clipPath id="b7d21325fc"><path d="M 5.503906 0.542969 C 2.496094 0.542969 0.0625 2.976562 0.0625 5.984375 C 0.0625 8.988281 2.496094 11.425781 5.503906 11.425781 C 8.507812 11.425781 10.945312 8.988281 10.945312 5.984375 C 10.945312 2.976562 8.507812 0.542969 5.503906 0.542969 Z M 5.503906 0.542969 " clip-rule="nonzero"/></clipPath><clipPath id="a845bb047a"><rect x="0" width="11" y="0" height="12"/></clipPath><clipPath id="55fb95e099"><path d="M 16.644531 89.125 L 20.363281 89.125 L 20.363281 98.351562 L 16.644531 98.351562 Z M 16.644531 89.125 " clip-rule="nonzero"/></clipPath><clipPath id="d31220304c"><path d="M 0.644531 0.125 L 4.363281 0.125 L 4.363281 9.351562 L 0.644531 9.351562 Z M 0.644531 0.125 " clip-rule="nonzero"/></clipPath><clipPath id="a39e48582e"><rect x="0" width="5" y="0" height="10"/></clipPath><clipPath id="94b43ebcae"><path d="M 16.644531 102.054688 L 20.363281 102.054688 L 20.363281 111.28125 L 16.644531 111.28125 Z M 16.644531 102.054688 " clip-rule="nonzero"/></clipPath><clipPath id="ccdef160b6"><path d="M 0.644531 0.0546875 L 4.363281 0.0546875 L 4.363281 9.28125 L 0.644531 9.28125 Z M 0.644531 0.0546875 " clip-rule="nonzero"/></clipPath><clipPath id="eace37ab65"><rect x="0" width="5" y="0" height="10"/></clipPath><clipPath id="8e3c12bd41"><path d="M 16.644531 115 L 20.363281 115 L 20.363281 124.226562 L 16.644531 124.226562 Z M 16.644531 115 " clip-rule="nonzero"/></clipPath><clipPath id="04998c8d33"><path d="M 0.644531 0 L 4.363281 0 L 4.363281 9.226562 L 0.644531 9.226562 Z M 0.644531 0 " clip-rule="nonzero"/></clipPath><clipPath id="a6b7d29fd0"><rect x="0" width="5" y="0" height="10"/></clipPath><clipPath id="49e4b76ae1"><path d="M 16.644531 127.945312 L 20.363281 127.945312 L 20.363281 137.171875 L 16.644531 137.171875 Z M 16.644531 127.945312 " clip-rule="nonzero"/></clipPath><clipPath id="d2452185db"><path d="M 0.644531 0.945312 L 4.363281 0.945312 L 4.363281 10.171875 L 0.644531 10.171875 Z M 0.644531 0.945312 " clip-rule="nonzero"/></clipPath><clipPath id="1cd5c860fa"><rect x="0" width="5" y="0" height="11"/></clipPath><clipPath id="bbe2cc5e57"><path d="M 16.644531 140.890625 L 20.363281 140.890625 L 20.363281 150.117188 L 16.644531 150.117188 Z M 16.644531 140.890625 " clip-rule="nonzero"/></clipPath><clipPath id="633ee927c9"><path d="M 0.644531 0.890625 L 4.363281 0.890625 L 4.363281 10.117188 L 0.644531 10.117188 Z M 0.644531 0.890625 " clip-rule="nonzero"/></clipPath><clipPath id="8d70bd0daa"><rect x="0" width="5" y="0" height="11"/></clipPath><clipPath id="decea0ca4d"><path d="M 16.644531 153.839844 L 20.363281 153.839844 L 20.363281 163.066406 L 16.644531 163.066406 Z M 16.644531 153.839844 " clip-rule="nonzero"/></clipPath><clipPath id="a703f5ee0c"><path d="M 0.644531 0.839844 L 4.363281 0.839844 L 4.363281 10.066406 L 0.644531 10.066406 Z M 0.644531 0.839844 " clip-rule="nonzero"/></clipPath><clipPath id="52fbc79075"><rect x="0" width="5" y="0" height="11"/></clipPath><clipPath id="7e01c0ca71"><path d="M 13.0625 218.511719 L 23.945312 218.511719 L 23.945312 229.394531 L 13.0625 229.394531 Z M 13.0625 218.511719 " clip-rule="nonzero"/></clipPath><clipPath id="334a8b5d11"><path d="M 18.503906 218.511719 C 15.496094 218.511719 13.0625 220.949219 13.0625 223.953125 C 13.0625 226.960938 15.496094 229.394531 18.503906 229.394531 C 21.507812 229.394531 23.945312 226.960938 23.945312 223.953125 C 23.945312 220.949219 21.507812 218.511719 18.503906 218.511719 Z M 18.503906 218.511719 " clip-rule="nonzero"/></clipPath><clipPath id="3b7691fa87"><path d="M 0.0625 0.511719 L 10.945312 0.511719 L 10.945312 11.394531 L 0.0625 11.394531 Z M 0.0625 0.511719 " clip-rule="nonzero"/></clipPath><clipPath id="235a981398"><path d="M 5.503906 0.511719 C 2.496094 0.511719 0.0625 2.949219 0.0625 5.953125 C 0.0625 8.960938 2.496094 11.394531 5.503906 11.394531 C 8.507812 11.394531 10.945312 8.960938 10.945312 5.953125 C 10.945312 2.949219 8.507812 0.511719 5.503906 0.511719 Z M 5.503906 0.511719 " clip-rule="nonzero"/></clipPath><clipPath id="918e99ed8e"><rect x="0" width="11" y="0" height="12"/></clipPath><clipPath id="e670e4d28f"><path d="M 16.644531 166.765625 L 20.363281 166.765625 L 20.363281 175.992188 L 16.644531 175.992188 Z M 16.644531 166.765625 " clip-rule="nonzero"/></clipPath><clipPath id="28c00ce1e5"><path d="M 0.644531 0.765625 L 4.363281 0.765625 L 4.363281 9.992188 L 0.644531 9.992188 Z M 0.644531 0.765625 " clip-rule="nonzero"/></clipPath><clipPath id="fcca1e441b"><rect x="0" width="5" y="0" height="10"/></clipPath><clipPath id="db3d1286eb"><path d="M 16.644531 179.710938 L 20.363281 179.710938 L 20.363281 188.9375 L 16.644531 188.9375 Z M 16.644531 179.710938 " clip-rule="nonzero"/></clipPath><clipPath id="cdfdba8d48"><path d="M 0.644531 0.710938 L 4.363281 0.710938 L 4.363281 9.9375 L 0.644531 9.9375 Z M 0.644531 0.710938 " clip-rule="nonzero"/></clipPath><clipPath id="2553f64dc1"><rect x="0" width="5" y="0" height="10"/></clipPath><clipPath id="fd66b124ef"><path d="M 16.644531 192.65625 L 20.363281 192.65625 L 20.363281 201.882812 L 16.644531 201.882812 Z M 16.644531 192.65625 " clip-rule="nonzero"/></clipPath><clipPath id="c254ec167c"><path d="M 0.644531 0.65625 L 4.363281 0.65625 L 4.363281 9.882812 L 0.644531 9.882812 Z M 0.644531 0.65625 " clip-rule="nonzero"/></clipPath><clipPath id="be0ffab26e"><rect x="0" width="5" y="0" height="10"/></clipPath><clipPath id="95772bde6a"><path d="M 16.644531 205.585938 L 20.363281 205.585938 L 20.363281 214.8125 L 16.644531 214.8125 Z M 16.644531 205.585938 " clip-rule="nonzero"/></clipPath><clipPath id="de260fd407"><path d="M 0.644531 0.585938 L 4.363281 0.585938 L 4.363281 9.8125 L 0.644531 9.8125 Z M 0.644531 0.585938 " clip-rule="nonzero"/></clipPath><clipPath id="f3c94373e7"><rect x="0" width="5" y="0" height="10"/></clipPath><clipPath id="274268f900"><path d="M 16.644531 233.097656 L 20.363281 233.097656 L 20.363281 242.324219 L 16.644531 242.324219 Z M 16.644531 233.097656 " clip-rule="nonzero"/></clipPath><clipPath id="08a0a9c258"><path d="M 0.644531 0.0976562 L 4.363281 0.0976562 L 4.363281 9.324219 L 0.644531 9.324219 Z M 0.644531 0.0976562 " clip-rule="nonzero"/></clipPath><clipPath id="ebdd34959f"><rect x="0" width="5" y="0" height="10"/></clipPath><clipPath id="5f1cb36faf"><path d="M 16.644531 246.023438 L 20.363281 246.023438 L 20.363281 255.25 L 16.644531 255.25 Z M 16.644531 246.023438 " clip-rule="nonzero"/></clipPath><clipPath id="2970e416e4"><path d="M 0.644531 0.0234375 L 4.363281 0.0234375 L 4.363281 9.25 L 0.644531 9.25 Z M 0.644531 0.0234375 " clip-rule="nonzero"/></clipPath><clipPath id="0230e382e8"><rect x="0" width="5" y="0" height="10"/></clipPath><clipPath id="de9a0dd0cc"><path d="M 16.644531 258.96875 L 20.363281 258.96875 L 20.363281 268.195312 L 16.644531 268.195312 Z M 16.644531 258.96875 " clip-rule="nonzero"/></clipPath><clipPath id="abf975b807"><path d="M 0.644531 0.96875 L 4.363281 0.96875 L 4.363281 10.195312 L 0.644531 10.195312 Z M 0.644531 0.96875 " clip-rule="nonzero"/></clipPath><clipPath id="f3e1471a77"><rect x="0" width="5" y="0" height="11"/></clipPath><clipPath id="7c20348e66"><path d="M 16.644531 271.917969 L 20.363281 271.917969 L 20.363281 281.140625 L 16.644531 281.140625 Z M 16.644531 271.917969 " clip-rule="nonzero"/></clipPath><clipPath id="52c911d384"><path d="M 0.644531 0.917969 L 4.363281 0.917969 L 4.363281 10.140625 L 0.644531 10.140625 Z M 0.644531 0.917969 " clip-rule="nonzero"/></clipPath><clipPath id="75477aa624"><rect x="0" width="5" y="0" height="11"/></clipPath><clipPath id="966b89046c"><path d="M 16.644531 284.863281 L 20.363281 284.863281 L 20.363281 294.089844 L 16.644531 294.089844 Z M 16.644531 284.863281 " clip-rule="nonzero"/></clipPath><clipPath id="b690827c73"><path d="M 0.644531 0.863281 L 4.363281 0.863281 L 4.363281 10.089844 L 0.644531 10.089844 Z M 0.644531 0.863281 " clip-rule="nonzero"/></clipPath><clipPath id="0102fbbe90"><rect x="0" width="5" y="0" height="11"/></clipPath><clipPath id="4311d5fc01"><path d="M 16.644531 297.808594 L 20.363281 297.808594 L 20.363281 307.035156 L 16.644531 307.035156 Z M 16.644531 297.808594 " clip-rule="nonzero"/></clipPath><clipPath id="43391e7feb"><path d="M 0.644531 0.808594 L 4.363281 0.808594 L 4.363281 10.035156 L 0.644531 10.035156 Z M 0.644531 0.808594 " clip-rule="nonzero"/></clipPath><clipPath id="410c0b7a37"><rect x="0" width="5" y="0" height="11"/></clipPath><clipPath id="00efb9e4fd"><path d="M 16.644531 336.609375 L 20.363281 336.609375 L 20.363281 345.835938 L 16.644531 345.835938 Z M 16.644531 336.609375 " clip-rule="nonzero"/></clipPath><clipPath id="64c7c362f0"><path d="M 0.644531 0.609375 L 4.363281 0.609375 L 4.363281 9.835938 L 0.644531 9.835938 Z M 0.644531 0.609375 " clip-rule="nonzero"/></clipPath><clipPath id="8215eb594f"><rect x="0" width="5" y="0" height="10"/></clipPath><clipPath id="7b3a78a572"><path d="M 16.644531 310.734375 L 20.363281 310.734375 L 20.363281 319.960938 L 16.644531 319.960938 Z M 16.644531 310.734375 " clip-rule="nonzero"/></clipPath><clipPath id="e9cb24f423"><path d="M 0.644531 0.734375 L 4.363281 0.734375 L 4.363281 9.960938 L 0.644531 9.960938 Z M 0.644531 0.734375 " clip-rule="nonzero"/></clipPath><clipPath id="af7816793a"><rect x="0" width="5" y="0" height="10"/></clipPath><clipPath id="c9822bdd5e"><path d="M 16.644531 323.683594 L 20.363281 323.683594 L 20.363281 332.90625 L 16.644531 332.90625 Z M 16.644531 323.683594 " clip-rule="nonzero"/></clipPath><clipPath id="267a888104"><path d="M 0.644531 0.683594 L 4.363281 0.683594 L 4.363281 9.90625 L 0.644531 9.90625 Z M 0.644531 0.683594 " clip-rule="nonzero"/></clipPath><clipPath id="faf303cf8d"><rect x="0" width="5" y="0" height="10"/></clipPath><clipPath id="9604eb7664"><path d="M 16.644531 349.535156 L 20.363281 349.535156 L 20.363281 358.761719 L 16.644531 358.761719 Z M 16.644531 349.535156 " clip-rule="nonzero"/></clipPath><clipPath id="1cc002981c"><path d="M 0.644531 0.535156 L 4.363281 0.535156 L 4.363281 9.761719 L 0.644531 9.761719 Z M 0.644531 0.535156 " clip-rule="nonzero"/></clipPath><clipPath id="7b27ce0ace"><rect x="0" width="5" y="0" height="10"/></clipPath><clipPath id="0c2d25f3b2"><path d="M 13.0625 362.460938 L 23.945312 362.460938 L 23.945312 373.347656 L 13.0625 373.347656 Z M 13.0625 362.460938 " clip-rule="nonzero"/></clipPath><clipPath id="778279cb8a"><path d="M 18.503906 362.460938 C 15.496094 362.460938 13.0625 364.898438 13.0625 367.902344 C 13.0625 370.910156 15.496094 373.347656 18.503906 373.347656 C 21.507812 373.347656 23.945312 370.910156 23.945312 367.902344 C 23.945312 364.898438 21.507812 362.460938 18.503906 362.460938 Z M 18.503906 362.460938 " clip-rule="nonzero"/></clipPath><clipPath id="3ff4f6067d"><path d="M 0.0625 0.460938 L 10.945312 0.460938 L 10.945312 11.347656 L 0.0625 11.347656 Z M 0.0625 0.460938 " clip-rule="nonzero"/></clipPath><clipPath id="4df0434f8f"><path d="M 5.503906 0.460938 C 2.496094 0.460938 0.0625 2.898438 0.0625 5.902344 C 0.0625 8.910156 2.496094 11.347656 5.503906 11.347656 C 8.507812 11.347656 10.945312 8.910156 10.945312 5.902344 C 10.945312 2.898438 8.507812 0.460938 5.503906 0.460938 Z M 5.503906 0.460938 " clip-rule="nonzero"/></clipPath><clipPath id="f4cbeedb8e"><rect x="0" width="11" y="0" height="12"/></clipPath><clipPath id="432b523329"><path d="M 16.644531 377.046875 L 20.363281 377.046875 L 20.363281 386.273438 L 16.644531 386.273438 Z M 16.644531 377.046875 " clip-rule="nonzero"/></clipPath><clipPath id="1d5974f252"><path d="M 0.644531 0.046875 L 4.363281 0.046875 L 4.363281 9.273438 L 0.644531 9.273438 Z M 0.644531 0.046875 " clip-rule="nonzero"/></clipPath><clipPath id="567c66b47a"><rect x="0" width="5" y="0" height="10"/></clipPath><clipPath id="3fbf6a5eb7"><path d="M 16.644531 390.011719 L 20.363281 390.011719 L 20.363281 399.238281 L 16.644531 399.238281 Z M 16.644531 390.011719 " clip-rule="nonzero"/></clipPath><clipPath id="457b8688ed"><path d="M 0.644531 0.0117188 L 4.363281 0.0117188 L 4.363281 9.238281 L 0.644531 9.238281 Z M 0.644531 0.0117188 " clip-rule="nonzero"/></clipPath><clipPath id="d9b187694a"><rect x="0" width="5" y="0" height="10"/></clipPath><clipPath id="f4337ccf24"><path d="M 16.644531 402.960938 L 20.363281 402.960938 L 20.363281 412.183594 L 16.644531 412.183594 Z M 16.644531 402.960938 " clip-rule="nonzero"/></clipPath><clipPath id="e4b500f6e9"><path d="M 0.644531 0.960938 L 4.363281 0.960938 L 4.363281 10.183594 L 0.644531 10.183594 Z M 0.644531 0.960938 " clip-rule="nonzero"/></clipPath><clipPath id="7f855a6892"><rect x="0" width="5" y="0" height="11"/></clipPath><clipPath id="61b1fc75dc"><path d="M 16.644531 415.90625 L 20.363281 415.90625 L 20.363281 425.132812 L 16.644531 425.132812 Z M 16.644531 415.90625 " clip-rule="nonzero"/></clipPath><clipPath id="36bddb1670"><path d="M 0.644531 0.90625 L 4.363281 0.90625 L 4.363281 10.132812 L 0.644531 10.132812 Z M 0.644531 0.90625 " clip-rule="nonzero"/></clipPath><clipPath id="912960da9e"><rect x="0" width="5" y="0" height="11"/></clipPath><clipPath id="8cd1f3e288"><path d="M 16.644531 480.578125 L 20.363281 480.578125 L 20.363281 489.804688 L 16.644531 489.804688 Z M 16.644531 480.578125 " clip-rule="nonzero"/></clipPath><clipPath id="e7ea6c8b7a"><path d="M 0.644531 0.578125 L 4.363281 0.578125 L 4.363281 9.804688 L 0.644531 9.804688 Z M 0.644531 0.578125 " clip-rule="nonzero"/></clipPath><clipPath id="e9ff75a4a5"><rect x="0" width="5" y="0" height="10"/></clipPath><clipPath id="5077e5a2cb"><path d="M 16.644531 428.832031 L 20.363281 428.832031 L 20.363281 438.058594 L 16.644531 438.058594 Z M 16.644531 428.832031 " clip-rule="nonzero"/></clipPath><clipPath id="40b33b594c"><path d="M 0.644531 0.832031 L 4.363281 0.832031 L 4.363281 10.058594 L 0.644531 10.058594 Z M 0.644531 0.832031 " clip-rule="nonzero"/></clipPath><clipPath id="f3185486ea"><rect x="0" width="5" y="0" height="11"/></clipPath><clipPath id="4e58d28114"><path d="M 16.644531 441.777344 L 20.363281 441.777344 L 20.363281 451.003906 L 16.644531 451.003906 Z M 16.644531 441.777344 " clip-rule="nonzero"/></clipPath><clipPath id="aba24d3b42"><path d="M 0.644531 0.777344 L 4.363281 0.777344 L 4.363281 10.003906 L 0.644531 10.003906 Z M 0.644531 0.777344 " clip-rule="nonzero"/></clipPath><clipPath id="487bd0c2db"><rect x="0" width="5" y="0" height="11"/></clipPath><clipPath id="de636560f5"><path d="M 16.644531 454.726562 L 20.363281 454.726562 L 20.363281 463.949219 L 16.644531 463.949219 Z M 16.644531 454.726562 " clip-rule="nonzero"/></clipPath><clipPath id="454dcc0be7"><path d="M 0.644531 0.726562 L 4.363281 0.726562 L 4.363281 9.949219 L 0.644531 9.949219 Z M 0.644531 0.726562 " clip-rule="nonzero"/></clipPath><clipPath id="c9c35100a5"><rect x="0" width="5" y="0" height="10"/></clipPath><clipPath id="524f5937fc"><path d="M 16.644531 467.652344 L 20.363281 467.652344 L 20.363281 476.878906 L 16.644531 476.878906 Z M 16.644531 467.652344 " clip-rule="nonzero"/></clipPath><clipPath id="f750b0af0a"><path d="M 0.644531 0.652344 L 4.363281 0.652344 L 4.363281 9.878906 L 0.644531 9.878906 Z M 0.644531 0.652344 " clip-rule="nonzero"/></clipPath><clipPath id="5bcc666db9"><rect x="0" width="5" y="0" height="10"/></clipPath><clipPath id="464c5043f8"><path d="M 16.644531 493.503906 L 20.363281 493.503906 L 20.363281 502.730469 L 16.644531 502.730469 Z M 16.644531 493.503906 " clip-rule="nonzero"/></clipPath><clipPath id="5ddfe3ede5"><path d="M 0.644531 0.503906 L 4.363281 0.503906 L 4.363281 9.730469 L 0.644531 9.730469 Z M 0.644531 0.503906 " clip-rule="nonzero"/></clipPath><clipPath id="ec109ccdaf"><rect x="0" width="5" y="0" height="10"/></clipPath><clipPath id="34e5981a24"><path d="M 13.0625 506.433594 L 23.945312 506.433594 L 23.945312 517.316406 L 13.0625 517.316406 Z M 13.0625 506.433594 " clip-rule="nonzero"/></clipPath><clipPath id="3ba94aa716"><path d="M 18.503906 506.433594 C 15.496094 506.433594 13.0625 508.867188 13.0625 511.875 C 13.0625 514.878906 15.496094 517.316406 18.503906 517.316406 C 21.507812 517.316406 23.945312 514.878906 23.945312 511.875 C 23.945312 508.867188 21.507812 506.433594 18.503906 506.433594 Z M 18.503906 506.433594 " clip-rule="nonzero"/></clipPath><clipPath id="dabf1de6f4"><path d="M 0.0625 0.433594 L 10.945312 0.433594 L 10.945312 11.316406 L 0.0625 11.316406 Z M 0.0625 0.433594 " clip-rule="nonzero"/></clipPath><clipPath id="66f29cfccb"><path d="M 5.503906 0.433594 C 2.496094 0.433594 0.0625 2.867188 0.0625 5.875 C 0.0625 8.878906 2.496094 11.316406 5.503906 11.316406 C 8.507812 11.316406 10.945312 8.878906 10.945312 5.875 C 10.945312 2.867188 8.507812 0.433594 5.503906 0.433594 Z M 5.503906 0.433594 " clip-rule="nonzero"/></clipPath><clipPath id="565075a765"><rect x="0" width="11" y="0" height="12"/></clipPath><clipPath id="88c06082db"><path d="M 16.644531 521.035156 L 20.363281 521.035156 L 20.363281 530.261719 L 16.644531 530.261719 Z M 16.644531 521.035156 " clip-rule="nonzero"/></clipPath><clipPath id="86ffe339dc"><path d="M 0.644531 0.0351562 L 4.363281 0.0351562 L 4.363281 9.261719 L 0.644531 9.261719 Z M 0.644531 0.0351562 " clip-rule="nonzero"/></clipPath><clipPath id="52177a00d5"><rect x="0" width="5" y="0" height="10"/></clipPath><clipPath id="8e9729ae41"><path d="M 16.644531 533.984375 L 20.363281 533.984375 L 20.363281 543.210938 L 16.644531 543.210938 Z M 16.644531 533.984375 " clip-rule="nonzero"/></clipPath><clipPath id="82ddcd1c31"><path d="M 0.644531 0.984375 L 4.363281 0.984375 L 4.363281 10.210938 L 0.644531 10.210938 Z M 0.644531 0.984375 " clip-rule="nonzero"/></clipPath><clipPath id="85d34f49cb"><rect x="0" width="5" y="0" height="11"/></clipPath><clipPath id="499c964787"><path d="M 16.644531 546.929688 L 20.363281 546.929688 L 20.363281 556.15625 L 16.644531 556.15625 Z M 16.644531 546.929688 " clip-rule="nonzero"/></clipPath><clipPath id="b3e61c3988"><path d="M 0.644531 0.929688 L 4.363281 0.929688 L 4.363281 10.15625 L 0.644531 10.15625 Z M 0.644531 0.929688 " clip-rule="nonzero"/></clipPath><clipPath id="ea64df86fd"><rect x="0" width="5" y="0" height="11"/></clipPath><clipPath id="ac66dfb7a8"><path d="M 16.644531 559.875 L 20.363281 559.875 L 20.363281 569.101562 L 16.644531 569.101562 Z M 16.644531 559.875 " clip-rule="nonzero"/></clipPath><clipPath id="5553914d88"><path d="M 0.644531 0.875 L 4.363281 0.875 L 4.363281 10.101562 L 0.644531 10.101562 Z M 0.644531 0.875 " clip-rule="nonzero"/></clipPath><clipPath id="82fcff1ad3"><rect x="0" width="5" y="0" height="11"/></clipPath><clipPath id="486e012115"><path d="M 16.644531 624.546875 L 20.363281 624.546875 L 20.363281 633.773438 L 16.644531 633.773438 Z M 16.644531 624.546875 " clip-rule="nonzero"/></clipPath><clipPath id="f2e9f5dcb4"><path d="M 0.644531 0.546875 L 4.363281 0.546875 L 4.363281 9.773438 L 0.644531 9.773438 Z M 0.644531 0.546875 " clip-rule="nonzero"/></clipPath><clipPath id="ed344a37e2"><rect x="0" width="5" y="0" height="10"/></clipPath><clipPath id="2a03733c92"><path d="M 16.644531 572.800781 L 20.363281 572.800781 L 20.363281 582.027344 L 16.644531 582.027344 Z M 16.644531 572.800781 " clip-rule="nonzero"/></clipPath><clipPath id="f7ff2d8cef"><path d="M 0.644531 0.800781 L 4.363281 0.800781 L 4.363281 10.027344 L 0.644531 10.027344 Z M 0.644531 0.800781 " clip-rule="nonzero"/></clipPath><clipPath id="bb6305d2db"><rect x="0" width="5" y="0" height="11"/></clipPath><clipPath id="1ebfe7c739"><path d="M 16.644531 585.75 L 20.363281 585.75 L 20.363281 594.976562 L 16.644531 594.976562 Z M 16.644531 585.75 " clip-rule="nonzero"/></clipPath><clipPath id="9afd0ca546"><path d="M 0.644531 0.75 L 4.363281 0.75 L 4.363281 9.976562 L 0.644531 9.976562 Z M 0.644531 0.75 " clip-rule="nonzero"/></clipPath><clipPath id="e4be73f9a7"><rect x="0" width="5" y="0" height="10"/></clipPath><clipPath id="209d1b8cf5"><path d="M 16.644531 598.695312 L 20.363281 598.695312 L 20.363281 607.921875 L 16.644531 607.921875 Z M 16.644531 598.695312 " clip-rule="nonzero"/></clipPath><clipPath id="02a5b1a7df"><path d="M 0.644531 0.695312 L 4.363281 0.695312 L 4.363281 9.921875 L 0.644531 9.921875 Z M 0.644531 0.695312 " clip-rule="nonzero"/></clipPath><clipPath id="5ff6e2c508"><rect x="0" width="5" y="0" height="10"/></clipPath><clipPath id="b2ed748288"><path d="M 16.644531 611.621094 L 20.363281 611.621094 L 20.363281 620.847656 L 16.644531 620.847656 Z M 16.644531 611.621094 " clip-rule="nonzero"/></clipPath><clipPath id="1c3b215d1c"><path d="M 0.644531 0.621094 L 4.363281 0.621094 L 4.363281 9.847656 L 0.644531 9.847656 Z M 0.644531 0.621094 " clip-rule="nonzero"/></clipPath><clipPath id="d23b118044"><rect x="0" width="5" y="0" height="10"/></clipPath><clipPath id="06ab015931"><path d="M 16.644531 637.476562 L 20.363281 637.476562 L 20.363281 646.703125 L 16.644531 646.703125 Z M 16.644531 637.476562 " clip-rule="nonzero"/></clipPath><clipPath id="380f0fa069"><path d="M 0.644531 0.476562 L 4.363281 0.476562 L 4.363281 9.703125 L 0.644531 9.703125 Z M 0.644531 0.476562 " clip-rule="nonzero"/></clipPath><clipPath id="eb86b3f488"><rect x="0" width="5" y="0" height="10"/></clipPath><clipPath id="111ed7c2d0"><path d="M 16.644531 650.402344 L 20.363281 650.402344 L 20.363281 659.628906 L 16.644531 659.628906 Z M 16.644531 650.402344 " clip-rule="nonzero"/></clipPath><clipPath id="cfb951cfe3"><path d="M 0.644531 0.402344 L 4.363281 0.402344 L 4.363281 9.628906 L 0.644531 9.628906 Z M 0.644531 0.402344 " clip-rule="nonzero"/></clipPath><clipPath id="cdadee97b7"><rect x="0" width="5" y="0" height="10"/></clipPath><clipPath id="1c9a051349"><path d="M 13.0625 663.347656 L 23.945312 663.347656 L 23.945312 674.234375 L 13.0625 674.234375 Z M 13.0625 663.347656 " clip-rule="nonzero"/></clipPath><clipPath id="364d74fc08"><path d="M 18.503906 663.347656 C 15.496094 663.347656 13.0625 665.785156 13.0625 668.789062 C 13.0625 671.796875 15.496094 674.234375 18.503906 674.234375 C 21.507812 674.234375 23.945312 671.796875 23.945312 668.789062 C 23.945312 665.785156 21.507812 663.347656 18.503906 663.347656 Z M 18.503906 663.347656 " clip-rule="nonzero"/></clipPath><clipPath id="48cc6426d7"><path d="M 0.0625 0.347656 L 10.945312 0.347656 L 10.945312 11.234375 L 0.0625 11.234375 Z M 0.0625 0.347656 " clip-rule="nonzero"/></clipPath><clipPath id="97cc7da7ac"><path d="M 5.503906 0.347656 C 2.496094 0.347656 0.0625 2.785156 0.0625 5.789062 C 0.0625 8.796875 2.496094 11.234375 5.503906 11.234375 C 8.507812 11.234375 10.945312 8.796875 10.945312 5.789062 C 10.945312 2.785156 8.507812 0.347656 5.503906 0.347656 Z M 5.503906 0.347656 " clip-rule="nonzero"/></clipPath><clipPath id="1e6f06fba5"><rect x="0" width="11" y="0" height="12"/></clipPath><clipPath id="bb827f349e"><path d="M 16.644531 677.953125 L 20.363281 677.953125 L 20.363281 687.179688 L 16.644531 687.179688 Z M 16.644531 677.953125 " clip-rule="nonzero"/></clipPath><clipPath id="8c64bc77eb"><path d="M 0.644531 0.953125 L 4.363281 0.953125 L 4.363281 10.179688 L 0.644531 10.179688 Z M 0.644531 0.953125 " clip-rule="nonzero"/></clipPath><clipPath id="294df2e98a"><rect x="0" width="5" y="0" height="11"/></clipPath><clipPath id="d8c50ad9d0"><path d="M 16.644531 690.898438 L 20.363281 690.898438 L 20.363281 700.125 L 16.644531 700.125 Z M 16.644531 690.898438 " clip-rule="nonzero"/></clipPath><clipPath id="a31abd65d2"><path d="M 0.644531 0.898438 L 4.363281 0.898438 L 4.363281 10.125 L 0.644531 10.125 Z M 0.644531 0.898438 " clip-rule="nonzero"/></clipPath><clipPath id="697534bf01"><rect x="0" width="5" y="0" height="11"/></clipPath><clipPath id="6498b2730a"><path d="M 16.644531 703.847656 L 20.363281 703.847656 L 20.363281 713.070312 L 16.644531 713.070312 Z M 16.644531 703.847656 " clip-rule="nonzero"/></clipPath><clipPath id="be9769b93d"><path d="M 0.644531 0.847656 L 4.363281 0.847656 L 4.363281 10.070312 L 0.644531 10.070312 Z M 0.644531 0.847656 " clip-rule="nonzero"/></clipPath><clipPath id="fa929f5d5f"><rect x="0" width="5" y="0" height="11"/></clipPath><clipPath id="b108c92318"><path d="M 16.644531 794.390625 L 20.363281 794.390625 L 20.363281 803.617188 L 16.644531 803.617188 Z M 16.644531 794.390625 " clip-rule="nonzero"/></clipPath><clipPath id="8184467db6"><path d="M 0.644531 0.390625 L 4.363281 0.390625 L 4.363281 9.617188 L 0.644531 9.617188 Z M 0.644531 0.390625 " clip-rule="nonzero"/></clipPath><clipPath id="25c19fe701"><rect x="0" width="5" y="0" height="10"/></clipPath><clipPath id="4ade4799fb"><path d="M 16.644531 716.773438 L 20.363281 716.773438 L 20.363281 726 L 16.644531 726 Z M 16.644531 716.773438 " clip-rule="nonzero"/></clipPath><clipPath id="e210dee00a"><path d="M 0.644531 0.773438 L 4.363281 0.773438 L 4.363281 10 L 0.644531 10 Z M 0.644531 0.773438 " clip-rule="nonzero"/></clipPath><clipPath id="981315af1a"><rect x="0" width="5" y="0" height="10"/></clipPath><clipPath id="24574f1498"><path d="M 16.644531 729.71875 L 20.363281 729.71875 L 20.363281 738.945312 L 16.644531 738.945312 Z M 16.644531 729.71875 " clip-rule="nonzero"/></clipPath><clipPath id="7a85220e9c"><path d="M 0.644531 0.71875 L 4.363281 0.71875 L 4.363281 9.945312 L 0.644531 9.945312 Z M 0.644531 0.71875 " clip-rule="nonzero"/></clipPath><clipPath id="fad5653431"><rect x="0" width="5" y="0" height="10"/></clipPath><clipPath id="da3ec6ef25"><path d="M 16.644531 742.664062 L 20.363281 742.664062 L 20.363281 751.890625 L 16.644531 751.890625 Z M 16.644531 742.664062 " clip-rule="nonzero"/></clipPath><clipPath id="f71c6744fc"><path d="M 0.644531 0.664062 L 4.363281 0.664062 L 4.363281 9.890625 L 0.644531 9.890625 Z M 0.644531 0.664062 " clip-rule="nonzero"/></clipPath><clipPath id="db4544c330"><rect x="0" width="5" y="0" height="10"/></clipPath><clipPath id="bafbfd484b"><path d="M 16.644531 755.59375 L 20.363281 755.59375 L 20.363281 764.816406 L 16.644531 764.816406 Z M 16.644531 755.59375 " clip-rule="nonzero"/></clipPath><clipPath id="3c0c9cb5d5"><path d="M 0.644531 0.59375 L 4.363281 0.59375 L 4.363281 9.816406 L 0.644531 9.816406 Z M 0.644531 0.59375 " clip-rule="nonzero"/></clipPath><clipPath id="f8542d7fef"><rect x="0" width="5" y="0" height="10"/></clipPath><clipPath id="db8cf7a5ba"><path d="M 16.644531 768.539062 L 20.363281 768.539062 L 20.363281 777.765625 L 16.644531 777.765625 Z M 16.644531 768.539062 " clip-rule="nonzero"/></clipPath><clipPath id="381fa5faf7"><path d="M 0.644531 0.539062 L 4.363281 0.539062 L 4.363281 9.765625 L 0.644531 9.765625 Z M 0.644531 0.539062 " clip-rule="nonzero"/></clipPath><clipPath id="07a878004f"><rect x="0" width="5" y="0" height="10"/></clipPath><clipPath id="b3f7a3cf6c"><path d="M 16.644531 781.464844 L 20.363281 781.464844 L 20.363281 790.691406 L 16.644531 790.691406 Z M 16.644531 781.464844 " clip-rule="nonzero"/></clipPath><clipPath id="507495f249"><path d="M 0.644531 0.464844 L 4.363281 0.464844 L 4.363281 9.691406 L 0.644531 9.691406 Z M 0.644531 0.464844 " clip-rule="nonzero"/></clipPath><clipPath id="4129710301"><rect x="0" width="5" y="0" height="10"/></clipPath><clipPath id="93c1b699fe"><path d="M 16.644531 807.320312 L 20.363281 807.320312 L 20.363281 816.542969 L 16.644531 816.542969 Z M 16.644531 807.320312 " clip-rule="nonzero"/></clipPath><clipPath id="9d05ab128e"><path d="M 0.644531 0.320312 L 4.363281 0.320312 L 4.363281 9.542969 L 0.644531 9.542969 Z M 0.644531 0.320312 " clip-rule="nonzero"/></clipPath><clipPath id="96df1f1c22"><rect x="0" width="5" y="0" height="10"/></clipPath><clipPath id="7fb24bc9df"><path d="M 13.0625 820.265625 L 23.945312 820.265625 L 23.945312 831.148438 L 13.0625 831.148438 Z M 13.0625 820.265625 " clip-rule="nonzero"/></clipPath><clipPath id="da82fb56f3"><path d="M 18.503906 820.265625 C 15.496094 820.265625 13.0625 822.703125 13.0625 825.707031 C 13.0625 828.714844 15.496094 831.148438 18.503906 831.148438 C 21.507812 831.148438 23.945312 828.714844 23.945312 825.707031 C 23.945312 822.703125 21.507812 820.265625 18.503906 820.265625 Z M 18.503906 820.265625 " clip-rule="nonzero"/></clipPath><clipPath id="8cb347874d"><path d="M 0.0625 0.265625 L 10.945312 0.265625 L 10.945312 11.148438 L 0.0625 11.148438 Z M 0.0625 0.265625 " clip-rule="nonzero"/></clipPath><clipPath id="7ec85722b7"><path d="M 5.503906 0.265625 C 2.496094 0.265625 0.0625 2.703125 0.0625 5.707031 C 0.0625 8.714844 2.496094 11.148438 5.503906 11.148438 C 8.507812 11.148438 10.945312 8.714844 10.945312 5.707031 C 10.945312 2.703125 8.507812 0.265625 5.503906 0.265625 Z M 5.503906 0.265625 " clip-rule="nonzero"/></clipPath><clipPath id="08428043dd"><rect x="0" width="11" y="0" height="12"/></clipPath><clipPath id="561357ab95"><path d="M 16.644531 834.871094 L 20.363281 834.871094 L 20.363281 844.097656 L 16.644531 844.097656 Z M 16.644531 834.871094 " clip-rule="nonzero"/></clipPath><clipPath id="c52f9be4d1"><path d="M 0.644531 0.871094 L 4.363281 0.871094 L 4.363281 10.097656 L 0.644531 10.097656 Z M 0.644531 0.871094 " clip-rule="nonzero"/></clipPath><clipPath id="06db676865"><rect x="0" width="5" y="0" height="11"/></clipPath><clipPath id="432ab6c960"><path d="M 16.644531 847.816406 L 20.363281 847.816406 L 20.363281 857.042969 L 16.644531 857.042969 Z M 16.644531 847.816406 " clip-rule="nonzero"/></clipPath><clipPath id="01ede56e69"><path d="M 0.644531 0.816406 L 4.363281 0.816406 L 4.363281 10.042969 L 0.644531 10.042969 Z M 0.644531 0.816406 " clip-rule="nonzero"/></clipPath><clipPath id="b5470f52fb"><rect x="0" width="5" y="0" height="11"/></clipPath><clipPath id="59e1ae20ae"><path d="M 13.0625 964.234375 L 23.945312 964.234375 L 23.945312 975.121094 L 13.0625 975.121094 Z M 13.0625 964.234375 " clip-rule="nonzero"/></clipPath><clipPath id="409249e632"><path d="M 18.503906 964.234375 C 15.496094 964.234375 13.0625 966.671875 13.0625 969.675781 C 13.0625 972.683594 15.496094 975.121094 18.503906 975.121094 C 21.507812 975.121094 23.945312 972.683594 23.945312 969.675781 C 23.945312 966.671875 21.507812 964.234375 18.503906 964.234375 Z M 18.503906 964.234375 " clip-rule="nonzero"/></clipPath><clipPath id="c90e3aa79e"><path d="M 0.0625 0.234375 L 10.945312 0.234375 L 10.945312 11.121094 L 0.0625 11.121094 Z M 0.0625 0.234375 " clip-rule="nonzero"/></clipPath><clipPath id="6948baba45"><path d="M 5.503906 0.234375 C 2.496094 0.234375 0.0625 2.671875 0.0625 5.675781 C 0.0625 8.683594 2.496094 11.121094 5.503906 11.121094 C 8.507812 11.121094 10.945312 8.683594 10.945312 5.675781 C 10.945312 2.671875 8.507812 0.234375 5.503906 0.234375 Z M 5.503906 0.234375 " clip-rule="nonzero"/></clipPath><clipPath id="d91a4d68f1"><rect x="0" width="11" y="0" height="12"/></clipPath><clipPath id="be39248bd8"><path d="M 16.644531 860.742188 L 20.363281 860.742188 L 20.363281 869.96875 L 16.644531 869.96875 Z M 16.644531 860.742188 " clip-rule="nonzero"/></clipPath><clipPath id="005e65b3f6"><path d="M 0.644531 0.742188 L 4.363281 0.742188 L 4.363281 9.96875 L 0.644531 9.96875 Z M 0.644531 0.742188 " clip-rule="nonzero"/></clipPath><clipPath id="b2ce7ef841"><rect x="0" width="5" y="0" height="10"/></clipPath><clipPath id="174ca72f9a"><path d="M 16.644531 873.6875 L 20.363281 873.6875 L 20.363281 882.914062 L 16.644531 882.914062 Z M 16.644531 873.6875 " clip-rule="nonzero"/></clipPath><clipPath id="175bdb2615"><path d="M 0.644531 0.6875 L 4.363281 0.6875 L 4.363281 9.914062 L 0.644531 9.914062 Z M 0.644531 0.6875 " clip-rule="nonzero"/></clipPath><clipPath id="18bebceca1"><rect x="0" width="5" y="0" height="10"/></clipPath><clipPath id="3c0961fa9e"><path d="M 16.644531 886.636719 L 20.363281 886.636719 L 20.363281 895.863281 L 16.644531 895.863281 Z M 16.644531 886.636719 " clip-rule="nonzero"/></clipPath><clipPath id="3300f85d5e"><path d="M 0.644531 0.636719 L 4.363281 0.636719 L 4.363281 9.863281 L 0.644531 9.863281 Z M 0.644531 0.636719 " clip-rule="nonzero"/></clipPath><clipPath id="d3ddf5c446"><rect x="0" width="5" y="0" height="10"/></clipPath><clipPath id="7eafe35f2d"><path d="M 16.644531 899.5625 L 20.363281 899.5625 L 20.363281 908.789062 L 16.644531 908.789062 Z M 16.644531 899.5625 " clip-rule="nonzero"/></clipPath><clipPath id="4471862dab"><path d="M 0.644531 0.5625 L 4.363281 0.5625 L 4.363281 9.789062 L 0.644531 9.789062 Z M 0.644531 0.5625 " clip-rule="nonzero"/></clipPath><clipPath id="5aded6d754"><rect x="0" width="5" y="0" height="10"/></clipPath><clipPath id="6f53fcbc9f"><path d="M 16.644531 912.507812 L 20.363281 912.507812 L 20.363281 921.734375 L 16.644531 921.734375 Z M 16.644531 912.507812 " clip-rule="nonzero"/></clipPath><clipPath id="584fecfd3a"><path d="M 0.644531 0.507812 L 4.363281 0.507812 L 4.363281 9.734375 L 0.644531 9.734375 Z M 0.644531 0.507812 " clip-rule="nonzero"/></clipPath><clipPath id="519a4611c1"><rect x="0" width="5" y="0" height="10"/></clipPath><clipPath id="3f18fcf501"><path d="M 16.644531 925.433594 L 20.363281 925.433594 L 20.363281 934.660156 L 16.644531 934.660156 Z M 16.644531 925.433594 " clip-rule="nonzero"/></clipPath><clipPath id="702e3b4e89"><path d="M 0.644531 0.433594 L 4.363281 0.433594 L 4.363281 9.660156 L 0.644531 9.660156 Z M 0.644531 0.433594 " clip-rule="nonzero"/></clipPath><clipPath id="77c93a3c2f"><rect x="0" width="5" y="0" height="10"/></clipPath><clipPath id="a5673479dc"><path d="M 16.644531 938.363281 L 20.363281 938.363281 L 20.363281 947.589844 L 16.644531 947.589844 Z M 16.644531 938.363281 " clip-rule="nonzero"/></clipPath><clipPath id="89ad1f636c"><path d="M 0.644531 0.363281 L 4.363281 0.363281 L 4.363281 9.589844 L 0.644531 9.589844 Z M 0.644531 0.363281 " clip-rule="nonzero"/></clipPath><clipPath id="858c7894c4"><rect x="0" width="5" y="0" height="10"/></clipPath><clipPath id="8ae261d731"><path d="M 16.644531 951.308594 L 20.363281 951.308594 L 20.363281 960.535156 L 16.644531 960.535156 Z M 16.644531 951.308594 " clip-rule="nonzero"/></clipPath><clipPath id="514ef68cb8"><path d="M 0.644531 0.308594 L 4.363281 0.308594 L 4.363281 9.535156 L 0.644531 9.535156 Z M 0.644531 0.308594 " clip-rule="nonzero"/></clipPath><clipPath id="e6e9878393"><rect x="0" width="5" y="0" height="10"/></clipPath></defs><g clip-path="url(#0b58223d03)"><g transform="matrix(1, 0, 0, 1, 16, 9)"><g clip-path="url(#a9ceadd94b)"><g clip-path="url(#971460578d)"><path fill="#cdcdcd" d="M 0.644531 0.867188 L 4.363281 0.867188 L 4.363281 10.097656 L 0.644531 10.097656 Z M 0.644531 0.867188 " fill-opacity="1" fill-rule="nonzero"/></g></g></g></g><g clip-path="url(#9fa40f0b59)"><g transform="matrix(1, 0, 0, 1, 16, 35)"><g clip-path="url(#f801ecab6a)"><g clip-path="url(#d941de7c33)"><path fill="#cdcdcd" d="M 0.644531 0.722656 L 4.363281 0.722656 L 4.363281 9.949219 L 0.644531 9.949219 Z M 0.644531 0.722656 " fill-opacity="1" fill-rule="nonzero"/></g></g></g></g><g clip-path="url(#f4625d885e)"><g transform="matrix(1, 0, 0, 1, 16, 48)"><g clip-path="url(#69a146e5b7)"><g clip-path="url(#7e4dcac841)"><path fill="#cdcdcd" d="M 0.644531 0.667969 L 4.363281 0.667969 L 4.363281 9.894531 L 0.644531 9.894531 Z M 0.644531 0.667969 " fill-opacity="1" fill-rule="nonzero"/></g></g></g></g><g clip-path="url(#c28613b53e)"><g transform="matrix(1, 0, 0, 1, 16, 61)"><g clip-path="url(#9daf6c82e6)"><g clip-path="url(#90b2795126)"><path fill="#cdcdcd" d="M 0.644531 0.613281 L 4.363281 0.613281 L 4.363281 9.84375 L 0.644531 9.84375 Z M 0.644531 0.613281 " fill-opacity="1" fill-rule="nonzero"/></g></g></g></g><g clip-path="url(#b6291d8030)"><g transform="matrix(1, 0, 0, 1, 16, 22)"><g clip-path="url(#4f14b792b0)"><g clip-path="url(#5d197c4c45)"><path fill="#cdcdcd" d="M 0.644531 0.796875 L 4.363281 0.796875 L 4.363281 10.023438 L 0.644531 10.023438 Z M 0.644531 0.796875 " fill-opacity="1" fill-rule="nonzero"/></g></g></g></g><g clip-path="url(#d23db0d80f)"><g clip-path="url(#cad016c0bc)"><g transform="matrix(1, 0, 0, 1, 13, 74)"><g clip-path="url(#a845bb047a)"><g clip-path="url(#7831b193c4)"><g clip-path="url(#b7d21325fc)"><path fill="#cdcdcd" d="M 0.0625 0.542969 L 10.945312 0.542969 L 10.945312 11.425781 L 0.0625 11.425781 Z M 0.0625 0.542969 " fill-opacity="1" fill-rule="nonzero"/></g></g></g></g></g></g><g clip-path="url(#55fb95e099)"><g transform="matrix(1, 0, 0, 1, 16, 89)"><g clip-path="url(#a39e48582e)"><g clip-path="url(#d31220304c)"><path fill="#cdcdcd" d="M 0.644531 0.125 L 4.363281 0.125 L 4.363281 9.355469 L 0.644531 9.355469 Z M 0.644531 0.125 " fill-opacity="1" fill-rule="nonzero"/></g></g></g></g><g clip-path="url(#94b43ebcae)"><g transform="matrix(1, 0, 0, 1, 16, 102)"><g clip-path="url(#eace37ab65)"><g clip-path="url(#ccdef160b6)"><path fill="#cdcdcd" d="M 0.644531 0.0546875 L 4.363281 0.0546875 L 4.363281 9.28125 L 0.644531 9.28125 Z M 0.644531 0.0546875 " fill-opacity="1" fill-rule="nonzero"/></g></g></g></g><g clip-path="url(#8e3c12bd41)"><g transform="matrix(1, 0, 0, 1, 16, 115)"><g clip-path="url(#a6b7d29fd0)"><g clip-path="url(#04998c8d33)"><path fill="#cdcdcd" d="M 0.644531 0 L 4.363281 0 L 4.363281 9.226562 L 0.644531 9.226562 Z M 0.644531 0 " fill-opacity="1" fill-rule="nonzero"/></g></g></g></g><g clip-path="url(#49e4b76ae1)"><g transform="matrix(1, 0, 0, 1, 16, 127)"><g clip-path="url(#1cd5c860fa)"><g clip-path="url(#d2452185db)"><path fill="#cdcdcd" d="M 0.644531 0.945312 L 4.363281 0.945312 L 4.363281 10.171875 L 0.644531 10.171875 Z M 0.644531 0.945312 " fill-opacity="1" fill-rule="nonzero"/></g></g></g></g><g clip-path="url(#bbe2cc5e57)"><g transform="matrix(1, 0, 0, 1, 16, 140)"><g clip-path="url(#8d70bd0daa)"><g clip-path="url(#633ee927c9)"><path fill="#cdcdcd" d="M 0.644531 0.890625 L 4.363281 0.890625 L 4.363281 10.121094 L 0.644531 10.121094 Z M 0.644531 0.890625 " fill-opacity="1" fill-rule="nonzero"/></g></g></g></g><g clip-path="url(#decea0ca4d)"><g transform="matrix(1, 0, 0, 1, 16, 153)"><g clip-path="url(#52fbc79075)"><g clip-path="url(#a703f5ee0c)"><path fill="#cdcdcd" d="M 0.644531 0.839844 L 4.363281 0.839844 L 4.363281 10.066406 L 0.644531 10.066406 Z M 0.644531 0.839844 " fill-opacity="1" fill-rule="nonzero"/></g></g></g></g><g clip-path="url(#7e01c0ca71)"><g clip-path="url(#334a8b5d11)"><g transform="matrix(1, 0, 0, 1, 13, 218)"><g clip-path="url(#918e99ed8e)"><g clip-path="url(#3b7691fa87)"><g clip-path="url(#235a981398)"><path fill="#cdcdcd" d="M 0.0625 0.511719 L 10.945312 0.511719 L 10.945312 11.394531 L 0.0625 11.394531 Z M 0.0625 0.511719 " fill-opacity="1" fill-rule="nonzero"/></g></g></g></g></g></g><g clip-path="url(#e670e4d28f)"><g transform="matrix(1, 0, 0, 1, 16, 166)"><g clip-path="url(#fcca1e441b)"><g clip-path="url(#28c00ce1e5)"><path fill="#cdcdcd" d="M 0.644531 0.765625 L 4.363281 0.765625 L 4.363281 9.992188 L 0.644531 9.992188 Z M 0.644531 0.765625 " fill-opacity="1" fill-rule="nonzero"/></g></g></g></g><g clip-path="url(#db3d1286eb)"><g transform="matrix(1, 0, 0, 1, 16, 179)"><g clip-path="url(#2553f64dc1)"><g clip-path="url(#cdfdba8d48)"><path fill="#cdcdcd" d="M 0.644531 0.710938 L 4.363281 0.710938 L 4.363281 9.9375 L 0.644531 9.9375 Z M 0.644531 0.710938 " fill-opacity="1" fill-rule="nonzero"/></g></g></g></g><g clip-path="url(#fd66b124ef)"><g transform="matrix(1, 0, 0, 1, 16, 192)"><g clip-path="url(#be0ffab26e)"><g clip-path="url(#c254ec167c)"><path fill="#cdcdcd" d="M 0.644531 0.65625 L 4.363281 0.65625 L 4.363281 9.886719 L 0.644531 9.886719 Z M 0.644531 0.65625 " fill-opacity="1" fill-rule="nonzero"/></g></g></g></g><g clip-path="url(#95772bde6a)"><g transform="matrix(1, 0, 0, 1, 16, 205)"><g clip-path="url(#f3c94373e7)"><g clip-path="url(#de260fd407)"><path fill="#cdcdcd" d="M 0.644531 0.585938 L 4.363281 0.585938 L 4.363281 9.8125 L 0.644531 9.8125 Z M 0.644531 0.585938 " fill-opacity="1" fill-rule="nonzero"/></g></g></g></g><g clip-path="url(#274268f900)"><g transform="matrix(1, 0, 0, 1, 16, 233)"><g clip-path="url(#ebdd34959f)"><g clip-path="url(#08a0a9c258)"><path fill="#cdcdcd" d="M 0.644531 0.0976562 L 4.363281 0.0976562 L 4.363281 9.324219 L 0.644531 9.324219 Z M 0.644531 0.0976562 " fill-opacity="1" fill-rule="nonzero"/></g></g></g></g><g clip-path="url(#5f1cb36faf)"><g transform="matrix(1, 0, 0, 1, 16, 246)"><g clip-path="url(#0230e382e8)"><g clip-path="url(#2970e416e4)"><path fill="#cdcdcd" d="M 0.644531 0.0234375 L 4.363281 0.0234375 L 4.363281 9.25 L 0.644531 9.25 Z M 0.644531 0.0234375 " fill-opacity="1" fill-rule="nonzero"/></g></g></g></g><g clip-path="url(#de9a0dd0cc)"><g transform="matrix(1, 0, 0, 1, 16, 258)"><g clip-path="url(#f3e1471a77)"><g clip-path="url(#abf975b807)"><path fill="#cdcdcd" d="M 0.644531 0.96875 L 4.363281 0.96875 L 4.363281 10.195312 L 0.644531 10.195312 Z M 0.644531 0.96875 " fill-opacity="1" fill-rule="nonzero"/></g></g></g></g><g clip-path="url(#7c20348e66)"><g transform="matrix(1, 0, 0, 1, 16, 271)"><g clip-path="url(#75477aa624)"><g clip-path="url(#52c911d384)"><path fill="#cdcdcd" d="M 0.644531 0.917969 L 4.363281 0.917969 L 4.363281 10.144531 L 0.644531 10.144531 Z M 0.644531 0.917969 " fill-opacity="1" fill-rule="nonzero"/></g></g></g></g><g clip-path="url(#966b89046c)"><g transform="matrix(1, 0, 0, 1, 16, 284)"><g clip-path="url(#0102fbbe90)"><g clip-path="url(#b690827c73)"><path fill="#cdcdcd" d="M 0.644531 0.863281 L 4.363281 0.863281 L 4.363281 10.089844 L 0.644531 10.089844 Z M 0.644531 0.863281 " fill-opacity="1" fill-rule="nonzero"/></g></g></g></g><g clip-path="url(#4311d5fc01)"><g transform="matrix(1, 0, 0, 1, 16, 297)"><g clip-path="url(#410c0b7a37)"><g clip-path="url(#43391e7feb)"><path fill="#cdcdcd" d="M 0.644531 0.808594 L 4.363281 0.808594 L 4.363281 10.035156 L 0.644531 10.035156 Z M 0.644531 0.808594 " fill-opacity="1" fill-rule="nonzero"/></g></g></g></g><g clip-path="url(#00efb9e4fd)"><g transform="matrix(1, 0, 0, 1, 16, 336)"><g clip-path="url(#8215eb594f)"><g clip-path="url(#64c7c362f0)"><path fill="#cdcdcd" d="M 0.644531 0.609375 L 4.363281 0.609375 L 4.363281 9.835938 L 0.644531 9.835938 Z M 0.644531 0.609375 " fill-opacity="1" fill-rule="nonzero"/></g></g></g></g><g clip-path="url(#7b3a78a572)"><g transform="matrix(1, 0, 0, 1, 16, 310)"><g clip-path="url(#af7816793a)"><g clip-path="url(#e9cb24f423)"><path fill="#cdcdcd" d="M 0.644531 0.734375 L 4.363281 0.734375 L 4.363281 9.964844 L 0.644531 9.964844 Z M 0.644531 0.734375 " fill-opacity="1" fill-rule="nonzero"/></g></g></g></g><g clip-path="url(#c9822bdd5e)"><g transform="matrix(1, 0, 0, 1, 16, 323)"><g clip-path="url(#faf303cf8d)"><g clip-path="url(#267a888104)"><path fill="#cdcdcd" d="M 0.644531 0.683594 L 4.363281 0.683594 L 4.363281 9.910156 L 0.644531 9.910156 Z M 0.644531 0.683594 " fill-opacity="1" fill-rule="nonzero"/></g></g></g></g><g clip-path="url(#9604eb7664)"><g transform="matrix(1, 0, 0, 1, 16, 349)"><g clip-path="url(#7b27ce0ace)"><g clip-path="url(#1cc002981c)"><path fill="#cdcdcd" d="M 0.644531 0.535156 L 4.363281 0.535156 L 4.363281 9.761719 L 0.644531 9.761719 Z M 0.644531 0.535156 " fill-opacity="1" fill-rule="nonzero"/></g></g></g></g><g clip-path="url(#0c2d25f3b2)"><g clip-path="url(#778279cb8a)"><g transform="matrix(1, 0, 0, 1, 13, 362)"><g clip-path="url(#f4cbeedb8e)"><g clip-path="url(#3ff4f6067d)"><g clip-path="url(#4df0434f8f)"><path fill="#cdcdcd" d="M 0.0625 0.460938 L 10.945312 0.460938 L 10.945312 11.347656 L 0.0625 11.347656 Z M 0.0625 0.460938 " fill-opacity="1" fill-rule="nonzero"/></g></g></g></g></g></g><g clip-path="url(#432b523329)"><g transform="matrix(1, 0, 0, 1, 16, 377)"><g clip-path="url(#567c66b47a)"><g clip-path="url(#1d5974f252)"><path fill="#cdcdcd" d="M 0.644531 0.046875 L 4.363281 0.046875 L 4.363281 9.273438 L 0.644531 9.273438 Z M 0.644531 0.046875 " fill-opacity="1" fill-rule="nonzero"/></g></g></g></g><g clip-path="url(#3fbf6a5eb7)"><g transform="matrix(1, 0, 0, 1, 16, 390)"><g clip-path="url(#d9b187694a)"><g clip-path="url(#457b8688ed)"><path fill="#cdcdcd" d="M 0.644531 0.0117188 L 4.363281 0.0117188 L 4.363281 9.242188 L 0.644531 9.242188 Z M 0.644531 0.0117188 " fill-opacity="1" fill-rule="nonzero"/></g></g></g></g><g clip-path="url(#f4337ccf24)"><g transform="matrix(1, 0, 0, 1, 16, 402)"><g clip-path="url(#7f855a6892)"><g clip-path="url(#e4b500f6e9)"><path fill="#cdcdcd" d="M 0.644531 0.960938 L 4.363281 0.960938 L 4.363281 10.1875 L 0.644531 10.1875 Z M 0.644531 0.960938 " fill-opacity="1" fill-rule="nonzero"/></g></g></g></g><g clip-path="url(#61b1fc75dc)"><g transform="matrix(1, 0, 0, 1, 16, 415)"><g clip-path="url(#912960da9e)"><g clip-path="url(#36bddb1670)"><path fill="#cdcdcd" d="M 0.644531 0.90625 L 4.363281 0.90625 L 4.363281 10.132812 L 0.644531 10.132812 Z M 0.644531 0.90625 " fill-opacity="1" fill-rule="nonzero"/></g></g></g></g><g clip-path="url(#8cd1f3e288)"><g transform="matrix(1, 0, 0, 1, 16, 480)"><g clip-path="url(#e9ff75a4a5)"><g clip-path="url(#e7ea6c8b7a)"><path fill="#cdcdcd" d="M 0.644531 0.578125 L 4.363281 0.578125 L 4.363281 9.804688 L 0.644531 9.804688 Z M 0.644531 0.578125 " fill-opacity="1" fill-rule="nonzero"/></g></g></g></g><g clip-path="url(#5077e5a2cb)"><g transform="matrix(1, 0, 0, 1, 16, 428)"><g clip-path="url(#f3185486ea)"><g clip-path="url(#40b33b594c)"><path fill="#cdcdcd" d="M 0.644531 0.832031 L 4.363281 0.832031 L 4.363281 10.058594 L 0.644531 10.058594 Z M 0.644531 0.832031 " fill-opacity="1" fill-rule="nonzero"/></g></g></g></g><g clip-path="url(#4e58d28114)"><g transform="matrix(1, 0, 0, 1, 16, 441)"><g clip-path="url(#487bd0c2db)"><g clip-path="url(#aba24d3b42)"><path fill="#cdcdcd" d="M 0.644531 0.777344 L 4.363281 0.777344 L 4.363281 10.007812 L 0.644531 10.007812 Z M 0.644531 0.777344 " fill-opacity="1" fill-rule="nonzero"/></g></g></g></g><g clip-path="url(#de636560f5)"><g transform="matrix(1, 0, 0, 1, 16, 454)"><g clip-path="url(#c9c35100a5)"><g clip-path="url(#454dcc0be7)"><path fill="#cdcdcd" d="M 0.644531 0.726562 L 4.363281 0.726562 L 4.363281 9.953125 L 0.644531 9.953125 Z M 0.644531 0.726562 " fill-opacity="1" fill-rule="nonzero"/></g></g></g></g><g clip-path="url(#524f5937fc)"><g transform="matrix(1, 0, 0, 1, 16, 467)"><g clip-path="url(#5bcc666db9)"><g clip-path="url(#f750b0af0a)"><path fill="#cdcdcd" d="M 0.644531 0.652344 L 4.363281 0.652344 L 4.363281 9.878906 L 0.644531 9.878906 Z M 0.644531 0.652344 " fill-opacity="1" fill-rule="nonzero"/></g></g></g></g><g clip-path="url(#464c5043f8)"><g transform="matrix(1, 0, 0, 1, 16, 493)"><g clip-path="url(#ec109ccdaf)"><g clip-path="url(#5ddfe3ede5)"><path fill="#cdcdcd" d="M 0.644531 0.503906 L 4.363281 0.503906 L 4.363281 9.734375 L 0.644531 9.734375 Z M 0.644531 0.503906 " fill-opacity="1" fill-rule="nonzero"/></g></g></g></g><g clip-path="url(#34e5981a24)"><g clip-path="url(#3ba94aa716)"><g transform="matrix(1, 0, 0, 1, 13, 506)"><g clip-path="url(#565075a765)"><g clip-path="url(#dabf1de6f4)"><g clip-path="url(#66f29cfccb)"><path fill="#cdcdcd" d="M 0.0625 0.433594 L 10.945312 0.433594 L 10.945312 11.316406 L 0.0625 11.316406 Z M 0.0625 0.433594 " fill-opacity="1" fill-rule="nonzero"/></g></g></g></g></g></g><g clip-path="url(#88c06082db)"><g transform="matrix(1, 0, 0, 1, 16, 521)"><g clip-path="url(#52177a00d5)"><g clip-path="url(#86ffe339dc)"><path fill="#cdcdcd" d="M 0.644531 0.0351562 L 4.363281 0.0351562 L 4.363281 9.265625 L 0.644531 9.265625 Z M 0.644531 0.0351562 " fill-opacity="1" fill-rule="nonzero"/></g></g></g></g><g clip-path="url(#8e9729ae41)"><g transform="matrix(1, 0, 0, 1, 16, 533)"><g clip-path="url(#85d34f49cb)"><g clip-path="url(#82ddcd1c31)"><path fill="#cdcdcd" d="M 0.644531 0.984375 L 4.363281 0.984375 L 4.363281 10.210938 L 0.644531 10.210938 Z M 0.644531 0.984375 " fill-opacity="1" fill-rule="nonzero"/></g></g></g></g><g clip-path="url(#499c964787)"><g transform="matrix(1, 0, 0, 1, 16, 546)"><g clip-path="url(#ea64df86fd)"><g clip-path="url(#b3e61c3988)"><path fill="#cdcdcd" d="M 0.644531 0.929688 L 4.363281 0.929688 L 4.363281 10.15625 L 0.644531 10.15625 Z M 0.644531 0.929688 " fill-opacity="1" fill-rule="nonzero"/></g></g></g></g><g clip-path="url(#ac66dfb7a8)"><g transform="matrix(1, 0, 0, 1, 16, 559)"><g clip-path="url(#82fcff1ad3)"><g clip-path="url(#5553914d88)"><path fill="#cdcdcd" d="M 0.644531 0.875 L 4.363281 0.875 L 4.363281 10.101562 L 0.644531 10.101562 Z M 0.644531 0.875 " fill-opacity="1" fill-rule="nonzero"/></g></g></g></g><g clip-path="url(#486e012115)"><g transform="matrix(1, 0, 0, 1, 16, 624)"><g clip-path="url(#ed344a37e2)"><g clip-path="url(#f2e9f5dcb4)"><path fill="#cdcdcd" d="M 0.644531 0.546875 L 4.363281 0.546875 L 4.363281 9.777344 L 0.644531 9.777344 Z M 0.644531 0.546875 " fill-opacity="1" fill-rule="nonzero"/></g></g></g></g><g clip-path="url(#2a03733c92)"><g transform="matrix(1, 0, 0, 1, 16, 572)"><g clip-path="url(#bb6305d2db)"><g clip-path="url(#f7ff2d8cef)"><path fill="#cdcdcd" d="M 0.644531 0.800781 L 4.363281 0.800781 L 4.363281 10.03125 L 0.644531 10.03125 Z M 0.644531 0.800781 " fill-opacity="1" fill-rule="nonzero"/></g></g></g></g><g clip-path="url(#1ebfe7c739)"><g transform="matrix(1, 0, 0, 1, 16, 585)"><g clip-path="url(#e4be73f9a7)"><g clip-path="url(#9afd0ca546)"><path fill="#cdcdcd" d="M 0.644531 0.75 L 4.363281 0.75 L 4.363281 9.976562 L 0.644531 9.976562 Z M 0.644531 0.75 " fill-opacity="1" fill-rule="nonzero"/></g></g></g></g><g clip-path="url(#209d1b8cf5)"><g transform="matrix(1, 0, 0, 1, 16, 598)"><g clip-path="url(#5ff6e2c508)"><g clip-path="url(#02a5b1a7df)"><path fill="#cdcdcd" d="M 0.644531 0.695312 L 4.363281 0.695312 L 4.363281 9.921875 L 0.644531 9.921875 Z M 0.644531 0.695312 " fill-opacity="1" fill-rule="nonzero"/></g></g></g></g><g clip-path="url(#b2ed748288)"><g transform="matrix(1, 0, 0, 1, 16, 611)"><g clip-path="url(#d23b118044)"><g clip-path="url(#1c3b215d1c)"><path fill="#cdcdcd" d="M 0.644531 0.621094 L 4.363281 0.621094 L 4.363281 9.847656 L 0.644531 9.847656 Z M 0.644531 0.621094 " fill-opacity="1" fill-rule="nonzero"/></g></g></g></g><g clip-path="url(#06ab015931)"><g transform="matrix(1, 0, 0, 1, 16, 637)"><g clip-path="url(#eb86b3f488)"><g clip-path="url(#380f0fa069)"><path fill="#cdcdcd" d="M 0.644531 0.476562 L 4.363281 0.476562 L 4.363281 9.703125 L 0.644531 9.703125 Z M 0.644531 0.476562 " fill-opacity="1" fill-rule="nonzero"/></g></g></g></g><g clip-path="url(#111ed7c2d0)"><g transform="matrix(1, 0, 0, 1, 16, 650)"><g clip-path="url(#cdadee97b7)"><g clip-path="url(#cfb951cfe3)"><path fill="#cdcdcd" d="M 0.644531 0.402344 L 4.363281 0.402344 L 4.363281 9.628906 L 0.644531 9.628906 Z M 0.644531 0.402344 " fill-opacity="1" fill-rule="nonzero"/></g></g></g></g><g clip-path="url(#1c9a051349)"><g clip-path="url(#364d74fc08)"><g transform="matrix(1, 0, 0, 1, 13, 663)"><g clip-path="url(#1e6f06fba5)"><g clip-path="url(#48cc6426d7)"><g clip-path="url(#97cc7da7ac)"><path fill="#cdcdcd" d="M 0.0625 0.347656 L 10.945312 0.347656 L 10.945312 11.234375 L 0.0625 11.234375 Z M 0.0625 0.347656 " fill-opacity="1" fill-rule="nonzero"/></g></g></g></g></g></g><g clip-path="url(#bb827f349e)"><g transform="matrix(1, 0, 0, 1, 16, 677)"><g clip-path="url(#294df2e98a)"><g clip-path="url(#8c64bc77eb)"><path fill="#cdcdcd" d="M 0.644531 0.953125 L 4.363281 0.953125 L 4.363281 10.179688 L 0.644531 10.179688 Z M 0.644531 0.953125 " fill-opacity="1" fill-rule="nonzero"/></g></g></g></g><g clip-path="url(#d8c50ad9d0)"><g transform="matrix(1, 0, 0, 1, 16, 690)"><g clip-path="url(#697534bf01)"><g clip-path="url(#a31abd65d2)"><path fill="#cdcdcd" d="M 0.644531 0.898438 L 4.363281 0.898438 L 4.363281 10.128906 L 0.644531 10.128906 Z M 0.644531 0.898438 " fill-opacity="1" fill-rule="nonzero"/></g></g></g></g><g clip-path="url(#6498b2730a)"><g transform="matrix(1, 0, 0, 1, 16, 703)"><g clip-path="url(#fa929f5d5f)"><g clip-path="url(#be9769b93d)"><path fill="#cdcdcd" d="M 0.644531 0.847656 L 4.363281 0.847656 L 4.363281 10.074219 L 0.644531 10.074219 Z M 0.644531 0.847656 " fill-opacity="1" fill-rule="nonzero"/></g></g></g></g><g clip-path="url(#b108c92318)"><g transform="matrix(1, 0, 0, 1, 16, 794)"><g clip-path="url(#25c19fe701)"><g clip-path="url(#8184467db6)"><path fill="#cdcdcd" d="M 0.644531 0.390625 L 4.363281 0.390625 L 4.363281 9.621094 L 0.644531 9.621094 Z M 0.644531 0.390625 " fill-opacity="1" fill-rule="nonzero"/></g></g></g></g><g clip-path="url(#4ade4799fb)"><g transform="matrix(1, 0, 0, 1, 16, 716)"><g clip-path="url(#981315af1a)"><g clip-path="url(#e210dee00a)"><path fill="#cdcdcd" d="M 0.644531 0.773438 L 4.363281 0.773438 L 4.363281 10 L 0.644531 10 Z M 0.644531 0.773438 " fill-opacity="1" fill-rule="nonzero"/></g></g></g></g><g clip-path="url(#24574f1498)"><g transform="matrix(1, 0, 0, 1, 16, 729)"><g clip-path="url(#fad5653431)"><g clip-path="url(#7a85220e9c)"><path fill="#cdcdcd" d="M 0.644531 0.71875 L 4.363281 0.71875 L 4.363281 9.945312 L 0.644531 9.945312 Z M 0.644531 0.71875 " fill-opacity="1" fill-rule="nonzero"/></g></g></g></g><g clip-path="url(#da3ec6ef25)"><g transform="matrix(1, 0, 0, 1, 16, 742)"><g clip-path="url(#db4544c330)"><g clip-path="url(#f71c6744fc)"><path fill="#cdcdcd" d="M 0.644531 0.664062 L 4.363281 0.664062 L 4.363281 9.894531 L 0.644531 9.894531 Z M 0.644531 0.664062 " fill-opacity="1" fill-rule="nonzero"/></g></g></g></g><g clip-path="url(#bafbfd484b)"><g transform="matrix(1, 0, 0, 1, 16, 755)"><g clip-path="url(#f8542d7fef)"><g clip-path="url(#3c0c9cb5d5)"><path fill="#cdcdcd" d="M 0.644531 0.59375 L 4.363281 0.59375 L 4.363281 9.820312 L 0.644531 9.820312 Z M 0.644531 0.59375 " fill-opacity="1" fill-rule="nonzero"/></g></g></g></g><g clip-path="url(#db8cf7a5ba)"><g transform="matrix(1, 0, 0, 1, 16, 768)"><g clip-path="url(#07a878004f)"><g clip-path="url(#381fa5faf7)"><path fill="#cdcdcd" d="M 0.644531 0.539062 L 4.363281 0.539062 L 4.363281 9.765625 L 0.644531 9.765625 Z M 0.644531 0.539062 " fill-opacity="1" fill-rule="nonzero"/></g></g></g></g><g clip-path="url(#b3f7a3cf6c)"><g transform="matrix(1, 0, 0, 1, 16, 781)"><g clip-path="url(#4129710301)"><g clip-path="url(#507495f249)"><path fill="#cdcdcd" d="M 0.644531 0.464844 L 4.363281 0.464844 L 4.363281 9.691406 L 0.644531 9.691406 Z M 0.644531 0.464844 " fill-opacity="1" fill-rule="nonzero"/></g></g></g></g><g clip-path="url(#93c1b699fe)"><g transform="matrix(1, 0, 0, 1, 16, 807)"><g clip-path="url(#96df1f1c22)"><g clip-path="url(#9d05ab128e)"><path fill="#cdcdcd" d="M 0.644531 0.320312 L 4.363281 0.320312 L 4.363281 9.546875 L 0.644531 9.546875 Z M 0.644531 0.320312 " fill-opacity="1" fill-rule="nonzero"/></g></g></g></g><g clip-path="url(#7fb24bc9df)"><g clip-path="url(#da82fb56f3)"><g transform="matrix(1, 0, 0, 1, 13, 820)"><g clip-path="url(#08428043dd)"><g clip-path="url(#8cb347874d)"><g clip-path="url(#7ec85722b7)"><path fill="#cdcdcd" d="M 0.0625 0.265625 L 10.945312 0.265625 L 10.945312 11.148438 L 0.0625 11.148438 Z M 0.0625 0.265625 " fill-opacity="1" fill-rule="nonzero"/></g></g></g></g></g></g><g clip-path="url(#561357ab95)"><g transform="matrix(1, 0, 0, 1, 16, 834)"><g clip-path="url(#06db676865)"><g clip-path="url(#c52f9be4d1)"><path fill="#cdcdcd" d="M 0.644531 0.871094 L 4.363281 0.871094 L 4.363281 10.097656 L 0.644531 10.097656 Z M 0.644531 0.871094 " fill-opacity="1" fill-rule="nonzero"/></g></g></g></g><g clip-path="url(#432ab6c960)"><g transform="matrix(1, 0, 0, 1, 16, 847)"><g clip-path="url(#b5470f52fb)"><g clip-path="url(#01ede56e69)"><path fill="#cdcdcd" d="M 0.644531 0.816406 L 4.363281 0.816406 L 4.363281 10.042969 L 0.644531 10.042969 Z M 0.644531 0.816406 " fill-opacity="1" fill-rule="nonzero"/></g></g></g></g><g clip-path="url(#59e1ae20ae)"><g clip-path="url(#409249e632)"><g transform="matrix(1, 0, 0, 1, 13, 964)"><g clip-path="url(#d91a4d68f1)"><g clip-path="url(#c90e3aa79e)"><g clip-path="url(#6948baba45)"><path fill="#cdcdcd" d="M 0.0625 0.234375 L 10.945312 0.234375 L 10.945312 11.121094 L 0.0625 11.121094 Z M 0.0625 0.234375 " fill-opacity="1" fill-rule="nonzero"/></g></g></g></g></g></g><g clip-path="url(#be39248bd8)"><g transform="matrix(1, 0, 0, 1, 16, 860)"><g clip-path="url(#b2ce7ef841)"><g clip-path="url(#005e65b3f6)"><path fill="#cdcdcd" d="M 0.644531 0.742188 L 4.363281 0.742188 L 4.363281 9.96875 L 0.644531 9.96875 Z M 0.644531 0.742188 " fill-opacity="1" fill-rule="nonzero"/></g></g></g></g><g clip-path="url(#174ca72f9a)"><g transform="matrix(1, 0, 0, 1, 16, 873)"><g clip-path="url(#18bebceca1)"><g clip-path="url(#175bdb2615)"><path fill="#cdcdcd" d="M 0.644531 0.6875 L 4.363281 0.6875 L 4.363281 9.917969 L 0.644531 9.917969 Z M 0.644531 0.6875 " fill-opacity="1" fill-rule="nonzero"/></g></g></g></g><g clip-path="url(#3c0961fa9e)"><g transform="matrix(1, 0, 0, 1, 16, 886)"><g clip-path="url(#d3ddf5c446)"><g clip-path="url(#3300f85d5e)"><path fill="#cdcdcd" d="M 0.644531 0.636719 L 4.363281 0.636719 L 4.363281 9.863281 L 0.644531 9.863281 Z M 0.644531 0.636719 " fill-opacity="1" fill-rule="nonzero"/></g></g></g></g><g clip-path="url(#7eafe35f2d)"><g transform="matrix(1, 0, 0, 1, 16, 899)"><g clip-path="url(#5aded6d754)"><g clip-path="url(#4471862dab)"><path fill="#cdcdcd" d="M 0.644531 0.5625 L 4.363281 0.5625 L 4.363281 9.789062 L 0.644531 9.789062 Z M 0.644531 0.5625 " fill-opacity="1" fill-rule="nonzero"/></g></g></g></g><g clip-path="url(#6f53fcbc9f)"><g transform="matrix(1, 0, 0, 1, 16, 912)"><g clip-path="url(#519a4611c1)"><g clip-path="url(#584fecfd3a)"><path fill="#cdcdcd" d="M 0.644531 0.507812 L 4.363281 0.507812 L 4.363281 9.734375 L 0.644531 9.734375 Z M 0.644531 0.507812 " fill-opacity="1" fill-rule="nonzero"/></g></g></g></g><g clip-path="url(#3f18fcf501)"><g transform="matrix(1, 0, 0, 1, 16, 925)"><g clip-path="url(#77c93a3c2f)"><g clip-path="url(#702e3b4e89)"><path fill="#cdcdcd" d="M 0.644531 0.433594 L 4.363281 0.433594 L 4.363281 9.664062 L 0.644531 9.664062 Z M 0.644531 0.433594 " fill-opacity="1" fill-rule="nonzero"/></g></g></g></g><g clip-path="url(#a5673479dc)"><g transform="matrix(1, 0, 0, 1, 16, 938)"><g clip-path="url(#858c7894c4)"><g clip-path="url(#89ad1f636c)"><path fill="#cdcdcd" d="M 0.644531 0.363281 L 4.363281 0.363281 L 4.363281 9.589844 L 0.644531 9.589844 Z M 0.644531 0.363281 " fill-opacity="1" fill-rule="nonzero"/></g></g></g></g><g clip-path="url(#8ae261d731)"><g transform="matrix(1, 0, 0, 1, 16, 951)"><g clip-path="url(#e6e9878393)"><g clip-path="url(#514ef68cb8)"><path fill="#cdcdcd" d="M 0.644531 0.308594 L 4.363281 0.308594 L 4.363281 9.535156 L 0.644531 9.535156 Z M 0.644531 0.308594 " fill-opacity="1" fill-rule="nonzero"/></g></g></g></g></svg>